SplineFontDB: 3.0
FontName: Luna-BoldItalic
FullName: Luna Bold Italic
FamilyName: Luna
Weight: Bold
Copyright: Copyright (c) 2013 - 2016, Juan Pablo del Peral [huertatipografica.com.ar], Cristiano Sobral [cssobral2013@gmail.com].
Version: 1.501;PS 001.000;hotconv 1.0.70;makeotf.lib2.5.58329 DEVELOPMENT
ItalicAngle: -7
UnderlinePosition: -250
UnderlineWidth: 116
Ascent: 1638
Descent: 410
sfntRevision: 0x00010000
LayerCount: 2
Layer: 0 1 "Back"  1
Layer: 1 1 "Fore"  0
XUID: [1021 633 1153022450 3522139]
FSType: 4
OS2Version: 3
OS2_WeightWidthSlopeOnly: 0
OS2_UseTypoMetrics: 1
CreationTime: 1386077823
ModificationTime: 1462128123
PfmFamily: 81
TTFWeight: 700
TTFWidth: 5
LineGap: 0
VLineGap: 0
Panose: 0 0 8 0 0 0 0 0 0 0
OS2TypoAscent: 1638
OS2TypoAOffset: 0
OS2TypoDescent: -410
OS2TypoDOffset: 0
OS2TypoLinegap: 0
OS2WinAscent: 2365
OS2WinAOffset: 0
OS2WinDescent: 659
OS2WinDOffset: 0
HheadAscent: 2365
HheadAOffset: 0
HheadDescent: -659
HheadDOffset: 0
OS2SubXSize: 1331
OS2SubYSize: 1229
OS2SubXOff: -18
OS2SubYOff: 154
OS2SupXSize: 1331
OS2SupYSize: 1229
OS2SupXOff: 88
OS2SupYOff: 717
OS2StrikeYSize: 117
OS2StrikeYPos: 569
OS2Vendor: 'UKWN'
OS2CodePages: 20000193.00000000
OS2UnicodeRanges: 20000007.00000000.00000000.00000000
Lookup: 1 0 0 "'aalt' Access All Alternates lookup 0"  {"'aalt' Access All Alternates lookup 0 subtable"  } ['aalt' ('DFLT' <'dflt' > 'grek' <'dflt' > 'latn' <'CAT ' 'ESP ' 'MOL ' 'NLD ' 'ROM ' 'TRK ' 'dflt' > ) ]
Lookup: 3 0 0 "'aalt' Access All Alternates lookup 1"  {"'aalt' Access All Alternates lookup 1 subtable"  } ['aalt' ('DFLT' <'dflt' > 'grek' <'dflt' > 'latn' <'CAT ' 'ESP ' 'MOL ' 'NLD ' 'ROM ' 'TRK ' 'dflt' > ) ]
Lookup: 6 0 0 "'locl' Localized Forms in Latin lookup 2"  {"'locl' Localized Forms in Latin lookup 2 contextual 0"  "'locl' Localized Forms in Latin lookup 2 contextual 1"  } ['locl' ('latn' <'CAT ' > ) ]

StartChar: exclam
Encoding: 33 33 4
Width: 614
GlyphClass: 2
Flags: W
LayerCount: 2
Fore
SplineSet
602 1464 m 1,0,-1
 408 531 l 1,1,-1
 239 509 l 1,2,-1
 212 538 l 1,3,-1
 309 1451 l 1,4,-1
 338 1485 l 1,5,-1
 572 1498 l 1,6,-1
 602 1464 l 1,0,-1
277 297 m 0,7,8
 346 297 346 297 385 257.5 c 128,-1,9
 424 218 424 218 424 148 c 0,10,11
 424 98 424 98 404.5 61 c 128,-1,12
 385 24 385 24 349.5 4.5 c 128,-1,13
 314 -15 314 -15 266 -15 c 0,14,15
 195 -15 195 -15 156 24.5 c 128,-1,16
 117 64 117 64 117 135 c 0,17,18
 117 184 117 184 136 221 c 128,-1,19
 155 258 155 258 191.5 277.5 c 128,-1,20
 228 297 228 297 277 297 c 0,7,8
EndSplineSet
EndChar

StartChar: quotedbl
Encoding: 34 34 5
Width: 785
GlyphClass: 2
Flags: W
LayerCount: 2
Fore
SplineSet
477 1426 m 1,0,-1
 338 937 l 1,1,-1
 198 914 l 1,2,-1
 178 935 l 1,3,-1
 234 1430 l 1,4,-1
 462 1446 l 1,5,-1
 477 1426 l 1,0,-1
808 1426 m 1,6,-1
 669 937 l 1,7,-1
 529 914 l 1,8,-1
 509 935 l 1,9,-1
 565 1430 l 1,10,-1
 793 1446 l 1,11,-1
 808 1426 l 1,6,-1
EndSplineSet
EndChar

StartChar: numbersign
Encoding: 35 35 6
Width: 1232
GlyphClass: 2
Flags: W
LayerCount: 2
Fore
SplineSet
935 804 m 1,0,-1
 890 568 l 1,1,-1
 1092 568 l 1,2,-1
 1111 548 l 1,3,-1
 1097 398 l 1,4,-1
 856 398 l 1,5,-1
 791 73 l 1,6,-1
 624 73 l 1,7,-1
 608 92 l 1,8,-1
 669 398 l 1,9,-1
 439 398 l 1,10,-1
 376 73 l 1,11,-1
 207 73 l 1,12,-1
 194 92 l 1,13,-1
 254 398 l 1,14,-1
 63 398 l 1,15,-1
 45 417 l 1,16,-1
 58 568 l 1,17,-1
 286 568 l 1,18,-1
 333 804 l 1,19,-1
 138 804 l 1,20,-1
 120 823 l 1,21,-1
 133 974 l 1,22,-1
 365 974 l 1,23,-1
 428 1291 l 1,24,-1
 593 1291 l 1,25,-1
 610 1268 l 1,26,-1
 552 974 l 1,27,-1
 780 974 l 1,28,-1
 843 1291 l 1,29,-1
 1006 1291 l 1,30,-1
 1027 1268 l 1,31,-1
 969 974 l 1,32,-1
 1167 974 l 1,33,-1
 1185 953 l 1,34,-1
 1172 804 l 1,35,-1
 935 804 l 1,0,-1
748 804 m 1,36,-1
 520 804 l 1,37,-1
 473 568 l 1,38,-1
 701 568 l 1,39,-1
 748 804 l 1,36,-1
EndSplineSet
EndChar

StartChar: dollar
Encoding: 36 36 7
Width: 1004
GlyphClass: 2
Flags: W
LayerCount: 2
Fore
SplineSet
421 829 m 0,0,1
 421 797 421 797 445.5 771 c 128,-1,2
 470 745 470 745 509.5 725 c 128,-1,3
 549 705 549 705 596.5 684.5 c 128,-1,4
 644 664 644 664 691.5 637 c 128,-1,5
 739 610 739 610 778.5 576 c 128,-1,6
 818 542 818 542 842.5 489.5 c 128,-1,7
 867 437 867 437 867 372 c 0,8,9
 867 312 867 312 846.5 254.5 c 128,-1,10
 826 197 826 197 786.5 145.5 c 128,-1,11
 747 94 747 94 682 55 c 128,-1,12
 617 16 617 16 536 -2 c 1,13,-1
 500 -301 l 1,14,-1
 354 -301 l 1,15,-1
 336 -279 l 1,16,-1
 365 -18 l 1,17,18
 183 -13 183 -13 34 52 c 1,19,-1
 97 311 l 1,20,-1
 129 329 l 1,21,22
 172 284 172 284 228 250.5 c 128,-1,23
 284 217 284 217 337.5 200 c 128,-1,24
 391 183 391 183 437 183 c 0,25,26
 503 183 503 183 547 219 c 128,-1,27
 591 255 591 255 591 304 c 0,28,29
 591 333 591 333 571.5 357.5 c 128,-1,30
 552 382 552 382 520.5 399.5 c 128,-1,31
 489 417 489 417 448.5 437 c 128,-1,32
 408 457 408 457 366 475 c 128,-1,33
 324 493 324 493 284 520.5 c 128,-1,34
 244 548 244 548 212 579.5 c 128,-1,35
 180 611 180 611 161 659 c 128,-1,36
 142 707 142 707 142 766 c 0,37,38
 142 857 142 857 185 936 c 128,-1,39
 228 1015 228 1015 312 1070.5 c 128,-1,40
 396 1126 396 1126 509 1144 c 1,41,-1
 543 1449 l 1,42,-1
 685 1449 l 1,43,-1
 710 1423 l 1,44,-1
 675 1152 l 1,45,46
 808 1142 808 1142 917 1094 c 1,47,-1
 849 849 l 1,48,-1
 806 838 l 1,49,50
 685 944 685 944 563 944 c 0,51,52
 530 944 530 944 503 934.5 c 128,-1,53
 476 925 476 925 458.5 908.5 c 128,-1,54
 441 892 441 892 431 871.5 c 128,-1,55
 421 851 421 851 421 829 c 0,0,1
EndSplineSet
EndChar

StartChar: percent
Encoding: 37 37 8
Width: 1934
GlyphClass: 2
Flags: W
LayerCount: 2
Fore
SplineSet
1620 1471 m 1,0,-1
 1631 1430 l 1,1,-1
 376 -207 l 1,2,-1
 262 -133 l 1,3,-1
 252 -101 l 1,4,-1
 1509 1543 l 1,5,-1
 1620 1471 l 1,0,-1
557 1462 m 0,6,7
 698 1462 698 1462 773.5 1379 c 128,-1,8
 849 1296 849 1296 849 1142 c 0,9,10
 849 908 849 908 739 777.5 c 128,-1,11
 629 647 629 647 426 647 c 0,12,13
 331 647 331 647 264.5 684.5 c 128,-1,14
 198 722 198 722 164.5 793.5 c 128,-1,15
 131 865 131 865 131 967 c 0,16,17
 131 1198 131 1198 243 1330 c 128,-1,18
 355 1462 355 1462 557 1462 c 0,6,7
516 1275 m 0,19,20
 316 1275 316 1275 316 996 c 0,21,22
 316 823 316 823 458 823 c 0,23,24
 566 823 566 823 614 893.5 c 128,-1,25
 662 964 662 964 662 1099 c 0,26,27
 662 1275 662 1275 516 1275 c 0,19,20
1561 804 m 0,28,29
 1702 804 1702 804 1776.5 721 c 128,-1,30
 1851 638 1851 638 1851 484 c 0,31,32
 1851 250 1851 250 1741 118.5 c 128,-1,33
 1631 -13 1631 -13 1428 -13 c 0,34,35
 1285 -13 1285 -13 1210 70 c 128,-1,36
 1135 153 1135 153 1135 307 c 0,37,38
 1135 540 1135 540 1246.5 672 c 128,-1,39
 1358 804 1358 804 1561 804 c 0,28,29
1518 615 m 0,40,41
 1318 615 1318 615 1318 338 c 0,42,43
 1318 162 1318 162 1460 162 c 0,44,45
 1570 162 1570 162 1619 234 c 128,-1,46
 1668 306 1668 306 1668 441 c 0,47,48
 1668 615 1668 615 1518 615 c 0,40,41
EndSplineSet
EndChar

StartChar: ampersand
Encoding: 38 38 9
Width: 1449
GlyphClass: 2
Flags: W
LayerCount: 2
Fore
SplineSet
770 1473 m 0,0,1
 859 1473 859 1473 943.5 1456 c 128,-1,2
 1028 1439 1028 1439 1131 1401 c 1,3,-1
 1062 1180 l 1,4,-1
 1025 1169 l 1,5,6
 857 1270 857 1270 720 1270 c 0,7,8
 609 1270 609 1270 547.5 1216.5 c 128,-1,9
 486 1163 486 1163 486 1059 c 0,10,11
 486 988 486 988 510 939 c 128,-1,12
 534 890 534 890 579 864.5 c 128,-1,13
 624 839 624 839 688 836 c 1,14,-1
 1234 867 l 1,15,-1
 1489 901 l 1,16,-1
 1516 870 l 1,17,-1
 1468 680 l 1,18,-1
 1137 667 l 1,19,-1
 1131 656 l 1,20,21
 1182 571 1182 571 1182 451 c 0,22,23
 1182 377 1182 377 1160.5 309 c 128,-1,24
 1139 241 1139 241 1092.5 180.5 c 128,-1,25
 1046 120 1046 120 978.5 75 c 128,-1,26
 911 30 911 30 814.5 4 c 128,-1,27
 718 -22 718 -22 602 -22 c 0,28,29
 369 -22 369 -22 237.5 76.5 c 128,-1,30
 106 175 106 175 106 346 c 0,31,32
 106 467 106 467 185 565 c 128,-1,33
 264 663 264 663 419 730 c 1,34,-1
 419 739 l 1,35,36
 245 849 245 849 245 1057 c 0,37,38
 245 1245 245 1245 385 1359 c 128,-1,39
 525 1473 525 1473 770 1473 c 0,0,1
872 658 m 1,40,-1
 576 645 l 1,41,42
 372 543 372 543 372 376 c 0,43,44
 372 276 372 276 441.5 220.5 c 128,-1,45
 511 165 511 165 636 165 c 0,46,47
 791 165 791 165 872 243.5 c 128,-1,48
 953 322 953 322 953 458 c 0,49,50
 953 588 953 588 872 658 c 1,40,-1
EndSplineSet
EndChar

StartChar: quotesingle
Encoding: 39 39 10
Width: 454
GlyphClass: 2
Flags: W
LayerCount: 2
Fore
SplineSet
477 1426 m 1,0,-1
 338 937 l 1,1,-1
 198 914 l 1,2,-1
 178 935 l 1,3,-1
 234 1430 l 1,4,-1
 462 1446 l 1,5,-1
 477 1426 l 1,0,-1
EndSplineSet
Substitution2: "'locl' Localized Forms in Latin lookup 12 subtable" puso
Substitution2: "'locl' Localized Forms in Latin lookup 10 subtable" puso
Substitution2: "'aalt' Access All Alternates lookup 0 subtable" puso
EndChar

StartChar: parenleft
Encoding: 40 40 11
Width: 666
GlyphClass: 2
Flags: W
LayerCount: 2
Fore
SplineSet
746 1399 m 1,0,-1
 744 1374 l 1,1,2
 654 1303 654 1303 584.5 1197.5 c 128,-1,3
 515 1092 515 1092 475 983.5 c 128,-1,4
 435 875 435 875 410 750.5 c 128,-1,5
 385 626 385 626 376 527.5 c 128,-1,6
 367 429 367 429 367 333 c 0,7,8
 367 148 367 148 409 23 c 128,-1,9
 451 -102 451 -102 550 -200 c 1,10,-1
 548 -226 l 1,11,-1
 430 -314 l 1,12,-1
 404 -314 l 1,13,14
 260 -197 260 -197 196.5 -42.5 c 128,-1,15
 133 112 133 112 133 342 c 0,16,17
 133 424 133 424 139 505 c 128,-1,18
 145 586 145 586 160.5 679.5 c 128,-1,19
 176 773 176 773 200 860 c 128,-1,20
 224 947 224 947 263 1038 c 128,-1,21
 302 1129 302 1129 351.5 1207.5 c 128,-1,22
 401 1286 401 1286 471.5 1360 c 128,-1,23
 542 1434 542 1434 626 1489 c 1,24,-1
 653 1489 l 1,25,-1
 746 1399 l 1,0,-1
EndSplineSet
EndChar

StartChar: parenright
Encoding: 41 41 12
Width: 666
GlyphClass: 2
Flags: W
LayerCount: 2
Fore
SplineSet
-63 -226 m 1,0,-1
 -60 -200 l 1,1,2
 29 -129 29 -129 98.5 -23.5 c 128,-1,3
 168 82 168 82 208 190.5 c 128,-1,4
 248 299 248 299 273.5 423.5 c 128,-1,5
 299 548 299 548 307.5 647.5 c 128,-1,6
 316 747 316 747 316 843 c 0,7,8
 316 1025 316 1025 273.5 1151 c 128,-1,9
 231 1277 231 1277 133 1374 c 1,10,-1
 135 1399 l 1,11,-1
 252 1489 l 1,12,-1
 279 1489 l 1,13,14
 423 1371 423 1371 486.5 1217.5 c 128,-1,15
 550 1064 550 1064 550 834 c 0,16,17
 550 752 550 752 544 671 c 128,-1,18
 538 590 538 590 522.5 496.5 c 128,-1,19
 507 403 507 403 483 316 c 128,-1,20
 459 229 459 229 420 138 c 128,-1,21
 381 47 381 47 331 -31.5 c 128,-1,22
 281 -110 281 -110 210.5 -184 c 128,-1,23
 140 -258 140 -258 56 -314 c 1,24,-1
 30 -314 l 1,25,-1
 -63 -226 l 1,0,-1
EndSplineSet
EndChar

StartChar: asterisk
Encoding: 42 42 13
Width: 862
GlyphClass: 2
Flags: W
LayerCount: 2
Fore
SplineSet
649 1651 m 1,0,-1
 583 1374 l 1,1,-1
 491 1365 l 1,2,-1
 473 1380 l 1,3,-1
 466 1642 l 1,4,5
 547 1670 547 1670 638 1670 c 1,6,-1
 649 1651 l 1,0,-1
443 1352 m 1,7,-1
 430 1257 l 1,8,-1
 408 1248 l 1,9,-1
 169 1320 l 1,10,11
 169 1417 169 1417 194 1494 c 1,12,-1
 214 1500 l 1,13,-1
 443 1352 l 1,7,-1
617 1354 m 1,14,-1
 851 1442 l 1,15,16
 906 1365 906 1365 931 1286 c 1,17,-1
 920 1270 l 1,18,-1
 649 1248 l 1,19,-1
 608 1331 l 1,20,-1
 617 1354 l 1,14,-1
638 1206 m 1,21,-1
 791 1000 l 1,22,23
 756 945 756 945 669 874 c 1,24,-1
 649 879 l 1,25,-1
 548 1146 l 1,26,-1
 615 1208 l 1,27,-1
 638 1206 l 1,21,-1
505 1163 m 1,28,-1
 507 1140 l 1,29,-1
 372 924 l 1,30,31
 301 945 301 945 212 1000 c 1,32,-1
 214 1021 l 1,33,-1
 421 1206 l 1,34,-1
 505 1163 l 1,28,-1
EndSplineSet
EndChar

StartChar: plus
Encoding: 43 43 14
Width: 1073
GlyphClass: 2
Flags: W
LayerCount: 2
Fore
SplineSet
703 1054 m 1,0,-1
 656 688 l 1,1,-1
 1023 688 l 1,2,-1
 1041 667 l 1,3,-1
 1004 488 l 1,4,-1
 632 488 l 1,5,-1
 588 114 l 1,6,-1
 408 99 l 1,7,-1
 387 120 l 1,8,-1
 432 488 l 1,9,-1
 65 488 l 1,10,-1
 50 509 l 1,11,-1
 86 688 l 1,12,-1
 458 688 l 1,13,-1
 503 1062 l 1,14,-1
 683 1075 l 1,15,-1
 703 1054 l 1,0,-1
EndSplineSet
EndChar

StartChar: comma
Encoding: 44 44 15
Width: 514
GlyphClass: 2
Flags: W
LayerCount: 2
Fore
SplineSet
271 290 m 1,0,1
 370 212 370 212 370 101 c 0,2,3
 370 1 370 1 304 -93 c 128,-1,4
 238 -187 238 -187 101 -284 c 1,5,-1
 7 -200 l 1,6,-1
 4 -178 l 1,7,8
 129 -78 129 -78 129 41 c 0,9,10
 129 116 129 116 58 174 c 1,11,-1
 58 200 l 1,12,13
 164 263 164 263 271 290 c 1,0,1
EndSplineSet
EndChar

StartChar: hyphen
Encoding: 45 45 16
Width: 684
GlyphClass: 2
Flags: W
LayerCount: 2
Fore
SplineSet
642 694 m 1,0,-1
 622 512 l 1,1,-1
 75 430 l 1,2,-1
 54 453 l 1,3,-1
 77 636 l 1,4,-1
 622 714 l 1,5,-1
 642 694 l 1,0,-1
EndSplineSet
EndChar

StartChar: period
Encoding: 46 46 17
Width: 518
GlyphClass: 2
Flags: W
LayerCount: 2
Fore
SplineSet
219 297 m 0,0,1
 288 297 288 297 326.5 257.5 c 128,-1,2
 365 218 365 218 365 148 c 0,3,4
 365 73 365 73 322.5 29 c 128,-1,5
 280 -15 280 -15 207 -15 c 0,6,7
 135 -15 135 -15 96.5 24.5 c 128,-1,8
 58 64 58 64 58 135 c 0,9,10
 58 184 58 184 77.5 221 c 128,-1,11
 97 258 97 258 133.5 277.5 c 128,-1,12
 170 297 170 297 219 297 c 0,0,1
EndSplineSet
EndChar

StartChar: slash
Encoding: 47 47 18
Width: 639
GlyphClass: 2
Flags: W
LayerCount: 2
Fore
SplineSet
748 1505 m 1,0,-1
 157 -260 l 1,1,-1
 -43 -260 l 1,2,-1
 -58 -234 l 1,3,-1
 529 1532 l 1,4,-1
 725 1532 l 1,5,-1
 748 1505 l 1,0,-1
EndSplineSet
Substitution2: "'frac' Diagonal Fractions lookup 19 subtable" fraction
Substitution2: "'aalt' Access All Alternates lookup 0 subtable" fraction
EndChar

StartChar: zero
Encoding: 48 48 19
Width: 1085
GlyphClass: 2
Flags: W
LayerCount: 2
Fore
SplineSet
647 1335 m 0,0,1
 834 1335 834 1335 937.5 1199 c 128,-1,2
 1041 1063 1041 1063 1041 804 c 0,3,4
 1041 560 1041 560 974.5 374.5 c 128,-1,5
 908 189 908 189 780 84.5 c 128,-1,6
 652 -20 652 -20 480 -20 c 0,7,8
 284 -20 284 -20 180.5 116.5 c 128,-1,9
 77 253 77 253 77 514 c 0,10,11
 77 696 77 696 115.5 847 c 128,-1,12
 154 998 154 998 225.5 1106.5 c 128,-1,13
 297 1215 297 1215 405 1275 c 128,-1,14
 513 1335 513 1335 647 1335 c 0,0,1
602 1066 m 0,15,16
 501 1066 501 1066 435 1003 c 128,-1,17
 369 940 369 940 339 828.5 c 128,-1,18
 309 717 309 717 309 557 c 0,19,20
 309 396 309 396 356.5 316 c 128,-1,21
 404 236 404 236 509 236 c 0,22,23
 658 236 658 236 733 370 c 128,-1,24
 808 504 808 504 808 748 c 0,25,26
 808 908 808 908 757.5 987 c 128,-1,27
 707 1066 707 1066 602 1066 c 0,15,16
EndSplineSet
Substitution2: "'case' Case-Sensitive Forms lookup 28 subtable" zero.lf
Substitution2: "'tnum' Tabular Numbers lookup 25 subtable" zero.tosf
Substitution2: "'lnum' Lining Figures lookup 23 subtable" zero.lf
Substitution2: "'frac' Diagonal Fractions lookup 20 subtable" zero.numr
Substitution2: "'dnom' Denominators lookup 18 subtable" zero.dnom
Substitution2: "'numr' Numerators lookup 17 subtable" zero.numr
Substitution2: "'sups' Superscript lookup 16 subtable" zerosuperior
Substitution2: "'sinf' Scientific Inferiors lookup 15 subtable" zero.sinf
AlternateSubs2: "'aalt' Access All Alternates lookup 1 subtable" zero.sinf zerosuperior zero.numr zero.dnom zero.lf zero.tosf
EndChar

StartChar: one
Encoding: 49 49 20
Width: 1069
GlyphClass: 2
Flags: W
LayerCount: 2
Fore
SplineSet
823 1307 m 1,0,-1
 703 469 l 1,1,-1
 660 0 l 1,2,-1
 365 0 l 1,3,-1
 432 437 l 1,4,-1
 500 1004 l 1,5,-1
 144 937 l 1,6,-1
 124 953 l 1,7,-1
 153 1187 l 1,8,-1
 784 1339 l 1,9,-1
 823 1307 l 1,0,-1
EndSplineSet
Substitution2: "'ss02' Style Set 2 lookup 36 subtable" arrowleft
Substitution2: "'case' Case-Sensitive Forms lookup 28 subtable" one.lf
Substitution2: "'tnum' Tabular Numbers lookup 25 subtable" one.tosf
Substitution2: "'lnum' Lining Figures lookup 23 subtable" one.lf
Substitution2: "'frac' Diagonal Fractions lookup 20 subtable" one.numr
Substitution2: "'dnom' Denominators lookup 18 subtable" one.dnom
Substitution2: "'numr' Numerators lookup 17 subtable" one.numr
Substitution2: "'sups' Superscript lookup 16 subtable" onesuperior
Substitution2: "'sinf' Scientific Inferiors lookup 15 subtable" one.sinf
AlternateSubs2: "'aalt' Access All Alternates lookup 1 subtable" one.sinf onesuperior one.numr one.dnom one.lf one.tosf arrowleft
EndChar

StartChar: two
Encoding: 50 50 21
Width: 1069
GlyphClass: 2
Flags: W
LayerCount: 2
Fore
SplineSet
610 1339 m 0,0,1
 767 1339 767 1339 869 1250 c 128,-1,2
 971 1161 971 1161 971 1021 c 0,3,4
 971 920 971 920 904 812.5 c 128,-1,5
 837 705 837 705 653 500 c 1,6,-1
 426 241 l 1,7,-1
 430 230 l 1,8,-1
 763 230 l 1,9,-1
 978 250 l 1,10,-1
 991 228 l 1,11,-1
 926 -13 l 1,12,-1
 651 0 l 1,13,-1
 120 0 l 1,14,-1
 32 -4 l 1,15,-1
 18 7 l 1,16,-1
 41 187 l 1,17,-1
 408 576 l 1,18,19
 458 631 458 631 482 658.5 c 128,-1,20
 506 686 506 686 543 730 c 128,-1,21
 580 774 580 774 598 800 c 128,-1,22
 616 826 616 826 636 859 c 128,-1,23
 656 892 656 892 663.5 919 c 128,-1,24
 671 946 671 946 671 971 c 0,25,26
 671 1023 671 1023 639.5 1055.5 c 128,-1,27
 608 1088 608 1088 543 1088 c 0,28,29
 469 1088 469 1088 383 1044 c 128,-1,30
 297 1000 297 1000 214 920 c 1,31,-1
 183 920 l 1,32,-1
 162 1148 l 1,33,34
 390 1339 390 1339 610 1339 c 0,0,1
EndSplineSet
Substitution2: "'ss02' Style Set 2 lookup 36 subtable" arrowup
Substitution2: "'case' Case-Sensitive Forms lookup 28 subtable" two.lf
Substitution2: "'tnum' Tabular Numbers lookup 25 subtable" two.tosf
Substitution2: "'lnum' Lining Figures lookup 23 subtable" two.lf
Substitution2: "'frac' Diagonal Fractions lookup 20 subtable" two.numr
Substitution2: "'dnom' Denominators lookup 18 subtable" two.dnom
Substitution2: "'numr' Numerators lookup 17 subtable" two.numr
Substitution2: "'sups' Superscript lookup 16 subtable" twosuperior
Substitution2: "'sinf' Scientific Inferiors lookup 15 subtable" two.sinf
AlternateSubs2: "'aalt' Access All Alternates lookup 1 subtable" two.sinf twosuperior two.numr two.dnom two.lf two.tosf arrowup
EndChar

StartChar: three
Encoding: 51 51 22
Width: 1071
GlyphClass: 2
Flags: W
LayerCount: 2
Fore
SplineSet
583 1343 m 0,0,1
 756 1343 756 1343 860.5 1266.5 c 128,-1,2
 965 1190 965 1190 965 1064 c 0,3,4
 965 967 965 967 898 870 c 128,-1,5
 831 773 831 773 705 714 c 1,6,-1
 705 703 l 1,7,8
 777 676 777 676 823 641 c 128,-1,9
 869 606 869 606 895.5 553.5 c 128,-1,10
 922 501 922 501 922 430 c 0,11,12
 922 303 922 303 845.5 201 c 128,-1,13
 769 99 769 99 630 40.5 c 128,-1,14
 491 -18 491 -18 316 -18 c 0,15,16
 194 -18 194 -18 60 7 c 1,17,-1
 73 241 l 1,18,-1
 97 262 l 1,19,20
 220 207 220 207 340 207 c 0,21,22
 477 207 477 207 557.5 263 c 128,-1,23
 638 319 638 319 638 417 c 0,24,25
 638 461 638 461 617 492 c 128,-1,26
 596 523 596 523 553 540.5 c 128,-1,27
 510 558 510 558 447 559 c 1,28,-1
 288 559 l 1,29,-1
 275 579 l 1,30,-1
 309 780 l 1,31,-1
 421 784 l 1,32,33
 473 784 473 784 527 810 c 128,-1,34
 581 836 581 836 619.5 885 c 128,-1,35
 658 934 658 934 658 991 c 0,36,37
 658 1046 658 1046 621.5 1076.5 c 128,-1,38
 585 1107 585 1107 518 1107 c 0,39,40
 454 1107 454 1107 385.5 1079.5 c 128,-1,41
 317 1052 317 1052 234 998 c 1,42,-1
 202 998 l 1,43,-1
 187 1210 l 1,44,45
 239 1244 239 1244 287 1268 c 128,-1,46
 335 1292 335 1292 384 1309 c 128,-1,47
 433 1326 433 1326 482.5 1334.5 c 128,-1,48
 532 1343 532 1343 583 1343 c 0,0,1
EndSplineSet
Substitution2: "'ss02' Style Set 2 lookup 36 subtable" arrowright
Substitution2: "'case' Case-Sensitive Forms lookup 28 subtable" three.lf
Substitution2: "'tnum' Tabular Numbers lookup 25 subtable" three.tosf
Substitution2: "'lnum' Lining Figures lookup 23 subtable" three.lf
Substitution2: "'frac' Diagonal Fractions lookup 20 subtable" three.numr
Substitution2: "'dnom' Denominators lookup 18 subtable" three.dnom
Substitution2: "'numr' Numerators lookup 17 subtable" three.numr
Substitution2: "'sups' Superscript lookup 16 subtable" threesuperior
Substitution2: "'sinf' Scientific Inferiors lookup 15 subtable" three.sinf
AlternateSubs2: "'aalt' Access All Alternates lookup 1 subtable" three.sinf threesuperior three.numr three.dnom three.lf three.tosf arrowright
EndChar

StartChar: four
Encoding: 52 52 23
Width: 1069
GlyphClass: 2
Flags: W
LayerCount: 2
Fore
SplineSet
976 324 m 1,0,-1
 795 329 l 1,1,-1
 768 15 l 1,2,-1
 750 -4 l 1,3,-1
 531 -18 l 1,4,-1
 520 0 l 1,5,-1
 570 331 l 1,6,-1
 214 331 l 1,7,-1
 30 324 l 1,8,-1
 13 346 l 1,9,-1
 36 527 l 1,10,-1
 662 1320 l 1,11,-1
 922 1320 l 1,12,-1
 817 543 l 1,13,-1
 1000 543 l 1,14,-1
 1014 518 l 1,15,-1
 976 324 l 1,0,-1
282 543 m 1,16,-1
 602 543 l 1,17,-1
 658 1002 l 1,18,-1
 638 1002 l 1,19,-1
 282 543 l 1,16,-1
EndSplineSet
Substitution2: "'ss02' Style Set 2 lookup 36 subtable" arrowdown
Substitution2: "'case' Case-Sensitive Forms lookup 28 subtable" four.lf
Substitution2: "'tnum' Tabular Numbers lookup 25 subtable" four.tosf
Substitution2: "'lnum' Lining Figures lookup 23 subtable" four.lf
Substitution2: "'frac' Diagonal Fractions lookup 20 subtable" four.numr
Substitution2: "'dnom' Denominators lookup 18 subtable" four.dnom
Substitution2: "'numr' Numerators lookup 17 subtable" four.numr
Substitution2: "'sups' Superscript lookup 16 subtable" foursuperior
Substitution2: "'sinf' Scientific Inferiors lookup 15 subtable" four.sinf
AlternateSubs2: "'aalt' Access All Alternates lookup 1 subtable" four.sinf foursuperior four.numr four.dnom four.lf four.tosf arrowdown
EndChar

StartChar: five
Encoding: 53 53 24
Width: 1069
GlyphClass: 2
Flags: W
LayerCount: 2
Fore
SplineSet
1043 1313 m 1,0,-1
 989 1088 l 1,1,-1
 967 1068 l 1,2,-1
 761 1088 l 1,3,-1
 486 1088 l 1,4,-1
 453 834 l 1,5,-1
 595 804 l 1,6,7
 937 736 937 736 937 471 c 0,8,9
 937 366 937 366 889 274 c 128,-1,10
 841 182 841 182 757 116 c 128,-1,11
 673 50 673 50 555.5 12.5 c 128,-1,12
 438 -25 438 -25 304 -25 c 0,13,14
 178 -25 178 -25 52 0 c 1,15,-1
 60 230 l 1,16,-1
 84 250 l 1,17,18
 215 198 215 198 346 198 c 0,19,20
 440 198 440 198 510.5 227 c 128,-1,21
 581 256 581 256 618.5 307.5 c 128,-1,22
 656 359 656 359 656 426 c 0,23,24
 656 560 656 560 458 593 c 2,25,-1
 226 632 l 1,26,-1
 207 658 l 1,27,-1
 286 1294 l 1,28,-1
 324 1327 l 1,29,-1
 458 1320 l 1,30,-1
 793 1320 l 1,31,-1
 1027 1333 l 1,32,-1
 1043 1313 l 1,0,-1
EndSplineSet
Substitution2: "'ss02' Style Set 2 lookup 36 subtable" arrowupleft
Substitution2: "'case' Case-Sensitive Forms lookup 28 subtable" five.lf
Substitution2: "'tnum' Tabular Numbers lookup 25 subtable" five.tosf
Substitution2: "'lnum' Lining Figures lookup 23 subtable" five.lf
Substitution2: "'frac' Diagonal Fractions lookup 20 subtable" five.numr
Substitution2: "'dnom' Denominators lookup 18 subtable" five.dnom
Substitution2: "'numr' Numerators lookup 17 subtable" five.numr
Substitution2: "'sups' Superscript lookup 16 subtable" fivesuperior
Substitution2: "'sinf' Scientific Inferiors lookup 15 subtable" five.sinf
AlternateSubs2: "'aalt' Access All Alternates lookup 1 subtable" five.sinf fivesuperior five.numr five.dnom five.lf five.tosf arrowupleft
EndChar

StartChar: six
Encoding: 54 54 25
Width: 1069
GlyphClass: 2
Flags: W
LayerCount: 2
Fore
SplineSet
1025 1212 m 1,0,-1
 1023 1182 l 1,1,2
 555 1037 555 1037 408 768 c 1,3,-1
 424 746 l 1,4,5
 538 813 538 813 636 813 c 0,6,7
 715 813 715 813 782 783.5 c 128,-1,8
 849 754 849 754 893 703.5 c 128,-1,9
 937 653 937 653 962 587 c 128,-1,10
 987 521 987 521 987 449 c 0,11,12
 987 388 987 388 971 325.5 c 128,-1,13
 955 263 955 263 917.5 199.5 c 128,-1,14
 880 136 880 136 826 87.5 c 128,-1,15
 772 39 772 39 687.5 8.5 c 128,-1,16
 603 -22 603 -22 500 -22 c 0,17,18
 291 -22 291 -22 177 96.5 c 128,-1,19
 63 215 63 215 63 421 c 0,20,21
 63 524 63 524 90.5 625.5 c 128,-1,22
 118 727 118 727 177.5 828.5 c 128,-1,23
 237 930 237 930 325 1021.5 c 128,-1,24
 413 1113 413 1113 540 1196.5 c 128,-1,25
 667 1280 667 1280 823 1343 c 1,26,-1
 836 1343 l 1,27,-1
 1025 1212 l 1,0,-1
557 606 m 0,28,29
 443 606 443 606 331 522 c 1,30,31
 327 459 327 459 327 428 c 0,32,33
 327 368 327 368 335 324 c 128,-1,34
 343 280 343 280 363 245 c 128,-1,35
 383 210 383 210 420 192 c 128,-1,36
 457 174 457 174 512 174 c 0,37,38
 558 174 558 174 594.5 188 c 128,-1,39
 631 202 631 202 654 225 c 128,-1,40
 677 248 677 248 692.5 280 c 128,-1,41
 708 312 708 312 714 346.5 c 128,-1,42
 720 381 720 381 720 419 c 0,43,44
 720 606 720 606 557 606 c 0,28,29
EndSplineSet
Substitution2: "'ss02' Style Set 2 lookup 36 subtable" arrowupright
Substitution2: "'case' Case-Sensitive Forms lookup 28 subtable" six.lf
Substitution2: "'tnum' Tabular Numbers lookup 25 subtable" six.tosf
Substitution2: "'lnum' Lining Figures lookup 23 subtable" six.lf
Substitution2: "'frac' Diagonal Fractions lookup 20 subtable" six.numr
Substitution2: "'dnom' Denominators lookup 18 subtable" six.dnom
Substitution2: "'numr' Numerators lookup 17 subtable" six.numr
Substitution2: "'sups' Superscript lookup 16 subtable" sixsuperior
Substitution2: "'sinf' Scientific Inferiors lookup 15 subtable" six.sinf
AlternateSubs2: "'aalt' Access All Alternates lookup 1 subtable" six.sinf sixsuperior six.numr six.dnom six.lf six.tosf arrowupright
EndChar

StartChar: seven
Encoding: 55 55 26
Width: 1071
GlyphClass: 2
Flags: W
LayerCount: 2
Fore
SplineSet
443 1320 m 1,0,-1
 959 1320 l 1,1,-1
 1072 1324 l 1,2,-1
 1049 1111 l 1,3,-1
 552 297 l 1,4,-1
 383 -34 l 1,5,-1
 155 34 l 1,6,-1
 144 81 l 1,7,-1
 761 1079 l 1,8,-1
 367 1079 l 1,9,-1
 155 1057 l 1,10,-1
 142 1081 l 1,11,-1
 189 1329 l 1,12,-1
 443 1320 l 1,0,-1
EndSplineSet
Substitution2: "'ss02' Style Set 2 lookup 36 subtable" arrowdownright
Substitution2: "'case' Case-Sensitive Forms lookup 28 subtable" seven.lf
Substitution2: "'tnum' Tabular Numbers lookup 25 subtable" seven.tosf
Substitution2: "'lnum' Lining Figures lookup 23 subtable" seven.lf
Substitution2: "'frac' Diagonal Fractions lookup 20 subtable" seven.numr
Substitution2: "'dnom' Denominators lookup 18 subtable" seven.dnom
Substitution2: "'numr' Numerators lookup 17 subtable" seven.numr
Substitution2: "'sups' Superscript lookup 16 subtable" sevensuperior
Substitution2: "'sinf' Scientific Inferiors lookup 15 subtable" seven.sinf
AlternateSubs2: "'aalt' Access All Alternates lookup 1 subtable" seven.sinf sevensuperior seven.numr seven.dnom seven.lf seven.tosf arrowdownright
EndChar

StartChar: eight
Encoding: 56 56 27
Width: 1071
GlyphClass: 2
Flags: W
LayerCount: 2
Fore
SplineSet
626 1339 m 0,0,1
 800 1339 800 1339 902 1256 c 128,-1,2
 1004 1173 1004 1173 1004 1030 c 0,3,4
 1004 981 1004 981 992 938.5 c 128,-1,5
 980 896 980 896 959 862 c 128,-1,6
 938 828 938 828 907.5 798 c 128,-1,7
 877 768 877 768 844 745 c 128,-1,8
 811 722 811 722 770 701 c 1,9,-1
 768 685 l 1,10,11
 815 660 815 660 848 635 c 128,-1,12
 881 610 881 610 911.5 574 c 128,-1,13
 942 538 942 538 958 489.5 c 128,-1,14
 974 441 974 441 974 381 c 0,15,16
 974 203 974 203 842 91.5 c 128,-1,17
 710 -20 710 -20 496 -20 c 0,18,19
 295 -20 295 -20 177.5 69.5 c 128,-1,20
 60 159 60 159 60 309 c 0,21,22
 60 361 60 361 74 406 c 128,-1,23
 88 451 88 451 111.5 485 c 128,-1,24
 135 519 135 519 172 549.5 c 128,-1,25
 209 580 209 580 249.5 602.5 c 128,-1,26
 290 625 290 625 342 647 c 1,27,-1
 344 660 l 1,28,29
 306 684 306 684 277.5 709 c 128,-1,30
 249 734 249 734 224 768 c 128,-1,31
 199 802 199 802 186.5 847.5 c 128,-1,32
 174 893 174 893 174 948 c 0,33,34
 174 1063 174 1063 229.5 1152 c 128,-1,35
 285 1241 285 1241 388 1290 c 128,-1,36
 491 1339 491 1339 626 1339 c 0,0,1
610 1137 m 0,37,38
 551 1137 551 1137 506 1116 c 128,-1,39
 461 1095 461 1095 436.5 1056.5 c 128,-1,40
 412 1018 412 1018 412 969 c 0,41,42
 412 931 412 931 425 901 c 128,-1,43
 438 871 438 871 465 847.5 c 128,-1,44
 492 824 492 824 520.5 807.5 c 128,-1,45
 549 791 549 791 593 772 c 1,46,47
 633 794 633 794 662 814 c 128,-1,48
 691 834 691 834 717 861 c 128,-1,49
 743 888 743 888 756.5 921 c 128,-1,50
 770 954 770 954 770 993 c 0,51,52
 770 1028 770 1028 759.5 1055 c 128,-1,53
 749 1082 749 1082 729 1100 c 128,-1,54
 709 1118 709 1118 679 1127.5 c 128,-1,55
 649 1137 649 1137 610 1137 c 0,37,38
518 568 m 1,56,57
 468 549 468 549 433.5 531 c 128,-1,58
 399 513 399 513 368 487.5 c 128,-1,59
 337 462 337 462 322 427.5 c 128,-1,60
 307 393 307 393 307 349 c 0,61,62
 307 267 307 267 357 221.5 c 128,-1,63
 407 176 407 176 500 176 c 0,64,65
 604 176 604 176 668.5 230.5 c 128,-1,66
 733 285 733 285 733 363 c 0,67,68
 733 394 733 394 721.5 420.5 c 128,-1,69
 710 447 710 447 693.5 466 c 128,-1,70
 677 485 677 485 646.5 504.5 c 128,-1,71
 616 524 616 524 589 537 c 128,-1,72
 562 550 562 550 518 568 c 1,56,57
EndSplineSet
Substitution2: "'ss02' Style Set 2 lookup 36 subtable" arrowdownleft
Substitution2: "'case' Case-Sensitive Forms lookup 28 subtable" eight.lf
Substitution2: "'tnum' Tabular Numbers lookup 25 subtable" eight.tosf
Substitution2: "'lnum' Lining Figures lookup 23 subtable" eight.lf
Substitution2: "'frac' Diagonal Fractions lookup 20 subtable" eight.numr
Substitution2: "'dnom' Denominators lookup 18 subtable" eight.dnom
Substitution2: "'numr' Numerators lookup 17 subtable" eight.numr
Substitution2: "'sups' Superscript lookup 16 subtable" eightsuperior
Substitution2: "'sinf' Scientific Inferiors lookup 15 subtable" eight.sinf
AlternateSubs2: "'aalt' Access All Alternates lookup 1 subtable" eight.sinf eightsuperior eight.numr eight.dnom eight.lf eight.tosf arrowdownleft
EndChar

StartChar: nine
Encoding: 57 57 28
Width: 1069
GlyphClass: 2
Flags: W
LayerCount: 2
Fore
SplineSet
613 1343 m 0,0,1
 822 1343 822 1343 934.5 1224 c 128,-1,2
 1047 1105 1047 1105 1047 899 c 0,3,4
 1047 796 1047 796 1019.5 695 c 128,-1,5
 992 594 992 594 932.5 492 c 128,-1,6
 873 390 873 390 785.5 299 c 128,-1,7
 698 208 698 208 571.5 124.5 c 128,-1,8
 445 41 445 41 290 -22 c 1,9,-1
 275 -22 l 1,10,-1
 86 108 l 1,11,-1
 90 138 l 1,12,13
 557 282 557 282 705 552 c 1,14,-1
 690 574 l 1,15,16
 629 540 629 540 580 523.5 c 128,-1,17
 531 507 531 507 475 507 c 0,18,19
 371 507 371 507 290 558 c 128,-1,20
 209 609 209 609 166.5 692 c 128,-1,21
 124 775 124 775 124 872 c 0,22,23
 124 933 124 933 140 995.5 c 128,-1,24
 156 1058 156 1058 194 1121.5 c 128,-1,25
 232 1185 232 1185 286.5 1233.5 c 128,-1,26
 341 1282 341 1282 425.5 1312.5 c 128,-1,27
 510 1343 510 1343 613 1343 c 0,0,1
557 714 m 0,28,29
 668 714 668 714 780 798 c 1,30,31
 784 861 784 861 784 892 c 0,32,33
 784 952 784 952 776 996 c 128,-1,34
 768 1040 768 1040 748 1075 c 128,-1,35
 728 1110 728 1110 691.5 1128 c 128,-1,36
 655 1146 655 1146 602 1146 c 0,37,38
 563 1146 563 1146 530.5 1136.5 c 128,-1,39
 498 1127 498 1127 475.5 1109.5 c 128,-1,40
 453 1092 453 1092 436 1069.5 c 128,-1,41
 419 1047 419 1047 409 1019 c 128,-1,42
 399 991 399 991 394 961.5 c 128,-1,43
 389 932 389 932 389 901 c 0,44,45
 389 714 389 714 557 714 c 0,28,29
EndSplineSet
Substitution2: "'case' Case-Sensitive Forms lookup 28 subtable" nine.lf
Substitution2: "'tnum' Tabular Numbers lookup 25 subtable" nine.tosf
Substitution2: "'lnum' Lining Figures lookup 23 subtable" nine.lf
Substitution2: "'frac' Diagonal Fractions lookup 20 subtable" nine.numr
Substitution2: "'dnom' Denominators lookup 18 subtable" nine.dnom
Substitution2: "'numr' Numerators lookup 17 subtable" nine.numr
Substitution2: "'sups' Superscript lookup 16 subtable" ninesuperior
Substitution2: "'sinf' Scientific Inferiors lookup 15 subtable" nine.sinf
AlternateSubs2: "'aalt' Access All Alternates lookup 1 subtable" nine.sinf ninesuperior nine.numr nine.dnom nine.lf nine.tosf
EndChar

StartChar: colon
Encoding: 58 58 29
Width: 518
GlyphClass: 2
Flags: W
LayerCount: 2
Fore
SplineSet
290 892 m 0,0,1
 360 892 360 892 398.5 852 c 128,-1,2
 437 812 437 812 437 741 c 0,3,4
 437 667 437 667 394.5 623 c 128,-1,5
 352 579 352 579 279 579 c 0,6,7
 208 579 208 579 169.5 618.5 c 128,-1,8
 131 658 131 658 131 730 c 0,9,10
 131 804 131 804 174 848 c 128,-1,11
 217 892 217 892 290 892 c 0,0,1
219 297 m 0,12,13
 288 297 288 297 326.5 257.5 c 128,-1,14
 365 218 365 218 365 148 c 0,15,16
 365 73 365 73 322.5 29 c 128,-1,17
 280 -15 280 -15 207 -15 c 0,18,19
 135 -15 135 -15 96.5 24.5 c 128,-1,20
 58 64 58 64 58 135 c 0,21,22
 58 184 58 184 77.5 221 c 128,-1,23
 97 258 97 258 133.5 277.5 c 128,-1,24
 170 297 170 297 219 297 c 0,12,13
EndSplineSet
EndChar

StartChar: semicolon
Encoding: 59 59 30
Width: 514
GlyphClass: 2
Flags: W
LayerCount: 2
Fore
SplineSet
284 892 m 0,0,1
 330 892 330 892 363 874 c 128,-1,2
 396 856 396 856 413 822 c 128,-1,3
 430 788 430 788 430 741 c 0,4,5
 430 667 430 667 387.5 623 c 128,-1,6
 345 579 345 579 273 579 c 128,-1,7
 201 579 201 579 162.5 618 c 128,-1,8
 124 657 124 657 124 730 c 0,9,10
 124 804 124 804 167 848 c 128,-1,11
 210 892 210 892 284 892 c 0,0,1
262 290 m 1,12,13
 363 212 363 212 363 101 c 0,14,15
 363 2 363 2 297 -92.5 c 128,-1,16
 231 -187 231 -187 95 -284 c 1,17,-1
 0 -200 l 1,18,-1
 -2 -178 l 1,19,20
 122 -78 122 -78 122 41 c 0,21,22
 122 117 122 117 50 174 c 1,23,-1
 52 200 l 1,24,25
 157 263 157 263 262 290 c 1,12,13
EndSplineSet
EndChar

StartChar: less
Encoding: 60 60 31
Width: 1116
GlyphClass: 2
Flags: W
LayerCount: 2
Fore
SplineSet
1049 892 m 1,0,-1
 1034 870 l 1,1,-1
 297 602 l 1,2,-1
 297 585 l 1,3,-1
 969 329 l 1,4,-1
 908 165 l 1,5,-1
 879 144 l 1,6,-1
 75 469 l 1,7,-1
 101 705 l 1,8,-1
 126 733 l 1,9,-1
 1006 1059 l 1,10,-1
 1049 892 l 1,0,-1
EndSplineSet
EndChar

StartChar: equal
Encoding: 61 61 32
Width: 1075
GlyphClass: 2
Flags: W
LayerCount: 2
Fore
SplineSet
1066 877 m 1,0,-1
 1049 698 l 1,1,-1
 110 698 l 1,2,-1
 90 718 l 1,3,-1
 106 894 l 1,4,-1
 1045 894 l 1,5,-1
 1066 877 l 1,0,-1
1014 455 m 1,6,-1
 998 277 l 1,7,-1
 58 277 l 1,8,-1
 38 297 l 1,9,-1
 54 475 l 1,10,-1
 993 475 l 1,11,-1
 1014 455 l 1,6,-1
EndSplineSet
EndChar

StartChar: greater
Encoding: 62 62 33
Width: 1133
GlyphClass: 2
Flags: W
LayerCount: 2
Fore
SplineSet
1049 733 m 1,0,-1
 1068 705 l 1,1,-1
 1041 469 l 1,2,-1
 153 144 l 1,3,-1
 129 165 l 1,4,-1
 108 329 l 1,5,-1
 845 585 l 1,6,-1
 847 602 l 1,7,-1
 176 870 l 1,8,-1
 167 892 l 1,9,-1
 248 1059 l 1,10,-1
 1049 733 l 1,0,-1
EndSplineSet
EndChar

StartChar: question
Encoding: 63 63 34
Width: 765
GlyphClass: 2
Flags: W
LayerCount: 2
Fore
SplineSet
268 1489 m 1,0,-1
 297 1505 l 1,1,2
 575 1490 575 1490 722.5 1404 c 128,-1,3
 870 1318 870 1318 870 1169 c 0,4,5
 870 1070 870 1070 805.5 982.5 c 128,-1,6
 741 895 741 895 624 832 c 1,7,-1
 449 733 l 1,8,-1
 443 720 l 1,9,-1
 434 529 l 1,10,-1
 226 503 l 1,11,-1
 207 522 l 1,12,-1
 219 802 l 1,13,-1
 234 825 l 1,14,-1
 451 933 l 1,15,16
 600 1004 600 1004 600 1122 c 0,17,18
 600 1203 600 1203 508 1249.5 c 128,-1,19
 416 1296 416 1296 214 1309 c 1,20,-1
 196 1335 l 1,21,-1
 268 1489 l 1,0,-1
311 297 m 0,22,23
 357 297 357 297 390 279 c 128,-1,24
 423 261 423 261 440.5 228 c 128,-1,25
 458 195 458 195 458 148 c 0,26,27
 458 73 458 73 415 29 c 128,-1,28
 372 -15 372 -15 299 -15 c 0,29,30
 227 -15 227 -15 189 24.5 c 128,-1,31
 151 64 151 64 151 135 c 0,32,33
 151 210 151 210 194 253.5 c 128,-1,34
 237 297 237 297 311 297 c 0,22,23
EndSplineSet
EndChar

StartChar: at
Encoding: 64 64 35
Width: 1898
GlyphClass: 2
Flags: W
LayerCount: 2
Fore
SplineSet
1849 701 m 0,0,1
 1849 367 1849 367 1630.5 185.5 c 128,-1,2
 1412 4 1412 4 1006 -4 c 1,3,-1
 1057 359 l 1,4,-1
 1030 359 l 1,5,6
 899 132 899 132 755 -15 c 1,7,-1
 714 -15 l 1,8,9
 596 30 596 30 543.5 118.5 c 128,-1,10
 491 207 491 207 491 344 c 0,11,12
 491 432 491 432 511 518.5 c 128,-1,13
 531 605 531 605 573.5 688.5 c 128,-1,14
 616 772 616 772 677 841.5 c 128,-1,15
 738 911 738 911 826 963.5 c 128,-1,16
 914 1016 914 1016 1019 1041 c 1,17,-1
 1030 1041 l 1,18,-1
 1203 996 l 1,19,-1
 1361 1045 l 1,20,-1
 1383 1032 l 1,21,-1
 1275 252 l 1,22,-1
 1273 198 l 1,23,24
 1453 227 1453 227 1555.5 358.5 c 128,-1,25
 1658 490 1658 490 1658 692 c 0,26,27
 1658 818 1658 818 1613.5 922.5 c 128,-1,28
 1569 1027 1569 1027 1488.5 1099 c 128,-1,29
 1408 1171 1408 1171 1290 1209 c 128,-1,30
 1172 1247 1172 1247 1030 1243 c 0,31,32
 858 1239 858 1239 714 1178.5 c 128,-1,33
 570 1118 570 1118 470 1014 c 128,-1,34
 370 910 370 910 315 765 c 128,-1,35
 260 620 260 620 260 451 c 0,36,37
 260 274 260 274 321.5 131 c 128,-1,38
 383 -12 383 -12 495 -108 c 128,-1,39
 607 -204 607 -204 766 -255.5 c 128,-1,40
 925 -307 925 -307 1118 -307 c 1,41,-1
 1129 -336 l 1,42,-1
 1047 -473 l 1,43,44
 826 -471 826 -471 644.5 -410.5 c 128,-1,45
 463 -350 463 -350 334.5 -237.5 c 128,-1,46
 206 -125 206 -125 135.5 42 c 128,-1,47
 65 209 65 209 65 417 c 0,48,49
 65 540 65 540 88.5 655.5 c 128,-1,50
 112 771 112 771 157.5 871 c 128,-1,51
 203 971 203 971 267.5 1057.5 c 128,-1,52
 332 1144 332 1144 417 1211.5 c 128,-1,53
 502 1279 502 1279 601.5 1327 c 128,-1,54
 701 1375 701 1375 818.5 1400.5 c 128,-1,55
 936 1426 936 1426 1064 1426 c 0,56,57
 1241 1426 1241 1426 1387 1375 c 128,-1,58
 1533 1324 1533 1324 1635 1231 c 128,-1,59
 1737 1138 1737 1138 1793 1002 c 128,-1,60
 1849 866 1849 866 1849 701 c 0,0,1
789 243 m 0,61,62
 803 243 803 243 825.5 262 c 128,-1,63
 848 281 848 281 880 322 c 128,-1,64
 912 363 912 363 947.5 420 c 128,-1,65
 983 477 983 477 1025.5 560 c 128,-1,66
 1068 643 1068 643 1109 739 c 1,67,-1
 1115 784 l 1,68,-1
 1115 795 l 1,69,-1
 974 843 l 1,70,71
 898 843 898 843 842 789.5 c 128,-1,72
 786 736 786 736 758 645 c 128,-1,73
 730 554 730 554 730 437 c 0,74,75
 730 366 730 366 739 321 c 128,-1,76
 748 276 748 276 760.5 259.5 c 128,-1,77
 773 243 773 243 789 243 c 0,61,62
EndSplineSet
EndChar

StartChar: A
Encoding: 65 65 36
Width: 1312
GlyphClass: 2
Flags: W
AnchorPoint: "Anchor-1" 0 0 basechar 0
AnchorPoint: "Anchor-0" 777 1448 basechar 0
LayerCount: 2
Fore
SplineSet
1214 0 m 1,0,-1
 914 0 l 1,1,-1
 901 187 l 1,2,-1
 881 329 l 1,3,-1
 608 333 l 1,4,-1
 367 329 l 1,5,-1
 314 202 l 1,6,-1
 248 0 l 1,7,-1
 -45 0 l 1,8,-1
 610 1449 l 1,9,-1
 965 1449 l 1,10,-1
 1214 0 l 1,0,-1
847 559 m 1,11,-1
 757 1169 l 1,12,-1
 737 1169 l 1,13,-1
 471 561 l 1,14,-1
 656 557 l 1,15,-1
 847 559 l 1,11,-1
EndSplineSet
Position2: "'cpsp' Capital Spacing lookup 0 subtable" dx=16 dy=0 dh=33 dv=0
EndChar

StartChar: B
Encoding: 66 66 37
Width: 1272
GlyphClass: 2
Flags: W
LayerCount: 2
Fore
SplineSet
948 752 m 1,0,1
 1077 707 1077 707 1134 635.5 c 128,-1,2
 1191 564 1191 564 1191 449 c 0,3,4
 1191 221 1191 221 1021.5 105 c 128,-1,5
 852 -11 852 -11 500 -11 c 0,6,7
 299 -11 299 -11 112 0 c 1,8,-1
 110 0 l 1,9,-1
 180 432 l 1,10,-1
 290 1449 l 1,11,-1
 778 1451 l 2,12,13
 979 1451 979 1451 1093.5 1370 c 128,-1,14
 1208 1289 1208 1289 1208 1133 c 0,15,16
 1208 1004 1208 1004 1141.5 905.5 c 128,-1,17
 1075 807 1075 807 948 752 c 1,0,1
500 836 m 1,18,-1
 703 829 l 1,19,20
 802 855 802 855 850.5 916.5 c 128,-1,21
 899 978 899 978 899 1081 c 0,22,23
 899 1165 899 1165 847.5 1200.5 c 128,-1,24
 796 1236 796 1236 669 1236 c 2,25,-1
 557 1236 l 1,26,-1
 500 836 l 1,18,-1
572 202 m 0,27,28
 723 202 723 202 806.5 266.5 c 128,-1,29
 890 331 890 331 890 447 c 0,30,31
 890 523 890 523 845.5 566 c 128,-1,32
 801 609 801 609 712 626 c 1,33,-1
 469 622 l 1,34,-1
 447 460 l 1,35,-1
 421 212 l 1,36,37
 548 202 548 202 572 202 c 0,27,28
EndSplineSet
Position2: "'cpsp' Capital Spacing lookup 0 subtable" dx=16 dy=0 dh=33 dv=0
EndChar

StartChar: C
Encoding: 67 67 38
Width: 1141
GlyphClass: 2
Flags: W
AnchorPoint: "Anchor-1" 702 0 basechar 0
AnchorPoint: "Anchor-0" 765 1448 basechar 0
LayerCount: 2
Fore
SplineSet
847 1466 m 0,0,1
 1061 1466 1061 1466 1219 1380 c 1,2,-1
 1135 1129 l 1,3,-1
 1111 1120 l 1,4,5
 1050 1168 1050 1168 973.5 1195.5 c 128,-1,6
 897 1223 897 1223 815 1223 c 0,7,8
 609 1223 609 1223 503.5 1072 c 128,-1,9
 398 921 398 921 398 630 c 0,10,11
 398 432 398 432 476 331 c 128,-1,12
 554 230 554 230 703 230 c 0,13,14
 757 230 757 230 815 241.5 c 128,-1,15
 873 253 873 253 930.5 275.5 c 128,-1,16
 988 298 988 298 1038 329 c 1,17,-1
 1064 314 l 1,18,-1
 1006 58 l 1,19,20
 916 17 916 17 834 -1.5 c 128,-1,21
 752 -20 752 -20 660 -20 c 0,22,23
 382 -20 382 -20 233 137 c 128,-1,24
 84 294 84 294 84 583 c 0,25,26
 84 858 84 858 173 1056.5 c 128,-1,27
 262 1255 262 1255 434 1360.5 c 128,-1,28
 606 1466 606 1466 847 1466 c 0,0,1
EndSplineSet
Substitution2: "Single Substitution lookup 41 subtable" C.ss01
Substitution2: "'ss01' Style Set 1 lookup 35 subtable" C.ss01
Substitution2: "'aalt' Access All Alternates lookup 0 subtable" C.ss01
Position2: "'cpsp' Capital Spacing lookup 0 subtable" dx=16 dy=0 dh=33 dv=0
EndChar

StartChar: D
Encoding: 68 68 39
Width: 1443
GlyphClass: 2
Flags: W
AnchorPoint: "Anchor-1" 0 0 basechar 0
AnchorPoint: "Anchor-0" 763 1448 basechar 0
LayerCount: 2
Fore
SplineSet
290 1449 m 1,0,-1
 840 1458 l 1,1,2
 1115 1458 1115 1458 1265 1311 c 128,-1,3
 1415 1164 1415 1164 1415 892 c 0,4,5
 1415 611 1415 611 1324 408 c 128,-1,6
 1233 205 1233 205 1053 95 c 128,-1,7
 873 -15 873 -15 617 -15 c 0,8,9
 362 -15 362 -15 110 0 c 1,10,-1
 180 432 l 1,11,-1
 290 1449 l 1,0,-1
683 214 m 0,12,13
 884 214 884 214 992.5 370.5 c 128,-1,14
 1101 527 1101 527 1101 845 c 0,15,16
 1101 1038 1101 1038 1027.5 1129.5 c 128,-1,17
 954 1221 954 1221 804 1221 c 0,18,19
 717 1221 717 1221 559 1212 c 1,20,-1
 451 460 l 1,21,-1
 430 232 l 1,22,23
 571 214 571 214 683 214 c 0,12,13
EndSplineSet
Substitution2: "Single Substitution lookup 41 subtable" D.ss01
Substitution2: "'ss01' Style Set 1 lookup 35 subtable" D.ss01
Substitution2: "'aalt' Access All Alternates lookup 0 subtable" D.ss01
Position2: "'cpsp' Capital Spacing lookup 0 subtable" dx=16 dy=0 dh=33 dv=0
EndChar

StartChar: E
Encoding: 69 69 40
Width: 1118
GlyphClass: 2
Flags: W
AnchorPoint: "Anchor-1" 638 0 basechar 0
AnchorPoint: "Anchor-0" 722 1448 basechar 0
LayerCount: 2
Fore
SplineSet
559 1212 m 1,0,-1
 509 854 l 1,1,-1
 750 851 l 1,2,-1
 980 858 l 1,3,-1
 996 836 l 1,4,-1
 946 613 l 1,5,-1
 698 619 l 1,6,-1
 475 617 l 1,7,-1
 453 460 l 1,8,-1
 430 236 l 1,9,-1
 680 234 l 1,10,-1
 1027 245 l 1,11,-1
 1038 223 l 1,12,-1
 993 0 l 1,13,-1
 108 0 l 1,14,-1
 178 432 l 1,15,-1
 290 1449 l 1,16,-1
 1182 1449 l 1,17,-1
 1196 1426 l 1,18,-1
 1146 1203 l 1,19,-1
 811 1214 l 1,20,-1
 559 1212 l 1,0,-1
EndSplineSet
Position2: "'cpsp' Capital Spacing lookup 0 subtable" dx=16 dy=0 dh=33 dv=0
EndChar

StartChar: F
Encoding: 70 70 41
Width: 999
GlyphClass: 2
Flags: W
LayerCount: 2
Fore
SplineSet
559 1212 m 1,0,-1
 503 813 l 1,1,-1
 696 811 l 1,2,-1
 939 817 l 1,3,-1
 953 795 l 1,4,-1
 905 574 l 1,5,-1
 647 581 l 1,6,-1
 471 579 l 1,7,-1
 453 460 l 1,8,-1
 408 0 l 1,9,-1
 108 0 l 1,10,-1
 178 432 l 1,11,-1
 290 1449 l 1,12,-1
 1129 1449 l 1,13,-1
 1142 1426 l 1,14,-1
 1092 1201 l 1,15,-1
 761 1214 l 1,16,-1
 559 1212 l 1,0,-1
EndSplineSet
Position2: "'cpsp' Capital Spacing lookup 0 subtable" dx=16 dy=0 dh=33 dv=0
EndChar

StartChar: G
Encoding: 71 71 42
Width: 1317
GlyphClass: 2
Flags: W
AnchorPoint: "Anchor-1" 709 0 basechar 0
AnchorPoint: "Anchor-0" 812 1448 basechar 0
LayerCount: 2
Fore
SplineSet
901 1466 m 0,0,1
 1136 1466 1136 1466 1322 1380 c 1,2,-1
 1223 1111 l 1,3,-1
 1196 1109 l 1,4,5
 1094 1172 1094 1172 1014.5 1198.5 c 128,-1,6
 935 1225 935 1225 838 1225 c 0,7,8
 728 1225 728 1225 646 1189.5 c 128,-1,9
 564 1154 564 1154 506 1078 c 128,-1,10
 448 1002 448 1002 418.5 877 c 128,-1,11
 389 752 389 752 389 579 c 0,12,13
 389 385 389 385 466.5 299.5 c 128,-1,14
 544 214 544 214 714 214 c 0,15,16
 794 214 794 214 901 250 c 1,17,-1
 922 374 l 1,18,-1
 944 600 l 1,19,-1
 1221 617 l 1,20,-1
 1191 421 l 1,21,-1
 1154 69 l 1,22,23
 1020 23 1020 23 909.5 1.5 c 128,-1,24
 799 -20 799 -20 680 -20 c 0,25,26
 485 -20 485 -20 349.5 50 c 128,-1,27
 214 120 214 120 146.5 251 c 128,-1,28
 79 382 79 382 79 568 c 0,29,30
 79 999 79 999 292 1232.5 c 128,-1,31
 505 1466 505 1466 901 1466 c 0,0,1
EndSplineSet
Position2: "'cpsp' Capital Spacing lookup 0 subtable" dx=16 dy=0 dh=33 dv=0
EndChar

StartChar: H
Encoding: 72 72 43
Width: 1529
GlyphClass: 2
Flags: W
AnchorPoint: "Anchor-1" 0 0 basechar 0
AnchorPoint: "Anchor-0" 881 1448 basechar 0
LayerCount: 2
Fore
SplineSet
1471 1449 m 1,0,-1
 1331 460 l 1,1,-1
 1286 0 l 1,2,-1
 989 0 l 1,3,-1
 1059 432 l 1,4,-1
 1077 604 l 1,5,-1
 757 610 l 1,6,-1
 471 602 l 1,7,-1
 451 460 l 1,8,-1
 408 0 l 1,9,-1
 108 0 l 1,10,-1
 178 432 l 1,11,-1
 288 1449 l 1,12,-1
 591 1449 l 1,13,-1
 507 851 l 1,14,-1
 806 845 l 1,15,-1
 1104 851 l 1,16,-1
 1167 1449 l 1,17,-1
 1471 1449 l 1,0,-1
EndSplineSet
Position2: "'cpsp' Capital Spacing lookup 0 subtable" dx=16 dy=0 dh=33 dv=0
EndChar

StartChar: I
Encoding: 73 73 44
Width: 650
GlyphClass: 2
Flags: W
AnchorPoint: "Anchor-1" 0 0 basechar 0
AnchorPoint: "Anchor-0" 436 1448 basechar 0
LayerCount: 2
Fore
SplineSet
451 460 m 1,0,-1
 408 0 l 1,1,-1
 108 0 l 1,2,-1
 178 432 l 1,3,-1
 288 1449 l 1,4,-1
 591 1449 l 1,5,-1
 451 460 l 1,0,-1
EndSplineSet
Substitution2: "Single Substitution lookup 41 subtable" I.ss01
Substitution2: "'ss01' Style Set 1 lookup 35 subtable" I.ss01
Substitution2: "'aalt' Access All Alternates lookup 0 subtable" I.ss01
Position2: "'cpsp' Capital Spacing lookup 0 subtable" dx=16 dy=0 dh=33 dv=0
EndChar

StartChar: J
Encoding: 74 74 45
Width: 738
GlyphClass: 2
Flags: W
AnchorPoint: "Anchor-1" 0 0 basechar 0
AnchorPoint: "Anchor-0" 430 1448 basechar 0
LayerCount: 2
Fore
SplineSet
669 1449 m 1,0,-1
 529 477 l 1,1,-1
 512 271 l 1,2,3
 494 145 494 145 441.5 56.5 c 128,-1,4
 389 -32 389 -32 286 -103.5 c 128,-1,5
 183 -175 183 -175 13 -239 c 1,6,-1
 -58 -81 l 1,7,-1
 -56 -52 l 1,8,9
 91 21 91 21 156.5 93 c 128,-1,10
 222 165 222 165 236 277 c 1,11,-1
 260 451 l 1,12,-1
 342 1230 l 1,13,-1
 110 1225 l 1,14,-1
 92 1246 l 1,15,-1
 131 1449 l 1,16,-1
 669 1449 l 1,0,-1
EndSplineSet
Position2: "'cpsp' Capital Spacing lookup 0 subtable" dx=16 dy=0 dh=33 dv=0
EndChar

StartChar: K
Encoding: 75 75 46
Width: 1281
GlyphClass: 2
Flags: W
AnchorPoint: "Anchor-1" 660 0 basechar 0
AnchorPoint: "Anchor-0" 649 1448 basechar 0
LayerCount: 2
Fore
SplineSet
1374 1449 m 1,0,-1
 793 755 l 1,1,2
 974 436 974 436 1243 63 c 1,3,-1
 1234 30 l 1,4,5
 1102 -4 1102 -4 937 -22 c 1,6,-1
 908 -4 l 1,7,8
 646 437 646 437 491 744 c 1,9,-1
 451 460 l 1,10,-1
 406 0 l 1,11,-1
 108 0 l 1,12,-1
 178 432 l 1,13,-1
 288 1449 l 1,14,-1
 591 1449 l 1,15,-1
 496 778 l 1,16,-1
 955 1311 l 1,17,-1
 1054 1449 l 1,18,-1
 1374 1449 l 1,0,-1
EndSplineSet
Position2: "'cpsp' Capital Spacing lookup 0 subtable" dx=16 dy=0 dh=33 dv=0
EndChar

StartChar: L
Encoding: 76 76 47
Width: 948
GlyphClass: 2
Flags: W
AnchorPoint: "Anchor-1" 464 0 basechar 0
AnchorPoint: "Anchor-0" 430 1448 basechar 0
LayerCount: 2
Fore
SplineSet
910 223 m 1,0,-1
 862 0 l 1,1,-1
 101 0 l 1,2,-1
 172 432 l 1,3,-1
 282 1449 l 1,4,-1
 583 1449 l 1,5,-1
 443 460 l 1,6,-1
 424 245 l 1,7,-1
 896 245 l 1,8,-1
 910 223 l 1,0,-1
EndSplineSet
Substitution2: "Single Substitution lookup 41 subtable" L.ss01
Substitution2: "'ss01' Style Set 1 lookup 35 subtable" L.ss01
Substitution2: "'aalt' Access All Alternates lookup 0 subtable" L.ss01
Position2: "'cpsp' Capital Spacing lookup 0 subtable" dx=16 dy=0 dh=33 dv=0
EndChar

StartChar: M
Encoding: 77 77 48
Width: 1747
GlyphClass: 2
Flags: W
LayerCount: 2
Fore
SplineSet
1580 0 m 1,0,-1
 1316 0 l 1,1,-1
 1350 439 l 1,2,-1
 1367 1010 l 1,3,-1
 1348 1010 l 1,4,-1
 926 153 l 1,5,-1
 694 153 l 1,6,-1
 514 1010 l 1,7,-1
 491 1010 l 1,8,-1
 372 466 l 1,9,-1
 284 0 l 1,10,-1
 34 0 l 1,11,-1
 359 1449 l 1,12,-1
 698 1449 l 1,13,-1
 730 1234 l 1,14,-1
 865 538 l 1,15,-1
 886 538 l 1,16,-1
 1208 1236 l 1,17,-1
 1296 1449 l 1,18,-1
 1634 1449 l 1,19,-1
 1580 0 l 1,0,-1
EndSplineSet
Substitution2: "Single Substitution lookup 41 subtable" M.ss01
Substitution2: "'ss01' Style Set 1 lookup 35 subtable" M.ss01
Substitution2: "'aalt' Access All Alternates lookup 0 subtable" M.ss01
Position2: "'cpsp' Capital Spacing lookup 0 subtable" dx=16 dy=0 dh=33 dv=0
EndChar

StartChar: N
Encoding: 78 78 49
Width: 1526
GlyphClass: 2
Flags: W
AnchorPoint: "Anchor-1" 702 0 basechar 0
AnchorPoint: "Anchor-0" 881 1448 basechar 0
LayerCount: 2
Fore
SplineSet
1329 447 m 1,0,-1
 1286 0 l 1,1,-1
 967 0 l 1,2,-1
 516 993 l 1,3,-1
 496 993 l 1,4,-1
 432 498 l 1,5,-1
 383 0 l 1,6,-1
 110 0 l 1,7,-1
 178 428 l 1,8,-1
 290 1449 l 1,9,-1
 610 1449 l 1,10,-1
 1062 455 l 1,11,-1
 1081 455 l 1,12,-1
 1196 1438 l 1,13,-1
 1473 1455 l 1,14,-1
 1329 447 l 1,0,-1
EndSplineSet
Position2: "'cpsp' Capital Spacing lookup 0 subtable" dx=16 dy=0 dh=33 dv=0
EndChar

StartChar: O
Encoding: 79 79 50
Width: 1421
GlyphClass: 2
Flags: W
AnchorPoint: "Anchor-1" 0 0 basechar 0
AnchorPoint: "Anchor-0" 825 1448 basechar 0
LayerCount: 2
Fore
SplineSet
832 1468 m 0,0,1
 1099 1468 1099 1468 1247 1313.5 c 128,-1,2
 1395 1159 1395 1159 1395 865 c 0,3,4
 1395 665 1395 665 1345 501.5 c 128,-1,5
 1295 338 1295 338 1201 222 c 128,-1,6
 1107 106 1107 106 965 42 c 128,-1,7
 823 -22 823 -22 645 -22 c 0,8,9
 514 -22 514 -22 410 18 c 128,-1,10
 306 58 306 58 233.5 134.5 c 128,-1,11
 161 211 161 211 122.5 327.5 c 128,-1,12
 84 444 84 444 84 593 c 0,13,14
 84 792 84 792 133 954 c 128,-1,15
 182 1116 182 1116 275.5 1230 c 128,-1,16
 369 1344 369 1344 511 1406 c 128,-1,17
 653 1468 653 1468 832 1468 c 0,0,1
795 1228 m 0,18,19
 661 1228 661 1228 573 1165 c 128,-1,20
 485 1102 485 1102 438.5 961.5 c 128,-1,21
 392 821 392 821 392 600 c 0,22,23
 392 394 392 394 458 300.5 c 128,-1,24
 524 207 524 207 673 207 c 0,25,26
 808 207 808 207 896.5 270.5 c 128,-1,27
 985 334 985 334 1032 476 c 128,-1,28
 1079 618 1079 618 1079 840 c 0,29,30
 1079 1044 1079 1044 1012.5 1136 c 128,-1,31
 946 1228 946 1228 795 1228 c 0,18,19
EndSplineSet
Position2: "'cpsp' Capital Spacing lookup 0 subtable" dx=16 dy=0 dh=33 dv=0
EndChar

StartChar: P
Encoding: 80 80 51
Width: 1215
GlyphClass: 2
Flags: W
LayerCount: 2
Fore
SplineSet
290 1449 m 1,0,-1
 808 1451 l 2,1,2
 1011 1451 1011 1451 1125 1353 c 128,-1,3
 1239 1255 1239 1255 1239 1066 c 0,4,5
 1239 937 1239 937 1194 826.5 c 128,-1,6
 1149 716 1149 716 1067.5 636.5 c 128,-1,7
 986 557 986 557 866.5 511.5 c 128,-1,8
 747 466 747 466 604 466 c 2,9,-1
 453 466 l 1,10,-1
 453 460 l 1,11,-1
 408 0 l 1,12,-1
 110 0 l 1,13,-1
 180 432 l 1,14,-1
 290 1449 l 1,0,-1
486 694 m 1,15,-1
 698 688 l 1,16,17
 806 715 806 715 867 802 c 128,-1,18
 928 889 928 889 928 1019 c 0,19,20
 928 1121 928 1121 876 1173 c 128,-1,21
 824 1225 824 1225 710 1232 c 1,22,-1
 561 1225 l 1,23,-1
 486 694 l 1,15,-1
EndSplineSet
Position2: "'cpsp' Capital Spacing lookup 0 subtable" dx=16 dy=0 dh=33 dv=0
EndChar

StartChar: Q
Encoding: 81 81 52
Width: 1423
GlyphClass: 2
Flags: W
LayerCount: 2
Fore
SplineSet
1541 -221 m 1,0,-1
 1550 -252 l 1,1,2
 1482 -368 1482 -368 1399 -441 c 1,3,-1
 1376 -453 l 1,4,5
 961 -304 961 -304 667 -22 c 1,6,-1
 642 -22 l 2,7,8
 378 -22 378 -22 231 136.5 c 128,-1,9
 84 295 84 295 84 593 c 0,10,11
 84 792 84 792 133.5 954 c 128,-1,12
 183 1116 183 1116 277 1230 c 128,-1,13
 371 1344 371 1344 513 1406 c 128,-1,14
 655 1468 655 1468 834 1468 c 0,15,16
 1101 1468 1101 1468 1248 1314 c 128,-1,17
 1395 1160 1395 1160 1395 865 c 0,18,19
 1395 559 1395 559 1279.5 343.5 c 128,-1,20
 1164 128 1164 128 950 36 c 1,21,22
 1217 -143 1217 -143 1541 -221 c 1,0,-1
392 600 m 0,23,24
 392 394 392 394 458 300.5 c 128,-1,25
 524 207 524 207 673 207 c 0,26,27
 808 207 808 207 896.5 270.5 c 128,-1,28
 985 334 985 334 1032 476 c 128,-1,29
 1079 618 1079 618 1079 840 c 0,30,31
 1079 1044 1079 1044 1012.5 1136 c 128,-1,32
 946 1228 946 1228 795 1228 c 0,33,34
 661 1228 661 1228 573 1165 c 128,-1,35
 485 1102 485 1102 438.5 961.5 c 128,-1,36
 392 821 392 821 392 600 c 0,23,24
EndSplineSet
Substitution2: "Single Substitution lookup 41 subtable" Q.corta
Position2: "'cpsp' Capital Spacing lookup 0 subtable" dx=16 dy=0 dh=33 dv=0
EndChar

StartChar: R
Encoding: 82 82 53
Width: 1292
GlyphClass: 2
Flags: W
AnchorPoint: "Anchor-1" 583 0 basechar 0
AnchorPoint: "Anchor-0" 761 1448 basechar 0
LayerCount: 2
Fore
SplineSet
1241 1084 m 0,0,1
 1241 921 1241 921 1156 787.5 c 128,-1,2
 1071 654 1071 654 920 572 c 1,3,4
 1044 317 1044 317 1196 69 c 1,5,-1
 1189 36 l 1,6,7
 1037 -13 1037 -13 890 -22 c 1,8,-1
 862 0 l 1,9,10
 747 265 747 265 664 494 c 1,11,-1
 455 494 l 1,12,-1
 451 460 l 1,13,-1
 408 0 l 1,14,-1
 108 0 l 1,15,-1
 178 432 l 1,16,-1
 290 1449 l 1,17,-1
 813 1451 l 2,18,19
 913 1451 913 1451 992.5 1426.5 c 128,-1,20
 1072 1402 1072 1402 1127 1356 c 128,-1,21
 1182 1310 1182 1310 1211.5 1240.5 c 128,-1,22
 1241 1171 1241 1171 1241 1084 c 0,0,1
488 723 m 1,23,-1
 703 714 l 1,24,25
 928 790 928 790 928 1034 c 0,26,27
 928 1222 928 1222 710 1232 c 1,28,-1
 561 1225 l 1,29,-1
 488 723 l 1,23,-1
EndSplineSet
Position2: "'cpsp' Capital Spacing lookup 0 subtable" dx=16 dy=0 dh=33 dv=0
EndChar

StartChar: S
Encoding: 83 83 54
Width: 1092
GlyphClass: 2
Flags: W
AnchorPoint: "Anchor-1" 484 0 basechar 0
AnchorPoint: "Anchor-0" 666 1448 basechar 0
LayerCount: 2
Fore
SplineSet
723 1468 m 0,0,1
 909 1468 909 1468 1088 1395 c 1,2,-1
 1010 1137 l 1,3,-1
 965 1120 l 1,4,5
 896 1174 896 1174 818.5 1204 c 128,-1,6
 741 1234 741 1234 673 1234 c 0,7,8
 580 1234 580 1234 522 1185.5 c 128,-1,9
 464 1137 464 1137 464 1070 c 0,10,11
 464 1039 464 1039 479.5 1010 c 128,-1,12
 495 981 495 981 521.5 958.5 c 128,-1,13
 548 936 548 936 583 912.5 c 128,-1,14
 618 889 618 889 657.5 868 c 128,-1,15
 697 847 697 847 739 821.5 c 128,-1,16
 781 796 781 796 820.5 770.5 c 128,-1,17
 860 745 860 745 895.5 711 c 128,-1,18
 931 677 931 677 957 639.5 c 128,-1,19
 983 602 983 602 998.5 552.5 c 128,-1,20
 1014 503 1014 503 1014 447 c 0,21,22
 1014 351 1014 351 971.5 265.5 c 128,-1,23
 929 180 929 180 854.5 117 c 128,-1,24
 780 54 780 54 673 17 c 128,-1,25
 566 -20 566 -20 443 -20 c 0,26,27
 221 -20 221 -20 20 75 c 1,28,-1
 92 349 l 1,29,-1
 126 367 l 1,30,31
 206 289 206 289 304.5 248 c 128,-1,32
 403 207 403 207 488 207 c 0,33,34
 590 207 590 207 650 256.5 c 128,-1,35
 710 306 710 306 710 378 c 0,36,37
 710 412 710 412 694.5 442 c 128,-1,38
 679 472 679 472 653 495 c 128,-1,39
 627 518 627 518 592.5 541.5 c 128,-1,40
 558 565 558 565 519 585.5 c 128,-1,41
 480 606 480 606 438.5 631 c 128,-1,42
 397 656 397 656 358 681 c 128,-1,43
 319 706 319 706 284.5 739.5 c 128,-1,44
 250 773 250 773 224 810 c 128,-1,45
 198 847 198 847 182.5 897 c 128,-1,46
 167 947 167 947 167 1004 c 0,47,48
 167 1101 167 1101 209 1187 c 128,-1,49
 251 1273 251 1273 324.5 1335 c 128,-1,50
 398 1397 398 1397 501.5 1432.5 c 128,-1,51
 605 1468 605 1468 723 1468 c 0,0,1
EndSplineSet
Position2: "'cpsp' Capital Spacing lookup 0 subtable" dx=16 dy=0 dh=33 dv=0
EndChar

StartChar: T
Encoding: 84 84 55
Width: 1101
GlyphClass: 2
Flags: W
AnchorPoint: "Anchor-1" 488 0 basechar 0
AnchorPoint: "Anchor-0" 666 1448 basechar 0
LayerCount: 2
Fore
SplineSet
1182 1426 m 1,0,-1
 1137 1206 l 1,1,-1
 874 1219 l 1,2,-1
 789 1219 l 1,3,-1
 683 460 l 1,4,-1
 638 0 l 1,5,-1
 340 0 l 1,6,-1
 412 432 l 1,7,-1
 498 1219 l 1,8,-1
 410 1219 l 1,9,-1
 138 1206 l 1,10,-1
 122 1228 l 1,11,-1
 172 1449 l 1,12,-1
 1169 1449 l 1,13,-1
 1182 1426 l 1,0,-1
EndSplineSet
Position2: "'cpsp' Capital Spacing lookup 0 subtable" dx=16 dy=0 dh=33 dv=0
EndChar

StartChar: U
Encoding: 85 85 56
Width: 1400
GlyphClass: 2
Flags: W
AnchorPoint: "Anchor-1" 0 0 basechar 0
AnchorPoint: "Anchor-0" 815 1448 basechar 0
LayerCount: 2
Fore
SplineSet
1279 714 m 1,0,-1
 1255 525 l 1,1,2
 1226 262 1226 262 1068.5 121 c 128,-1,3
 911 -20 911 -20 638 -20 c 0,4,5
 400 -20 400 -20 265.5 89.5 c 128,-1,6
 131 199 131 199 131 402 c 0,7,8
 131 460 131 460 140 512 c 1,9,-1
 169 720 l 1,10,-1
 250 1449 l 1,11,-1
 548 1449 l 1,12,-1
 424 552 l 2,13,14
 417 504 417 504 417 466 c 0,15,16
 417 343 417 343 476.5 284.5 c 128,-1,17
 536 226 536 226 660 226 c 0,18,19
 804 226 804 226 883.5 301.5 c 128,-1,20
 963 377 963 377 982 536 c 1,21,-1
 1081 1449 l 1,22,-1
 1380 1449 l 1,23,-1
 1279 714 l 1,0,-1
EndSplineSet
Position2: "'cpsp' Capital Spacing lookup 0 subtable" dx=16 dy=0 dh=33 dv=0
EndChar

StartChar: V
Encoding: 86 86 57
Width: 1283
GlyphClass: 2
Flags: W
LayerCount: 2
Fore
SplineSet
744 0 m 1,0,-1
 389 0 l 1,1,-1
 135 1449 l 1,2,-1
 437 1449 l 1,3,-1
 451 1262 l 1,4,-1
 597 279 l 1,5,-1
 615 279 l 1,6,-1
 1038 1246 l 1,7,-1
 1104 1449 l 1,8,-1
 1395 1449 l 1,9,-1
 744 0 l 1,0,-1
EndSplineSet
Substitution2: "Single Substitution lookup 41 subtable" V.ss01
Substitution2: "'ss01' Style Set 1 lookup 35 subtable" V.ss01
Substitution2: "'aalt' Access All Alternates lookup 0 subtable" V.ss01
Position2: "'cpsp' Capital Spacing lookup 0 subtable" dx=16 dy=0 dh=33 dv=0
EndChar

StartChar: W
Encoding: 87 87 58
Width: 1975
GlyphClass: 2
Flags: W
AnchorPoint: "Anchor-1" 0 0 basechar 0
AnchorPoint: "Anchor-0" 1057 1448 basechar 0
LayerCount: 2
Fore
SplineSet
1438 0 m 1,0,-1
 1126 0 l 1,1,-1
 1004 703 l 1,2,-1
 984 703 l 1,3,-1
 688 0 l 1,4,-1
 370 0 l 1,5,-1
 157 1449 l 1,6,-1
 449 1449 l 1,7,-1
 449 1273 l 1,8,-1
 579 309 l 1,9,-1
 597 309 l 1,10,-1
 933 1097 l 1,11,-1
 877 1449 l 1,12,-1
 1180 1449 l 1,13,-1
 1187 1243 l 1,14,-1
 1324 309 l 1,15,-1
 1345 309 l 1,16,-1
 1746 1257 l 1,17,-1
 1804 1449 l 1,18,-1
 2081 1449 l 1,19,-1
 1438 0 l 1,0,-1
EndSplineSet
Position2: "'cpsp' Capital Spacing lookup 0 subtable" dx=16 dy=0 dh=33 dv=0
EndChar

StartChar: X
Encoding: 88 88 59
Width: 1335
GlyphClass: 2
Flags: W
LayerCount: 2
Fore
SplineSet
886 744 m 1,0,-1
 1236 0 l 1,1,-1
 890 0 l 1,2,-1
 843 144 l 1,3,-1
 656 525 l 1,4,-1
 351 126 l 1,5,-1
 273 0 l 1,6,-1
 -32 0 l 1,7,-1
 505 733 l 1,8,-1
 157 1449 l 1,9,-1
 507 1449 l 1,10,-1
 554 1307 l 1,11,-1
 730 944 l 1,12,-1
 1004 1318 l 1,13,-1
 1084 1449 l 1,14,-1
 1397 1449 l 1,15,-1
 886 744 l 1,0,-1
EndSplineSet
Substitution2: "Single Substitution lookup 41 subtable" X.ss01
Substitution2: "'ss01' Style Set 1 lookup 35 subtable" X.ss01
Substitution2: "'aalt' Access All Alternates lookup 0 subtable" X.ss01
Position2: "'cpsp' Capital Spacing lookup 0 subtable" dx=16 dy=0 dh=33 dv=0
EndChar

StartChar: Y
Encoding: 89 89 60
Width: 1223
GlyphClass: 2
Flags: W
AnchorPoint: "Anchor-1" 0 0 basechar 0
AnchorPoint: "Anchor-0" 728 1448 basechar 0
LayerCount: 2
Fore
SplineSet
730 496 m 1,0,-1
 714 406 l 1,1,-1
 675 0 l 1,2,-1
 378 0 l 1,3,-1
 447 406 l 1,4,-1
 455 498 l 1,5,-1
 126 1449 l 1,6,-1
 434 1449 l 1,7,-1
 453 1352 l 1,8,-1
 624 793 l 1,9,-1
 645 793 l 1,10,-1
 978 1343 l 1,11,-1
 1032 1449 l 1,12,-1
 1343 1449 l 1,13,-1
 730 496 l 1,0,-1
EndSplineSet
Position2: "'cpsp' Capital Spacing lookup 0 subtable" dx=16 dy=0 dh=33 dv=0
EndChar

StartChar: Z
Encoding: 90 90 61
Width: 1197
GlyphClass: 2
Flags: W
AnchorPoint: "Anchor-1" 0 0 basechar 0
AnchorPoint: "Anchor-0" 625 1448 basechar 0
LayerCount: 2
Fore
SplineSet
1210 1234 m 1,0,-1
 383 228 l 1,1,-1
 856 228 l 1,2,-1
 1094 245 l 1,3,-1
 1104 230 l 1,4,-1
 1052 -7 l 1,5,-1
 735 0 l 1,6,-1
 174 0 l 1,7,-1
 2 -9 l 1,8,-1
 30 205 l 1,9,-1
 862 1221 l 1,10,-1
 417 1221 l 1,11,-1
 176 1201 l 1,12,-1
 165 1217 l 1,13,-1
 219 1453 l 1,14,-1
 503 1449 l 1,15,-1
 1101 1449 l 1,16,-1
 1236 1451 l 1,17,-1
 1210 1234 l 1,0,-1
EndSplineSet
Position2: "'cpsp' Capital Spacing lookup 0 subtable" dx=16 dy=0 dh=33 dv=0
EndChar

StartChar: bracketleft
Encoding: 91 91 62
Width: 664
GlyphClass: 2
Flags: W
LayerCount: 2
Fore
SplineSet
763 1444 m 1,0,-1
 748 1311 l 1,1,-1
 500 1282 l 1,2,-1
 329 -108 l 1,3,-1
 570 -138 l 1,4,-1
 552 -271 l 1,5,-1
 538 -286 l 1,6,-1
 75 -264 l 1,7,-1
 194 588 l 1,8,-1
 282 1438 l 1,9,-1
 752 1460 l 1,10,-1
 763 1444 l 1,0,-1
EndSplineSet
EndChar

StartChar: backslash
Encoding: 92 92 63
Width: 787
GlyphClass: 2
Flags: W
LayerCount: 2
Fore
SplineSet
299 1532 m 1,0,-1
 763 -234 l 1,1,-1
 746 -260 l 1,2,-1
 546 -260 l 1,3,-1
 79 1505 l 1,4,-1
 103 1532 l 1,5,-1
 299 1532 l 1,0,-1
EndSplineSet
EndChar

StartChar: bracketright
Encoding: 93 93 64
Width: 664
GlyphClass: 2
Flags: W
LayerCount: 2
Fore
SplineSet
-84 -268 m 1,0,-1
 -67 -138 l 1,1,-1
 180 -108 l 1,2,-1
 349 1282 l 1,3,-1
 110 1311 l 1,4,-1
 126 1444 l 1,5,-1
 142 1460 l 1,6,-1
 606 1438 l 1,7,-1
 486 588 l 1,8,-1
 398 -264 l 1,9,-1
 -73 -286 l 1,10,-1
 -84 -268 l 1,0,-1
EndSplineSet
EndChar

StartChar: asciicircum
Encoding: 94 94 65
Width: 991
GlyphClass: 2
Flags: W
LayerCount: 2
Fore
SplineSet
931 329 m 1,0,-1
 905 301 l 1,1,-1
 739 264 l 1,2,-1
 561 912 l 1,3,-1
 543 912 l 1,4,-1
 196 264 l 1,5,-1
 172 252 l 1,6,-1
 13 314 l 1,7,-1
 437 1101 l 1,8,-1
 466 1118 l 1,9,-1
 703 1118 l 1,10,-1
 931 329 l 1,0,-1
EndSplineSet
EndChar

StartChar: underscore
Encoding: 95 95 66
Width: 1002
GlyphClass: 2
Flags: W
LayerCount: 2
Fore
SplineSet
944 -221 m 1,0,-1
 910 -385 l 1,1,-1
 -126 -385 l 1,2,-1
 -142 -365 l 1,3,-1
 -108 -200 l 1,4,-1
 928 -200 l 1,5,-1
 944 -221 l 1,0,-1
EndSplineSet
EndChar

StartChar: grave
Encoding: 96 96 67
Width: 877
GlyphClass: 2
Flags: W
LayerCount: 2
Fore
SplineSet
378 1625 m 1,0,-1
 406 1627 l 1,1,2
 618 1435 618 1435 813 1284 c 1,3,-1
 741 1174 l 1,4,-1
 714 1172 l 1,5,6
 522 1283 522 1283 279 1440 c 1,7,-1
 273 1466 l 1,8,-1
 378 1625 l 1,0,-1
EndSplineSet
EndChar

StartChar: a
Encoding: 97 97 68
Width: 1038
GlyphClass: 2
Flags: W
AnchorPoint: "Anchor-1" 0 0 basechar 0
AnchorPoint: "Anchor-0" 574 1047 basechar 0
LayerCount: 2
Fore
SplineSet
965 1052 m 1,0,-1
 854 252 l 1,1,-1
 845 11 l 1,2,-1
 568 -9 l 1,3,-1
 617 346 l 1,4,-1
 588 346 l 1,5,6
 469 134 469 134 322 -20 c 1,7,-1
 282 -20 l 1,8,9
 197 11 197 11 145 63.5 c 128,-1,10
 93 116 93 116 71.5 184.5 c 128,-1,11
 50 253 50 253 50 346 c 0,12,13
 50 435 50 435 70 523.5 c 128,-1,14
 90 612 90 612 133 698 c 128,-1,15
 176 784 176 784 237.5 855.5 c 128,-1,16
 299 927 299 927 388 981.5 c 128,-1,17
 477 1036 477 1036 583 1062 c 1,18,-1
 597 1062 l 1,19,-1
 768 1014 l 1,20,-1
 939 1068 l 1,21,-1
 965 1052 l 1,0,-1
359 252 m 0,22,23
 400 252 400 252 488 386 c 128,-1,24
 576 520 576 520 675 759 c 1,25,-1
 680 798 l 1,26,-1
 680 802 l 1,27,-1
 534 849 l 1,28,29
 461 849 461 849 408 796.5 c 128,-1,30
 355 744 355 744 328 653 c 128,-1,31
 301 562 301 562 301 443 c 0,32,33
 301 374 301 374 309.5 329.5 c 128,-1,34
 318 285 318 285 330.5 268.5 c 128,-1,35
 343 252 343 252 359 252 c 0,22,23
EndSplineSet
Substitution2: "'ss02' Style Set 2 lookup 36 subtable" left
Substitution2: "'case' Case-Sensitive Forms lookup 28 subtable" A
Substitution2: "'ordn' Ordinals lookup 22 subtable" a.sups
Substitution2: "'sups' Superscript lookup 16 subtable" a.sups
AlternateSubs2: "'aalt' Access All Alternates lookup 1 subtable" a.sups A left
EndChar

StartChar: b
Encoding: 98 98 69
Width: 1042
GlyphClass: 2
Flags: W
LayerCount: 2
Fore
SplineSet
716 1062 m 1,0,-1
 757 1062 l 1,1,2
 878 1017 878 1017 933.5 926.5 c 128,-1,3
 989 836 989 836 989 694 c 0,4,5
 989 604 989 604 968.5 514.5 c 128,-1,6
 948 425 948 425 905 339.5 c 128,-1,7
 862 254 862 254 800.5 183 c 128,-1,8
 739 112 739 112 651.5 58.5 c 128,-1,9
 564 5 564 5 460 -20 c 1,10,-1
 447 -20 l 1,11,-1
 234 22 l 1,12,-1
 81 50 l 1,13,-1
 260 1331 l 1,14,-1
 264 1565 l 1,15,-1
 541 1586 l 1,16,-1
 417 692 l 1,17,-1
 447 692 l 1,18,19
 574 913 574 913 716 1062 c 1,0,-1
361 230 m 1,20,-1
 509 189 l 1,21,22
 581 189 581 189 633.5 243.5 c 128,-1,23
 686 298 686 298 712.5 389.5 c 128,-1,24
 739 481 739 481 739 597 c 0,25,26
 739 651 739 651 734.5 691 c 128,-1,27
 730 731 730 731 721.5 752.5 c 128,-1,28
 713 774 713 774 703.5 783.5 c 128,-1,29
 694 793 694 793 683 793 c 0,30,31
 642 793 642 793 553.5 663 c 128,-1,32
 465 533 465 533 365 304 c 1,33,-1
 361 230 l 1,20,-1
EndSplineSet
Substitution2: "'ss02' Style Set 2 lookup 36 subtable" up
Substitution2: "'case' Case-Sensitive Forms lookup 28 subtable" B
Substitution2: "'ordn' Ordinals lookup 22 subtable" b.sups
Substitution2: "'sups' Superscript lookup 16 subtable" b.sups
AlternateSubs2: "'aalt' Access All Alternates lookup 1 subtable" b.sups B up
EndChar

StartChar: c
Encoding: 99 99 70
Width: 794
GlyphClass: 2
Flags: W
AnchorPoint: "Anchor-1" 412 0 basechar 0
AnchorPoint: "Anchor-0" 535 1047 basechar 0
LayerCount: 2
Fore
SplineSet
795 1012 m 1,0,-1
 808 980 l 1,1,-1
 730 770 l 1,2,-1
 671 766 l 1,3,4
 630 814 630 814 599.5 832.5 c 128,-1,5
 569 851 569 851 529 851 c 0,6,7
 426 851 426 851 371 743 c 128,-1,8
 316 635 316 635 316 434 c 0,9,10
 316 316 316 316 340.5 266.5 c 128,-1,11
 365 217 365 217 421 217 c 0,12,13
 450 217 450 217 476.5 230 c 128,-1,14
 503 243 503 243 537 282 c 128,-1,15
 571 321 571 321 608 387 c 1,16,-1
 645 385 l 1,17,-1
 733 273 l 1,18,19
 661 150 661 150 582.5 84 c 128,-1,20
 504 18 504 18 392 -18 c 1,21,-1
 354 -18 l 1,22,23
 192 8 192 8 122 99.5 c 128,-1,24
 52 191 52 191 52 381 c 0,25,26
 52 491 52 491 73 591 c 128,-1,27
 94 691 94 691 139.5 778 c 128,-1,28
 185 865 185 865 251.5 928 c 128,-1,29
 318 991 318 991 414 1027.5 c 128,-1,30
 510 1064 510 1064 626 1064 c 1,31,-1
 795 1012 l 1,0,-1
EndSplineSet
Substitution2: "Single Substitution lookup 41 subtable" C.ss01
Substitution2: "'ss02' Style Set 2 lookup 36 subtable" right
Substitution2: "'ss01' Style Set 1 lookup 35 subtable" C.ss01
Substitution2: "'case' Case-Sensitive Forms lookup 28 subtable" C
Substitution2: "'ordn' Ordinals lookup 22 subtable" c.sups
Substitution2: "'sups' Superscript lookup 16 subtable" c.sups
AlternateSubs2: "'aalt' Access All Alternates lookup 1 subtable" c.sups C C.ss01 right
EndChar

StartChar: d
Encoding: 100 100 71
Width: 1038
GlyphClass: 2
Flags: W
AnchorPoint: "Anchor-1" 770 0 basechar 0
AnchorPoint: "Anchor-0" 772 1047 basechar 0
LayerCount: 2
Fore
SplineSet
1038 1586 m 1,0,-1
 854 252 l 1,1,-1
 845 11 l 1,2,-1
 568 -9 l 1,3,-1
 617 349 l 1,4,-1
 593 349 l 1,5,6
 474 142 474 142 322 -20 c 1,7,-1
 279 -20 l 1,8,9
 155 26 155 26 101 116 c 128,-1,10
 47 206 47 206 47 346 c 0,11,12
 47 435 47 435 67.5 523.5 c 128,-1,13
 88 612 88 612 132 698 c 128,-1,14
 176 784 176 784 238 855.5 c 128,-1,15
 300 927 300 927 390.5 982 c 128,-1,16
 481 1037 481 1037 588 1062 c 1,17,-1
 600 1062 l 1,18,-1
 712 1030 l 1,19,-1
 755 1331 l 1,20,-1
 761 1565 l 1,21,-1
 1038 1586 l 1,0,-1
356 252 m 0,22,23
 375 252 375 252 406.5 283 c 128,-1,24
 438 314 438 314 479 372.5 c 128,-1,25
 520 431 520 431 571 528 c 128,-1,26
 622 625 622 625 673 744 c 1,27,-1
 680 804 l 1,28,-1
 536 851 l 1,29,30
 480 851 480 851 435 820.5 c 128,-1,31
 390 790 390 790 360 735.5 c 128,-1,32
 330 681 330 681 313.5 606 c 128,-1,33
 297 531 297 531 297 441 c 0,34,35
 297 372 297 372 306 328 c 128,-1,36
 315 284 315 284 327.5 268 c 128,-1,37
 340 252 340 252 356 252 c 0,22,23
EndSplineSet
Substitution2: "Single Substitution lookup 41 subtable" D.ss01
Substitution2: "'ss02' Style Set 2 lookup 36 subtable" down
Substitution2: "'ss01' Style Set 1 lookup 35 subtable" D.ss01
Substitution2: "'case' Case-Sensitive Forms lookup 28 subtable" D
Substitution2: "'ordn' Ordinals lookup 22 subtable" d.sups
Substitution2: "'sups' Superscript lookup 16 subtable" d.sups
AlternateSubs2: "'aalt' Access All Alternates lookup 1 subtable" d.sups D D.ss01 down
EndChar

StartChar: e
Encoding: 101 101 72
Width: 905
GlyphClass: 2
Flags: W
AnchorPoint: "Anchor-1" 423 0 basechar 0
AnchorPoint: "Anchor-0" 535 1047 basechar 0
LayerCount: 2
Fore
SplineSet
723 376 m 1,0,-1
 813 256 l 1,1,2
 650 40 650 40 430 -20 c 1,3,-1
 398 -20 l 1,4,5
 220 -1 220 -1 137 98.5 c 128,-1,6
 54 198 54 198 54 376 c 0,7,8
 54 573 54 573 121.5 727 c 128,-1,9
 189 881 189 881 316 971 c 128,-1,10
 443 1061 443 1061 610 1068 c 1,11,-1
 638 1066 l 1,12,13
 746 1046 746 1046 805.5 986.5 c 128,-1,14
 865 927 865 927 865 825 c 0,15,16
 865 691 865 691 735 586.5 c 128,-1,17
 605 482 605 482 316 394 c 1,18,19
 322 290 322 290 353.5 245 c 128,-1,20
 385 200 385 200 447 200 c 0,21,22
 513 200 513 200 576.5 248.5 c 128,-1,23
 640 297 640 297 688 381 c 1,24,-1
 723 376 l 1,0,-1
538 883 m 0,25,26
 450 883 450 883 392.5 801 c 128,-1,27
 335 719 335 719 320 570 c 1,28,29
 473 614 473 614 547.5 671.5 c 128,-1,30
 622 729 622 729 622 806 c 0,31,32
 622 845 622 845 601.5 864 c 128,-1,33
 581 883 581 883 538 883 c 0,25,26
EndSplineSet
Substitution2: "'ss02' Style Set 2 lookup 36 subtable" square1
Substitution2: "'case' Case-Sensitive Forms lookup 28 subtable" E
Substitution2: "'ordn' Ordinals lookup 22 subtable" e.sups
Substitution2: "'sups' Superscript lookup 16 subtable" e.sups
AlternateSubs2: "'aalt' Access All Alternates lookup 1 subtable" e.sups E square1
EndChar

StartChar: f
Encoding: 102 102 73
Width: 686
GlyphClass: 2
Flags: W
LayerCount: 2
Fore
SplineSet
1030 1530 m 1,0,-1
 955 1339 l 1,1,-1
 920 1327 l 1,2,3
 818 1386 818 1386 733 1386 c 0,4,5
 686 1386 686 1386 650 1363 c 128,-1,6
 614 1340 614 1340 589.5 1293 c 128,-1,7
 565 1246 565 1246 557 1178 c 1,8,-1
 536 1025 l 1,9,-1
 763 1025 l 1,10,-1
 784 1002 l 1,11,-1
 761 858 l 1,12,-1
 512 858 l 1,13,-1
 458 460 l 1,14,-1
 392 -4 l 1,15,-1
 385 -248 l 1,16,-1
 108 -268 l 1,17,-1
 202 428 l 1,18,-1
 260 858 l 1,19,-1
 108 858 l 1,20,-1
 95 877 l 1,21,-1
 114 1025 l 1,22,-1
 279 1025 l 1,23,-1
 290 1111 l 1,24,25
 349 1584 349 1584 786 1584 c 1,26,-1
 1019 1552 l 1,27,-1
 1030 1530 l 1,0,-1
EndSplineSet
Substitution2: "Single Substitution lookup 41 subtable" f.t
Substitution2: "Single Substitution lookup 40 subtable" f.l
Substitution2: "Single Substitution lookup 39 subtable" f.f
Substitution2: "'ss02' Style Set 2 lookup 36 subtable" square2
Substitution2: "'case' Case-Sensitive Forms lookup 28 subtable" F
Substitution2: "'ordn' Ordinals lookup 22 subtable" f.sups
Substitution2: "'sups' Superscript lookup 16 subtable" f.sups
AlternateSubs2: "'aalt' Access All Alternates lookup 1 subtable" f.sups F square2
EndChar

StartChar: g
Encoding: 103 103 74
Width: 1036
GlyphClass: 2
Flags: W
AnchorPoint: "Anchor-1" 0 0 basechar 0
AnchorPoint: "Anchor-0" 597 1045 basechar 0
LayerCount: 2
Fore
SplineSet
965 1052 m 1,0,-1
 854 268 l 1,1,-1
 840 97 l 1,2,3
 823 -30 823 -30 771.5 -133 c 128,-1,4
 720 -236 720 -236 645 -303.5 c 128,-1,5
 570 -371 570 -371 476.5 -407 c 128,-1,6
 383 -443 383 -443 279 -443 c 0,7,8
 108 -443 108 -443 5.5 -351 c 128,-1,9
 -97 -259 -97 -259 -122 -99 c 1,10,-1
 -112 -77 l 1,11,-1
 194 84 l 1,12,-1
 196 106 l 1,13,14
 157 137 157 137 132.5 179 c 128,-1,15
 108 221 108 221 97 272 c 128,-1,16
 86 323 86 323 86 387 c 0,17,18
 86 477 86 477 106 563.5 c 128,-1,19
 126 650 126 650 168 730 c 128,-1,20
 210 810 210 810 269.5 875.5 c 128,-1,21
 329 941 329 941 412.5 989.5 c 128,-1,22
 496 1038 496 1038 595 1062 c 1,23,-1
 606 1062 l 1,24,-1
 778 1012 l 1,25,-1
 939 1068 l 1,26,-1
 965 1052 l 1,0,-1
692 813 m 1,27,-1
 550 860 l 1,28,29
 442 860 442 860 383 756.5 c 128,-1,30
 324 653 324 653 324 482 c 0,31,32
 324 440 324 440 328 406.5 c 128,-1,33
 332 373 332 373 338 351.5 c 128,-1,34
 344 330 344 330 351.5 315 c 128,-1,35
 359 300 359 300 366.5 294 c 128,-1,36
 374 288 374 288 381 288 c 0,37,38
 418 288 418 288 503.5 413.5 c 128,-1,39
 589 539 589 539 685 755 c 1,40,-1
 692 804 l 1,41,-1
 692 813 l 1,27,-1
333 -245 m 0,42,43
 432 -245 432 -245 499.5 -177.5 c 128,-1,44
 567 -110 567 -110 583 20 c 1,45,-1
 632 385 l 1,46,-1
 606 385 l 1,47,48
 489 175 489 175 338 47 c 1,49,-1
 191 -65 l 2,50,51
 165 -86 165 -86 165 -114 c 0,52,53
 165 -166 165 -166 210.5 -205.5 c 128,-1,54
 256 -245 256 -245 333 -245 c 0,42,43
EndSplineSet
Substitution2: "'ss02' Style Set 2 lookup 36 subtable" circle1
Substitution2: "'case' Case-Sensitive Forms lookup 28 subtable" G
Substitution2: "'ordn' Ordinals lookup 22 subtable" g.sups
Substitution2: "'sups' Superscript lookup 16 subtable" g.sups
AlternateSubs2: "'aalt' Access All Alternates lookup 1 subtable" g.sups G circle1
EndChar

StartChar: h
Encoding: 104 104 75
Width: 1114
GlyphClass: 2
Flags: W
AnchorPoint: "Anchor-1" 0 0 basechar 0
AnchorPoint: "Anchor-0" 391 1577 basechar 0
LayerCount: 2
Fore
SplineSet
766 1054 m 1,0,-1
 793 1057 l 1,1,2
 900 1036 900 1036 964.5 978.5 c 128,-1,3
 1029 921 1029 921 1027 838 c 1,4,-1
 1025 808 l 1,5,-1
 935 254 l 1,6,-1
 924 11 l 1,7,-1
 642 -9 l 1,8,-1
 752 685 l 1,9,-1
 755 710 l 1,10,11
 755 728 755 728 751.5 739.5 c 128,-1,12
 748 751 748 751 739.5 757 c 128,-1,13
 731 763 731 763 716 763 c 0,14,15
 662 763 662 763 569.5 644 c 128,-1,16
 477 525 477 525 363 297 c 1,17,-1
 356 252 l 1,18,-1
 349 11 l 1,19,-1
 69 -9 l 1,20,-1
 260 1331 l 1,21,-1
 264 1565 l 1,22,-1
 541 1586 l 1,23,-1
 410 649 l 1,24,-1
 439 649 l 1,25,26
 526 789 526 789 603.5 885 c 128,-1,27
 681 981 681 981 766 1054 c 1,0,-1
EndSplineSet
Substitution2: "'ss02' Style Set 2 lookup 36 subtable" circle2
Substitution2: "'case' Case-Sensitive Forms lookup 28 subtable" H
Substitution2: "'ordn' Ordinals lookup 22 subtable" h.sups
Substitution2: "'sups' Superscript lookup 16 subtable" h.sups
AlternateSubs2: "'aalt' Access All Alternates lookup 1 subtable" h.sups H circle2
EndChar

StartChar: i
Encoding: 105 105 76
Width: 531
GlyphClass: 2
Flags: W
AnchorPoint: "Anchor-1" 0 0 basechar 0
AnchorPoint: "Anchor-0" 326 1045 basechar 0
LayerCount: 2
Fore
SplineSet
376 1561 m 0,0,1
 445 1561 445 1561 483.5 1521 c 128,-1,2
 522 1481 522 1481 522 1410 c 0,3,4
 522 1361 522 1361 503 1324.5 c 128,-1,5
 484 1288 484 1288 448.5 1268 c 128,-1,6
 413 1248 413 1248 365 1248 c 0,7,8
 295 1248 295 1248 256 1288 c 128,-1,9
 217 1328 217 1328 217 1399 c 0,10,11
 217 1448 217 1448 236 1484.5 c 128,-1,12
 255 1521 255 1521 291 1541 c 128,-1,13
 327 1561 327 1561 376 1561 c 0,0,1
354 252 m 1,14,-1
 344 11 l 1,15,-1
 67 -9 l 1,16,-1
 180 802 l 1,17,-1
 189 1036 l 1,18,-1
 462 1057 l 1,19,-1
 354 252 l 1,14,-1
EndSplineSet
Substitution2: "Single Substitution lookup 41 subtable" I.ss01
Substitution2: "'ss01' Style Set 1 lookup 35 subtable" I.ss01
Substitution2: "'case' Case-Sensitive Forms lookup 28 subtable" I
Substitution2: "'ordn' Ordinals lookup 22 subtable" i.sups
Substitution2: "'sups' Superscript lookup 16 subtable" i.sups
Substitution2: "'locl' Localized Forms in Latin lookup 9 subtable" idotaccent
Substitution2: "'locl' Localized Forms in Latin lookup 8 subtable" idotaccent
Substitution2: "'locl' Localized Forms in Latin lookup 7 subtable" idotaccent
Substitution2: "'locl' Localized Forms in Latin lookup 6 subtable" idotaccent
Substitution2: "'locl' Localized Forms in Latin lookup 5 subtable" idotaccent
AlternateSubs2: "'aalt' Access All Alternates lookup 1 subtable" idotaccent i.sups I I.ss01
EndChar

StartChar: j
Encoding: 106 106 77
Width: 578
GlyphClass: 2
Flags: W
AnchorPoint: "Anchor-1" 0 0 basechar 0
AnchorPoint: "Anchor-0" 344 1045 basechar 0
LayerCount: 2
Fore
SplineSet
394 1561 m 0,0,1
 440 1561 440 1561 473 1543 c 128,-1,2
 506 1525 506 1525 523.5 1491 c 128,-1,3
 541 1457 541 1457 541 1410 c 0,4,5
 541 1336 541 1336 498 1292 c 128,-1,6
 455 1248 455 1248 383 1248 c 0,7,8
 312 1248 312 1248 273 1288 c 128,-1,9
 234 1328 234 1328 234 1399 c 0,10,11
 234 1448 234 1448 253.5 1484.5 c 128,-1,12
 273 1521 273 1521 309 1541 c 128,-1,13
 345 1561 345 1561 394 1561 c 0,0,1
505 1045 m 1,14,-1
 392 256 l 1,15,-1
 372 56 l 1,16,17
 350 -123 350 -123 260 -236 c 128,-1,18
 170 -349 170 -349 -18 -437 c 1,19,-1
 -106 -314 l 1,20,-1
 -103 -286 l 1,21,22
 -1 -225 -1 -225 49.5 -150.5 c 128,-1,23
 100 -76 100 -76 114 43 c 1,24,-1
 219 795 l 1,25,-1
 221 858 l 1,26,-1
 63 858 l 1,27,-1
 50 877 l 1,28,-1
 73 1025 l 1,29,-1
 230 1025 l 1,30,-1
 496 1054 l 1,31,-1
 505 1045 l 1,14,-1
EndSplineSet
Substitution2: "'case' Case-Sensitive Forms lookup 28 subtable" J
Substitution2: "'ordn' Ordinals lookup 22 subtable" j.sups
Substitution2: "'sups' Superscript lookup 16 subtable" j.sups
AlternateSubs2: "'aalt' Access All Alternates lookup 1 subtable" j.sups J
EndChar

StartChar: k
Encoding: 107 107 78
Width: 1120
GlyphClass: 2
Flags: W
AnchorPoint: "Anchor-1" 543 0 basechar 0
AnchorPoint: "Anchor-0" 272 1045 basechar 0
LayerCount: 2
Fore
SplineSet
1066 804 m 0,0,1
 1066 594 1066 594 782 408 c 1,2,3
 886 208 886 208 1002 30 c 1,4,-1
 989 7 l 1,5,-1
 757 -28 l 1,6,-1
 730 -13 l 1,7,8
 609 219 609 219 538 392 c 1,9,-1
 548 432 l 1,10,11
 663 504 663 504 726 576 c 128,-1,12
 789 648 789 648 789 712 c 0,13,14
 789 766 789 766 748 766 c 0,15,16
 685 766 685 766 584.5 646.5 c 128,-1,17
 484 527 484 527 361 284 c 1,18,-1
 356 252 l 1,19,-1
 349 11 l 1,20,-1
 73 -9 l 1,21,-1
 260 1331 l 1,22,-1
 264 1565 l 1,23,-1
 543 1586 l 1,24,-1
 412 656 l 1,25,-1
 443 656 l 1,26,27
 540 794 540 794 624.5 891 c 128,-1,28
 709 988 709 988 798 1054 c 1,29,-1
 827 1057 l 1,30,31
 1066 1006 1066 1006 1066 804 c 0,0,1
EndSplineSet
Substitution2: "'case' Case-Sensitive Forms lookup 28 subtable" K
Substitution2: "'ordn' Ordinals lookup 22 subtable" k.sups
Substitution2: "'sups' Superscript lookup 16 subtable" k.sups
AlternateSubs2: "'aalt' Access All Alternates lookup 1 subtable" k.sups K
EndChar

StartChar: l
Encoding: 108 108 79
Width: 540
GlyphClass: 2
Flags: W
AnchorPoint: "Anchor-1" 209 0 basechar 0
AnchorPoint: "Anchor-0" 396 1577 basechar 0
LayerCount: 2
Fore
SplineSet
356 252 m 1,0,-1
 349 11 l 1,1,-1
 73 -9 l 1,2,-1
 260 1331 l 1,3,-1
 264 1565 l 1,4,-1
 541 1586 l 1,5,-1
 356 252 l 1,0,-1
EndSplineSet
Substitution2: "Single Substitution lookup 41 subtable" L.ss01
Substitution2: "'ss01' Style Set 1 lookup 35 subtable" L.ss01
Substitution2: "'case' Case-Sensitive Forms lookup 28 subtable" L
Substitution2: "'ordn' Ordinals lookup 22 subtable" l.sups
Substitution2: "'sups' Superscript lookup 16 subtable" l.sups
AlternateSubs2: "'aalt' Access All Alternates lookup 1 subtable" l.sups L L.ss01
EndChar

StartChar: m
Encoding: 109 109 80
Width: 1696
GlyphClass: 2
Flags: W
AnchorPoint: "Anchor-1" 0 0 basechar 0
AnchorPoint: "Anchor-0" 326 1045 basechar 0
LayerCount: 2
Fore
SplineSet
1345 1054 m 1,0,-1
 1372 1057 l 1,1,2
 1478 1036 1478 1036 1541.5 979 c 128,-1,3
 1605 922 1605 922 1604 838 c 1,4,-1
 1602 808 l 1,5,-1
 1514 254 l 1,6,-1
 1503 11 l 1,7,-1
 1221 -9 l 1,8,-1
 1331 685 l 1,9,-1
 1333 710 l 1,10,11
 1333 737 1333 737 1324.5 750 c 128,-1,12
 1316 763 1316 763 1296 763 c 0,13,14
 1241 763 1241 763 1146 641.5 c 128,-1,15
 1051 520 1051 520 935 286 c 1,16,-1
 931 254 l 1,17,-1
 922 11 l 1,18,-1
 638 -9 l 1,19,-1
 748 685 l 1,20,-1
 750 710 l 1,21,22
 750 738 750 738 741.5 750.5 c 128,-1,23
 733 763 733 763 712 763 c 0,24,25
 659 763 659 763 568 647.5 c 128,-1,26
 477 532 477 532 363 309 c 1,27,-1
 356 252 l 1,28,-1
 346 11 l 1,29,-1
 67 -9 l 1,30,-1
 183 802 l 1,31,-1
 191 1036 l 1,32,-1
 464 1057 l 1,33,-1
 410 649 l 1,34,-1
 437 649 l 1,35,36
 521 787 521 787 599.5 883.5 c 128,-1,37
 678 980 678 980 763 1054 c 1,38,-1
 791 1057 l 1,39,40
 898 1036 898 1036 961.5 979 c 128,-1,41
 1025 922 1025 922 1023 838 c 1,42,-1
 1021 808 l 1,43,-1
 993 649 l 1,44,-1
 1019 649 l 1,45,46
 1106 789 1106 789 1183.5 885 c 128,-1,47
 1261 981 1261 981 1345 1054 c 1,0,-1
EndSplineSet
Substitution2: "Single Substitution lookup 41 subtable" M.ss01
Substitution2: "'ss01' Style Set 1 lookup 35 subtable" M.ss01
Substitution2: "'case' Case-Sensitive Forms lookup 28 subtable" M
Substitution2: "'ordn' Ordinals lookup 22 subtable" m.sups
Substitution2: "'sups' Superscript lookup 16 subtable" m.sups
AlternateSubs2: "'aalt' Access All Alternates lookup 1 subtable" m.sups M M.ss01
EndChar

StartChar: n
Encoding: 110 110 81
Width: 1109
GlyphClass: 2
Flags: W
AnchorPoint: "Anchor-1" 496 0 basechar 0
AnchorPoint: "Anchor-0" 623 1045 basechar 0
LayerCount: 2
Fore
SplineSet
761 1054 m 1,0,-1
 789 1057 l 1,1,2
 891 1035 891 1035 958 977.5 c 128,-1,3
 1025 920 1025 920 1023 838 c 1,4,-1
 1021 808 l 1,5,-1
 931 254 l 1,6,-1
 920 11 l 1,7,-1
 636 -9 l 1,8,-1
 748 685 l 1,9,-1
 750 710 l 1,10,11
 750 738 750 738 741.5 750.5 c 128,-1,12
 733 763 733 763 712 763 c 0,13,14
 659 763 659 763 568 647.5 c 128,-1,15
 477 532 477 532 363 309 c 1,16,-1
 356 252 l 1,17,-1
 346 11 l 1,18,-1
 67 -9 l 1,19,-1
 183 802 l 1,20,-1
 191 1036 l 1,21,-1
 464 1057 l 1,22,-1
 410 649 l 1,23,-1
 434 649 l 1,24,25
 522 789 522 789 599.5 885 c 128,-1,26
 677 981 677 981 761 1054 c 1,0,-1
EndSplineSet
Substitution2: "'case' Case-Sensitive Forms lookup 28 subtable" N
Substitution2: "'ordn' Ordinals lookup 22 subtable" n.sups
Substitution2: "'sups' Superscript lookup 16 subtable" n.sups
AlternateSubs2: "'aalt' Access All Alternates lookup 1 subtable" n.sups N
EndChar

StartChar: o
Encoding: 111 111 82
Width: 981
GlyphClass: 2
Flags: W
AnchorPoint: "Anchor-1" 0 0 basechar 0
AnchorPoint: "Anchor-0" 572 1045 basechar 0
LayerCount: 2
Fore
SplineSet
613 1068 m 1,0,-1
 640 1066 l 1,1,2
 928 1008 928 1008 928 694 c 0,3,4
 928 484 928 484 862 326.5 c 128,-1,5
 796 169 796 169 671 80 c 128,-1,6
 546 -9 546 -9 374 -22 c 1,7,-1
 346 -20 l 1,8,9
 203 12 203 12 129.5 106.5 c 128,-1,10
 56 201 56 201 56 372 c 0,11,12
 56 572 56 572 123.5 726.5 c 128,-1,13
 191 881 191 881 317 969.5 c 128,-1,14
 443 1058 443 1058 613 1068 c 1,0,-1
559 851 m 0,15,16
 494 851 494 851 447.5 820 c 128,-1,17
 401 789 401 789 372.5 726 c 128,-1,18
 344 663 344 663 331 575 c 128,-1,19
 318 487 318 487 318 367 c 0,20,21
 318 268 318 268 341.5 227.5 c 128,-1,22
 365 187 365 187 424 187 c 0,23,24
 550 187 550 187 606 310 c 128,-1,25
 662 433 662 433 662 675 c 0,26,27
 662 772 662 772 639 811.5 c 128,-1,28
 616 851 616 851 559 851 c 0,15,16
EndSplineSet
Substitution2: "'case' Case-Sensitive Forms lookup 28 subtable" O
Substitution2: "'ordn' Ordinals lookup 22 subtable" o.sups
Substitution2: "'sups' Superscript lookup 16 subtable" o.sups
AlternateSubs2: "'aalt' Access All Alternates lookup 1 subtable" o.sups O
EndChar

StartChar: p
Encoding: 112 112 83
Width: 1038
GlyphClass: 2
Flags: W
LayerCount: 2
Fore
SplineSet
718 1062 m 1,0,-1
 759 1062 l 1,1,2
 880 1017 880 1017 935.5 926.5 c 128,-1,3
 991 836 991 836 991 694 c 0,4,5
 991 604 991 604 970.5 514.5 c 128,-1,6
 950 425 950 425 906.5 339.5 c 128,-1,7
 863 254 863 254 801 183 c 128,-1,8
 739 112 739 112 651.5 58.5 c 128,-1,9
 564 5 564 5 460 -20 c 1,10,-1
 449 -20 l 1,11,-1
 322 4 l 1,12,-1
 299 -169 l 1,13,-1
 290 -417 l 1,14,-1
 11 -437 l 1,15,-1
 185 802 l 1,16,-1
 194 1036 l 1,17,-1
 466 1057 l 1,18,-1
 417 692 l 1,19,-1
 449 692 l 1,20,21
 572 912 572 912 718 1062 c 1,0,-1
354 230 m 1,22,-1
 512 189 l 1,23,24
 564 189 564 189 607.5 220.5 c 128,-1,25
 651 252 651 252 679.5 307 c 128,-1,26
 708 362 708 362 723.5 436.5 c 128,-1,27
 739 511 739 511 739 597 c 0,28,29
 739 793 739 793 683 793 c 0,30,31
 642 793 642 793 551 657 c 128,-1,32
 460 521 460 521 361 284 c 1,33,-1
 354 230 l 1,22,-1
EndSplineSet
Substitution2: "'case' Case-Sensitive Forms lookup 28 subtable" P
Substitution2: "'ordn' Ordinals lookup 22 subtable" p.sups
Substitution2: "'sups' Superscript lookup 16 subtable" p.sups
AlternateSubs2: "'aalt' Access All Alternates lookup 1 subtable" p.sups P
EndChar

StartChar: q
Encoding: 113 113 84
Width: 1038
GlyphClass: 2
Flags: W
LayerCount: 2
Fore
SplineSet
965 1052 m 1,0,-1
 798 -174 l 1,1,-1
 789 -417 l 1,2,-1
 509 -437 l 1,3,-1
 619 349 l 1,4,-1
 588 349 l 1,5,6
 469 136 469 136 320 -20 c 1,7,-1
 279 -20 l 1,8,9
 155 26 155 26 101 116 c 128,-1,10
 47 206 47 206 47 346 c 0,11,12
 47 435 47 435 67.5 523.5 c 128,-1,13
 88 612 88 612 131 698 c 128,-1,14
 174 784 174 784 236 855.5 c 128,-1,15
 298 927 298 927 387.5 982 c 128,-1,16
 477 1037 477 1037 583 1062 c 1,17,-1
 597 1062 l 1,18,-1
 770 1014 l 1,19,-1
 942 1068 l 1,20,-1
 965 1052 l 1,0,-1
354 252 m 0,21,22
 396 252 396 252 486.5 386.5 c 128,-1,23
 577 521 577 521 678 759 c 1,24,-1
 683 798 l 1,25,-1
 683 802 l 1,26,-1
 536 851 l 1,27,28
 479 851 479 851 434 820.5 c 128,-1,29
 389 790 389 790 359 735.5 c 128,-1,30
 329 681 329 681 313 606 c 128,-1,31
 297 531 297 531 297 441 c 0,32,33
 297 373 297 373 306 328.5 c 128,-1,34
 315 284 315 284 327 268 c 128,-1,35
 339 252 339 252 354 252 c 0,21,22
EndSplineSet
Substitution2: "'case' Case-Sensitive Forms lookup 28 subtable" Q
Substitution2: "'ordn' Ordinals lookup 22 subtable" q.sups
Substitution2: "'sups' Superscript lookup 16 subtable" q.sups
AlternateSubs2: "'aalt' Access All Alternates lookup 1 subtable" q.sups Q
EndChar

StartChar: r
Encoding: 114 114 85
Width: 796
GlyphClass: 2
Flags: W
AnchorPoint: "Anchor-1" 238 0 basechar 0
AnchorPoint: "Anchor-0" 526 1045 basechar 0
LayerCount: 2
Fore
SplineSet
838 1047 m 1,0,-1
 789 696 l 1,1,-1
 766 685 l 1,2,-1
 720 692 l 1,3,4
 655 684 655 684 604 651.5 c 128,-1,5
 553 619 553 619 494.5 540 c 128,-1,6
 436 461 436 461 367 322 c 1,7,-1
 359 252 l 1,8,-1
 349 11 l 1,9,-1
 73 -9 l 1,10,-1
 185 802 l 1,11,-1
 194 1036 l 1,12,-1
 469 1057 l 1,13,-1
 415 664 l 1,14,-1
 441 664 l 1,15,16
 511 787 511 787 590 881 c 128,-1,17
 669 975 669 975 778 1054 c 1,18,-1
 838 1047 l 1,0,-1
EndSplineSet
Substitution2: "'case' Case-Sensitive Forms lookup 28 subtable" R
Substitution2: "'ordn' Ordinals lookup 22 subtable" r.sups
Substitution2: "'sups' Superscript lookup 16 subtable" r.sups
AlternateSubs2: "'aalt' Access All Alternates lookup 1 subtable" r.sups R
EndChar

StartChar: s
Encoding: 115 115 86
Width: 778
GlyphClass: 2
Flags: W
AnchorPoint: "Anchor-1" 342 0 basechar 0
AnchorPoint: "Anchor-0" 475 1045 basechar 0
LayerCount: 2
Fore
SplineSet
541 1064 m 1,0,1
 654 1045 654 1045 768 1004 c 1,2,-1
 698 776 l 1,3,-1
 660 761 l 1,4,5
 610 817 610 817 554.5 847 c 128,-1,6
 499 877 499 877 453 877 c 0,7,8
 422 877 422 877 396 862 c 128,-1,9
 370 847 370 847 356 823 c 128,-1,10
 342 799 342 799 342 772 c 256,11,12
 342 745 342 745 361.5 719.5 c 128,-1,13
 381 694 381 694 411.5 673 c 128,-1,14
 442 652 442 652 479.5 629 c 128,-1,15
 517 606 517 606 554.5 578 c 128,-1,16
 592 550 592 550 622.5 517.5 c 128,-1,17
 653 485 653 485 672.5 438 c 128,-1,18
 692 391 692 391 692 336 c 0,19,20
 692 234 692 234 634 152.5 c 128,-1,21
 576 71 576 71 474 25.5 c 128,-1,22
 372 -20 372 -20 245 -20 c 1,23,24
 99 -2 99 -2 -20 50 c 1,25,-1
 47 290 l 1,26,-1
 81 304 l 1,27,28
 134 235 134 235 200.5 197.5 c 128,-1,29
 267 160 267 160 327 160 c 0,30,31
 380 160 380 160 411.5 192 c 128,-1,32
 443 224 443 224 443 266 c 0,33,34
 443 295 443 295 423.5 321.5 c 128,-1,35
 404 348 404 348 373 370.5 c 128,-1,36
 342 393 342 393 304 416.5 c 128,-1,37
 266 440 266 440 228 468.5 c 128,-1,38
 190 497 190 497 159 529 c 128,-1,39
 128 561 128 561 109 606.5 c 128,-1,40
 90 652 90 652 90 705 c 0,41,42
 91 811 91 811 154 894.5 c 128,-1,43
 217 978 217 978 319 1021.5 c 128,-1,44
 421 1065 421 1065 541 1064 c 1,0,1
EndSplineSet
Substitution2: "'case' Case-Sensitive Forms lookup 28 subtable" S
Substitution2: "'ordn' Ordinals lookup 22 subtable" s.sups
Substitution2: "'sups' Superscript lookup 16 subtable" s.sups
AlternateSubs2: "'aalt' Access All Alternates lookup 1 subtable" s.sups S
EndChar

StartChar: t
Encoding: 116 116 87
Width: 770
GlyphClass: 2
Flags: W
AnchorPoint: "Anchor-1" 414 0 basechar 0
AnchorPoint: "Anchor-0" 0 0 basechar 0
LayerCount: 2
Fore
SplineSet
417 320 m 1,0,-1
 412 288 l 1,1,2
 412 241 412 241 458 241 c 0,3,4
 518 241 518 241 602 363 c 1,5,-1
 640 361 l 1,6,-1
 718 260 l 1,7,8
 588 83 588 83 439 -13 c 1,9,-1
 406 -13 l 1,10,11
 279 2 279 2 216 54 c 128,-1,12
 153 106 153 106 153 209 c 1,13,-1
 155 256 l 1,14,-1
 243 806 l 1,15,-1
 248 858 l 1,16,-1
 106 858 l 1,17,-1
 90 877 l 1,18,-1
 108 1025 l 1,19,-1
 266 1025 l 1,20,-1
 288 1253 l 1,21,-1
 552 1335 l 1,22,-1
 574 1320 l 1,23,-1
 527 1025 l 1,24,-1
 778 1025 l 1,25,-1
 798 1002 l 1,26,-1
 780 858 l 1,27,-1
 503 858 l 1,28,-1
 417 320 l 1,0,-1
EndSplineSet
Substitution2: "'case' Case-Sensitive Forms lookup 28 subtable" T
Substitution2: "'ordn' Ordinals lookup 22 subtable" t.sups
Substitution2: "'sups' Superscript lookup 16 subtable" t.sups
AlternateSubs2: "'aalt' Access All Alternates lookup 1 subtable" t.sups T
EndChar

StartChar: u
Encoding: 117 117 88
Width: 1103
GlyphClass: 2
Flags: W
AnchorPoint: "Anchor-1" 0 0 basechar 0
AnchorPoint: "Anchor-0" 617 1045 basechar 0
LayerCount: 2
Fore
SplineSet
1030 1057 m 1,0,-1
 917 252 l 1,1,-1
 910 11 l 1,2,-1
 632 -9 l 1,3,-1
 690 389 l 1,4,-1
 667 389 l 1,5,6
 579 250 579 250 504 156.5 c 128,-1,7
 429 63 429 63 346 -7 c 1,8,-1
 320 -7 l 1,9,10
 214 10 214 10 149 66.5 c 128,-1,11
 84 123 84 123 86 207 c 1,12,-1
 88 243 l 1,13,-1
 176 793 l 1,14,-1
 189 1038 l 1,15,-1
 466 1057 l 1,16,-1
 361 376 l 1,17,-1
 356 336 l 1,18,19
 356 282 356 282 396 282 c 0,20,21
 448 282 448 282 535.5 395 c 128,-1,22
 623 508 623 508 735 728 c 1,23,-1
 746 802 l 1,24,-1
 755 1036 l 1,25,-1
 1030 1057 l 1,0,-1
EndSplineSet
Substitution2: "'case' Case-Sensitive Forms lookup 28 subtable" U
Substitution2: "'ordn' Ordinals lookup 22 subtable" u.sups
Substitution2: "'sups' Superscript lookup 16 subtable" u.sups
AlternateSubs2: "'aalt' Access All Alternates lookup 1 subtable" u.sups U
EndChar

StartChar: v
Encoding: 118 118 89
Width: 981
GlyphClass: 2
Flags: W
LayerCount: 2
Fore
SplineSet
680 1019 m 1,0,-1
 935 1062 l 1,1,2
 976 975 976 975 976 881 c 0,3,4
 976 747 976 747 874 565 c 2,5,-1
 554 0 l 1,6,-1
 243 0 l 1,7,-1
 122 1038 l 1,8,-1
 396 1057 l 1,9,-1
 398 865 l 1,10,-1
 439 288 l 1,11,-1
 462 288 l 1,12,-1
 647 638 l 1,13,14
 712 758 712 758 712 847 c 0,15,16
 712 916 712 916 669 987 c 1,17,-1
 680 1019 l 1,0,-1
EndSplineSet
Substitution2: "Single Substitution lookup 41 subtable" V.ss01
Substitution2: "'ss01' Style Set 1 lookup 35 subtable" V.ss01
Substitution2: "'case' Case-Sensitive Forms lookup 28 subtable" V
Substitution2: "'ordn' Ordinals lookup 22 subtable" v.sups
Substitution2: "'sups' Superscript lookup 16 subtable" v.sups
AlternateSubs2: "'aalt' Access All Alternates lookup 1 subtable" v.sups V V.ss01
EndChar

StartChar: w
Encoding: 119 119 90
Width: 1597
GlyphClass: 2
Flags: W
AnchorPoint: "Anchor-1" 0 0 basechar 0
AnchorPoint: "Anchor-0" 864 1045 basechar 0
LayerCount: 2
Fore
SplineSet
1194 0 m 1,0,-1
 894 0 l 1,1,-1
 840 675 l 1,2,-1
 815 675 l 1,3,-1
 543 0 l 1,4,-1
 241 0 l 1,5,-1
 122 1038 l 1,6,-1
 392 1057 l 1,7,-1
 394 892 l 1,8,-1
 432 311 l 1,9,-1
 458 311 l 1,10,-1
 690 874 l 1,11,-1
 746 1047 l 1,12,-1
 1036 1047 l 1,13,-1
 1041 892 l 1,14,-1
 1084 311 l 1,15,-1
 1104 311 l 1,16,-1
 1266 638 l 2,17,18
 1331 768 1331 768 1331 847 c 0,19,20
 1331 916 1331 916 1288 987 c 1,21,-1
 1300 1019 l 1,22,-1
 1554 1062 l 1,23,24
 1595 975 1595 975 1595 881 c 0,25,26
 1595 756 1595 756 1496 565 c 1,27,-1
 1194 0 l 1,0,-1
EndSplineSet
Substitution2: "'case' Case-Sensitive Forms lookup 28 subtable" W
Substitution2: "'ordn' Ordinals lookup 22 subtable" w.sups
Substitution2: "'sups' Superscript lookup 16 subtable" w.sups
AlternateSubs2: "'aalt' Access All Alternates lookup 1 subtable" w.sups W
EndChar

StartChar: x
Encoding: 120 120 91
Width: 1053
GlyphClass: 2
Flags: W
LayerCount: 2
Fore
SplineSet
939 9 m 1,0,-1
 632 -15 l 1,1,-1
 600 117 l 1,2,-1
 496 361 l 1,3,-1
 324 120 l 1,4,-1
 268 0 l 1,5,-1
 -34 0 l 1,6,-1
 344 541 l 1,7,-1
 129 1036 l 1,8,-1
 424 1064 l 1,9,-1
 455 957 l 1,10,-1
 559 718 l 1,11,-1
 720 946 l 1,12,-1
 772 1047 l 1,13,-1
 1064 1047 l 1,14,-1
 694 522 l 1,15,-1
 939 9 l 1,0,-1
EndSplineSet
Substitution2: "Single Substitution lookup 41 subtable" X.ss01
Substitution2: "'ss01' Style Set 1 lookup 35 subtable" X.ss01
Substitution2: "'case' Case-Sensitive Forms lookup 28 subtable" X
Substitution2: "'ordn' Ordinals lookup 22 subtable" x.sups
Substitution2: "'sups' Superscript lookup 16 subtable" x.sups
AlternateSubs2: "'aalt' Access All Alternates lookup 1 subtable" x.sups X X.ss01
EndChar

StartChar: y
Encoding: 121 121 92
Width: 995
GlyphClass: 2
Flags: W
AnchorPoint: "Anchor-1" 0 0 basechar 0
AnchorPoint: "Anchor-0" 522 1045 basechar 0
LayerCount: 2
Fore
SplineSet
692 1019 m 1,0,-1
 946 1062 l 1,1,2
 989 977 989 977 989 881 c 0,3,4
 989 737 989 737 881 534 c 1,5,-1
 649 108 l 1,6,7
 539 -97 539 -97 440 -217.5 c 128,-1,8
 341 -338 341 -338 244.5 -389.5 c 128,-1,9
 148 -441 148 -441 34 -441 c 0,10,11
 -78 -441 -78 -441 -169 -404 c 1,12,-1
 -183 -176 l 1,13,-1
 -157 -151 l 1,14,15
 -53 -183 -53 -183 25 -183 c 0,16,17
 105 -183 105 -183 182.5 -147 c 128,-1,18
 260 -111 260 -111 324 -41 c 1,19,-1
 99 1038 l 1,20,-1
 374 1057 l 1,21,-1
 394 865 l 1,22,-1
 480 301 l 1,23,-1
 516 301 l 1,24,-1
 653 595 l 1,25,26
 723 748 723 748 723 843 c 0,27,28
 723 922 723 922 680 987 c 1,29,-1
 692 1019 l 1,0,-1
EndSplineSet
Substitution2: "'case' Case-Sensitive Forms lookup 28 subtable" Y
Substitution2: "'ordn' Ordinals lookup 22 subtable" y.sups
Substitution2: "'sups' Superscript lookup 16 subtable" y.sups
AlternateSubs2: "'aalt' Access All Alternates lookup 1 subtable" y.sups Y
EndChar

StartChar: z
Encoding: 122 122 93
Width: 957
GlyphClass: 2
Flags: W
AnchorPoint: "Anchor-1" 0 0 basechar 0
AnchorPoint: "Anchor-0" 545 1045 basechar 0
LayerCount: 2
Fore
SplineSet
928 1006 m 1,0,-1
 340 245 l 1,1,-1
 404 262 l 1,2,3
 422 262 422 262 481.5 247 c 128,-1,4
 541 232 541 232 561 232 c 0,5,6
 616 232 616 232 648 250.5 c 128,-1,7
 680 269 680 269 699 316 c 128,-1,8
 718 363 718 363 725 449 c 1,9,-1
 761 462 l 1,10,-1
 881 419 l 1,11,12
 869 -22 869 -22 561 -22 c 0,13,14
 516 -22 516 -22 464 -10.5 c 128,-1,15
 412 1 412 1 373 15 c 128,-1,16
 334 29 334 29 288.5 40.5 c 128,-1,17
 243 52 243 52 209 52 c 0,18,19
 170 52 170 52 139.5 37.5 c 128,-1,20
 109 23 109 23 69 -15 c 1,21,-1
 38 -15 l 1,22,-1
 -45 60 l 1,23,-1
 534 817 l 1,24,-1
 299 813 l 1,25,-1
 131 789 l 1,26,-1
 108 806 l 1,27,-1
 160 1049 l 1,28,-1
 185 1068 l 1,29,-1
 372 1054 l 1,30,-1
 776 1045 l 1,31,-1
 847 1086 l 1,32,-1
 928 1006 l 1,0,-1
EndSplineSet
Substitution2: "'case' Case-Sensitive Forms lookup 28 subtable" Z
Substitution2: "'ordn' Ordinals lookup 22 subtable" z.sups
Substitution2: "'sups' Superscript lookup 16 subtable" z.sups
AlternateSubs2: "'aalt' Access All Alternates lookup 1 subtable" z.sups Z
EndChar

StartChar: braceleft
Encoding: 123 123 94
Width: 664
GlyphClass: 2
Flags: W
LayerCount: 2
Fore
SplineSet
602 1481 m 0,0,1
 656 1481 656 1481 741 1460 c 1,2,-1
 750 1438 l 1,3,-1
 707 1288 l 1,4,5
 657 1300 657 1300 630 1300 c 0,6,7
 486 1300 486 1300 486 1118 c 0,8,9
 486 1081 486 1081 495.5 998 c 128,-1,10
 505 915 505 915 505 881 c 0,11,12
 505 787 505 787 458 718 c 128,-1,13
 411 649 411 649 320 610 c 1,14,-1
 318 600 l 1,15,16
 381 568 381 568 414 515 c 128,-1,17
 447 462 447 462 447 396 c 0,18,19
 447 347 447 347 422.5 277.5 c 128,-1,20
 398 208 398 208 373.5 139 c 128,-1,21
 349 70 349 70 349 22 c 0,22,23
 349 -92 349 -92 460 -92 c 0,24,25
 488 -92 488 -92 541 -81 c 1,26,-1
 548 -230 l 1,27,-1
 531 -250 l 1,28,29
 453 -271 453 -271 385 -271 c 0,30,31
 252 -271 252 -271 182 -212 c 128,-1,32
 112 -153 112 -153 112 -43 c 0,33,34
 112 8 112 8 127 71.5 c 128,-1,35
 142 135 142 135 160.5 184 c 128,-1,36
 179 233 179 233 194 288 c 128,-1,37
 209 343 209 343 209 378 c 0,38,39
 209 498 209 498 73 536 c 1,40,-1
 88 671 l 1,41,42
 182 695 182 695 226.5 749.5 c 128,-1,43
 271 804 271 804 271 899 c 0,44,45
 271 929 271 929 265.5 1013.5 c 128,-1,46
 260 1098 260 1098 260 1140 c 0,47,48
 260 1309 260 1309 347 1395 c 128,-1,49
 434 1481 434 1481 602 1481 c 0,0,1
EndSplineSet
EndChar

StartChar: bar
Encoding: 124 124 95
Width: 693
GlyphClass: 2
Flags: W
LayerCount: 2
Fore
SplineSet
617 1789 m 1,0,-1
 471 653 l 1,1,-1
 322 -570 l 1,2,-1
 120 -585 l 1,3,-1
 101 -559 l 1,4,-1
 248 632 l 1,5,-1
 392 1791 l 1,6,-1
 600 1810 l 1,7,-1
 617 1789 l 1,0,-1
EndSplineSet
EndChar

StartChar: braceright
Encoding: 125 125 96
Width: 664
GlyphClass: 2
Flags: W
LayerCount: 2
Fore
SplineSet
84 -271 m 0,0,1
 15 -271 15 -271 -56 -250 c 1,2,-1
 -65 -230 l 1,3,-1
 -22 -79 l 1,4,5
 24 -90 24 -90 56 -90 c 0,6,7
 198 -90 198 -90 198 92 c 0,8,9
 198 127 198 127 189 210.5 c 128,-1,10
 180 294 180 294 180 329 c 0,11,12
 180 392 180 392 201.5 444 c 128,-1,13
 223 496 223 496 264 535 c 128,-1,14
 305 574 305 574 365 600 c 1,15,-1
 367 610 l 1,16,17
 304 641 304 641 271.5 693.5 c 128,-1,18
 239 746 239 746 239 813 c 0,19,20
 239 851 239 851 254 903.5 c 128,-1,21
 269 956 269 956 287 999.5 c 128,-1,22
 305 1043 305 1043 320.5 1095 c 128,-1,23
 336 1147 336 1147 336 1185 c 0,24,25
 336 1302 336 1302 226 1302 c 0,26,27
 197 1302 197 1302 144 1291 c 1,28,-1
 138 1438 l 1,29,-1
 153 1460 l 1,30,31
 231 1481 231 1481 299 1481 c 0,32,33
 433 1481 433 1481 502.5 1421.5 c 128,-1,34
 572 1362 572 1362 572 1253 c 0,35,36
 572 1202 572 1202 557 1138.5 c 128,-1,37
 542 1075 542 1075 523.5 1025.5 c 128,-1,38
 505 976 505 976 490 921 c 128,-1,39
 475 866 475 866 475 832 c 0,40,41
 475 711 475 711 613 673 c 1,42,-1
 597 536 l 1,43,44
 503 511 503 511 459 458 c 128,-1,45
 415 405 415 405 415 311 c 0,46,47
 415 280 415 280 420.5 195 c 128,-1,48
 426 110 426 110 426 67 c 0,49,50
 426 -102 426 -102 338.5 -186.5 c 128,-1,51
 251 -271 251 -271 84 -271 c 0,0,1
EndSplineSet
EndChar

StartChar: asciitilde
Encoding: 126 126 97
Width: 1081
GlyphClass: 2
Flags: W
LayerCount: 2
Fore
SplineSet
338 536 m 0,0,1
 326 536 326 536 312.5 530.5 c 128,-1,2
 299 525 299 525 287.5 518 c 128,-1,3
 276 511 276 511 258.5 496.5 c 128,-1,4
 241 482 241 482 229.5 472 c 128,-1,5
 218 462 218 462 196 441.5 c 128,-1,6
 174 421 174 421 162 410 c 1,7,-1
 135 410 l 1,8,-1
 67 507 l 1,9,-1
 73 534 l 1,10,-1
 282 739 l 1,11,-1
 311 752 l 1,12,13
 363 743 363 743 542 687.5 c 128,-1,14
 721 632 721 632 761 632 c 0,15,16
 775 632 775 632 789 637.5 c 128,-1,17
 803 643 803 643 823.5 658 c 128,-1,18
 844 673 844 673 856 683 c 128,-1,19
 868 693 868 693 897.5 719.5 c 128,-1,20
 927 746 927 746 939 757 c 1,21,-1
 967 757 l 1,22,-1
 1030 662 l 1,23,-1
 1027 636 l 1,24,-1
 820 428 l 1,25,-1
 789 419 l 1,26,27
 730 427 730 427 553 481.5 c 128,-1,28
 376 536 376 536 338 536 c 0,0,1
EndSplineSet
EndChar

StartChar: exclamdown
Encoding: 161 161 99
Width: 614
GlyphClass: 2
Flags: W
LayerCount: 2
Fore
SplineSet
351 757 m 0,0,1
 282 757 282 757 243.5 796.5 c 128,-1,2
 205 836 205 836 205 905 c 0,3,4
 205 981 205 981 247.5 1025.5 c 128,-1,5
 290 1070 290 1070 363 1070 c 0,6,7
 434 1070 434 1070 473 1030.5 c 128,-1,8
 512 991 512 991 512 920 c 0,9,10
 512 870 512 870 492.5 833.5 c 128,-1,11
 473 797 473 797 436.5 777 c 128,-1,12
 400 757 400 757 351 757 c 0,0,1
28 -410 m 1,13,-1
 221 522 l 1,14,-1
 389 546 l 1,15,-1
 417 516 l 1,16,-1
 320 -396 l 1,17,-1
 290 -430 l 1,18,-1
 56 -443 l 1,19,-1
 28 -410 l 1,13,-1
EndSplineSet
EndChar

StartChar: cent
Encoding: 162 162 100
Width: 873
GlyphClass: 2
Flags: W
LayerCount: 2
Fore
SplineSet
574 961 m 0,0,1
 442 961 442 961 369.5 847 c 128,-1,2
 297 733 297 733 297 525 c 0,3,4
 297 395 297 395 330 338.5 c 128,-1,5
 363 282 363 282 432 282 c 0,6,7
 549 282 549 282 656 462 c 1,8,-1
 690 460 l 1,9,-1
 770 359 l 1,10,11
 708 258 708 258 642.5 197.5 c 128,-1,12
 577 137 577 137 494 101 c 1,13,-1
 432 -277 l 1,14,-1
 288 -277 l 1,15,-1
 273 -252 l 1,16,-1
 322 86 l 1,17,18
 188 117 188 117 126.5 208.5 c 128,-1,19
 65 300 65 300 65 480 c 0,20,21
 65 598 65 598 90.5 702 c 128,-1,22
 116 806 116 806 166.5 892.5 c 128,-1,23
 217 979 217 979 299 1040.5 c 128,-1,24
 381 1102 381 1102 488 1129 c 1,25,-1
 541 1475 l 1,26,-1
 683 1475 l 1,27,-1
 707 1453 l 1,28,-1
 660 1148 l 1,29,-1
 834 1099 l 1,30,-1
 847 1070 l 1,31,-1
 780 888 l 1,32,-1
 728 883 l 1,33,34
 685 926 685 926 649.5 943.5 c 128,-1,35
 614 961 614 961 574 961 c 0,0,1
EndSplineSet
EndChar

StartChar: sterling
Encoding: 163 163 101
Width: 1006
GlyphClass: 2
Flags: W
LayerCount: 2
Fore
SplineSet
768 1341 m 0,0,1
 876 1341 876 1341 1021 1305 c 1,2,-1
 982 1094 l 1,3,-1
 961 1081 l 1,4,5
 832 1154 832 1154 728 1154 c 0,6,7
 552 1154 552 1154 529 976 c 2,8,-1
 503 772 l 1,9,-1
 789 772 l 1,10,-1
 798 757 l 1,11,-1
 766 615 l 1,12,-1
 482 615 l 1,13,-1
 455 417 l 1,14,15
 447 341 447 341 420.5 292 c 128,-1,16
 394 243 394 243 342 205 c 1,17,-1
 342 198 l 1,18,-1
 669 198 l 1,19,-1
 894 214 l 1,20,-1
 903 198 l 1,21,-1
 858 -7 l 1,22,-1
 581 0 l 1,23,-1
 -4 0 l 1,24,-1
 -13 15 l 1,25,-1
 15 174 l 1,26,27
 104 195 104 195 151 248.5 c 128,-1,28
 198 302 198 302 209 398 c 2,29,-1
 234 615 l 1,30,-1
 73 615 l 1,31,-1
 65 630 l 1,32,-1
 95 772 l 1,33,-1
 254 772 l 1,34,-1
 273 933 l 1,35,36
 295 1130 295 1130 423.5 1235.5 c 128,-1,37
 552 1341 552 1341 768 1341 c 0,0,1
EndSplineSet
EndChar

StartChar: currency
Encoding: 164 164 102
Width: 979
GlyphClass: 2
Flags: W
LayerCount: 2
Fore
SplineSet
1021 1129 m 1,0,-1
 1016 1101 l 1,1,-1
 845 961 l 1,2,3
 874 904 874 904 874 823 c 0,4,5
 874 715 874 715 806 626 c 1,6,-1
 948 491 l 1,7,-1
 948 464 l 1,8,-1
 806 331 l 1,9,-1
 780 333 l 1,10,-1
 660 486 l 1,11,12
 575 434 575 434 477 434 c 0,13,14
 386 434 386 434 318 482 c 1,15,-1
 167 327 l 1,16,-1
 140 324 l 1,17,-1
 20 451 l 1,18,-1
 28 477 l 1,19,-1
 196 615 l 1,20,21
 165 675 165 675 165 755 c 0,22,23
 165 857 165 857 234 955 c 1,24,-1
 97 1088 l 1,25,-1
 97 1115 l 1,26,-1
 239 1248 l 1,27,-1
 264 1246 l 1,28,-1
 385 1090 l 1,29,30
 469 1140 469 1140 563 1140 c 0,31,32
 653 1140 653 1140 718 1094 c 1,33,-1
 874 1253 l 1,34,-1
 903 1255 l 1,35,-1
 1021 1129 l 1,0,-1
546 982 m 0,36,37
 452 982 452 982 388 920 c 128,-1,38
 324 858 324 858 324 766 c 0,39,40
 324 714 324 714 345.5 675 c 128,-1,41
 367 636 367 636 406 614.5 c 128,-1,42
 445 593 445 593 496 593 c 0,43,44
 591 593 591 593 654.5 654.5 c 128,-1,45
 718 716 718 716 718 811 c 0,46,47
 718 861 718 861 696.5 900 c 128,-1,48
 675 939 675 939 636 960.5 c 128,-1,49
 597 982 597 982 546 982 c 0,36,37
EndSplineSet
EndChar

StartChar: yen
Encoding: 165 165 103
Width: 1240
GlyphClass: 2
Flags: W
LayerCount: 2
Fore
SplineSet
1169 694 m 1,0,-1
 1180 680 l 1,1,-1
 1156 559 l 1,2,-1
 834 559 l 1,3,-1
 714 385 l 1,4,-1
 1129 385 l 1,5,-1
 1142 372 l 1,6,-1
 1120 252 l 1,7,-1
 685 252 l 1,8,-1
 662 0 l 1,9,-1
 415 0 l 1,10,-1
 455 252 l 1,11,-1
 65 252 l 1,12,-1
 54 266 l 1,13,-1
 77 385 l 1,14,-1
 466 385 l 1,15,-1
 396 559 l 1,16,-1
 101 559 l 1,17,-1
 92 574 l 1,18,-1
 114 694 l 1,19,-1
 342 694 l 1,20,-1
 167 1133 l 1,21,-1
 430 1133 l 1,22,-1
 449 1054 l 1,23,-1
 615 630 l 1,24,-1
 632 630 l 1,25,-1
 928 1045 l 1,26,-1
 976 1133 l 1,27,-1
 1232 1133 l 1,28,-1
 928 694 l 1,29,-1
 1169 694 l 1,0,-1
EndSplineSet
EndChar

StartChar: brokenbar
Encoding: 166 166 104
Width: 693
GlyphClass: 2
Flags: W
LayerCount: 2
Fore
SplineSet
617 1789 m 1,0,-1
 496 849 l 1,1,-1
 293 825 l 1,2,-1
 275 843 l 1,3,-1
 389 1791 l 1,4,-1
 600 1810 l 1,5,-1
 617 1789 l 1,0,-1
432 336 m 1,6,-1
 322 -570 l 1,7,-1
 122 -585 l 1,8,-1
 101 -559 l 1,9,-1
 212 338 l 1,10,-1
 412 361 l 1,11,-1
 432 336 l 1,6,-1
EndSplineSet
EndChar

StartChar: section
Encoding: 167 167 105
Width: 991
GlyphClass: 2
Flags: W
LayerCount: 2
Fore
SplineSet
486 1167 m 0,0,1
 486 1137 486 1137 511 1108 c 128,-1,2
 536 1079 536 1079 575.5 1053.5 c 128,-1,3
 615 1028 615 1028 663.5 1000.5 c 128,-1,4
 712 973 712 973 760 939.5 c 128,-1,5
 808 906 808 906 847.5 868.5 c 128,-1,6
 887 831 887 831 912 779 c 128,-1,7
 937 727 937 727 937 667 c 0,8,9
 937 564 937 564 868.5 474 c 128,-1,10
 800 384 800 384 685 333 c 1,11,12
 784 238 784 238 784 129 c 0,13,14
 784 34 784 34 724.5 -47 c 128,-1,15
 665 -128 665 -128 559.5 -175.5 c 128,-1,16
 454 -223 454 -223 329 -223 c 0,17,18
 253 -223 253 -223 160.5 -204 c 128,-1,19
 68 -185 68 -185 -2 -155 c 1,20,-1
 58 67 l 1,21,-1
 86 86 l 1,22,23
 150 25 150 25 228 -10 c 128,-1,24
 306 -45 306 -45 374 -45 c 0,25,26
 447 -45 447 -45 494 -7 c 128,-1,27
 541 31 541 31 541 75 c 0,28,29
 541 99 541 99 525.5 122.5 c 128,-1,30
 510 146 510 146 483.5 166 c 128,-1,31
 457 186 457 186 423 206.5 c 128,-1,32
 389 227 389 227 351.5 249 c 128,-1,33
 314 271 314 271 276 295 c 128,-1,34
 238 319 238 319 204 348 c 128,-1,35
 170 377 170 377 143.5 409.5 c 128,-1,36
 117 442 117 442 101.5 484.5 c 128,-1,37
 86 527 86 527 86 574 c 0,38,39
 86 679 86 679 154.5 770 c 128,-1,40
 223 861 223 861 338 914 c 1,41,42
 241 1007 241 1007 241 1115 c 0,43,44
 241 1210 241 1210 300.5 1290.5 c 128,-1,45
 360 1371 360 1371 465 1418.5 c 128,-1,46
 570 1466 570 1466 694 1466 c 0,47,48
 761 1466 761 1466 835.5 1452.5 c 128,-1,49
 910 1439 910 1439 969 1415 c 1,50,-1
 910 1201 l 1,51,-1
 874 1189 l 1,52,53
 812 1235 812 1235 750.5 1258.5 c 128,-1,54
 689 1282 689 1282 638 1282 c 0,55,56
 573 1282 573 1282 529.5 1246 c 128,-1,57
 486 1210 486 1210 486 1167 c 0,0,1
548 432 m 1,58,59
 692 495 692 495 692 595 c 0,60,61
 692 617 692 617 685 637 c 128,-1,62
 678 657 678 657 662.5 676.5 c 128,-1,63
 647 696 647 696 632.5 710 c 128,-1,64
 618 724 618 724 590 743 c 128,-1,65
 562 762 562 762 545 773 c 128,-1,66
 528 784 528 784 494 804 c 0,67,68
 491 806 491 806 489 807 c 128,-1,69
 487 808 487 808 484.5 810 c 128,-1,70
 482 812 482 812 480 813 c 1,71,72
 408 780 408 780 370.5 736.5 c 128,-1,73
 333 693 333 693 333 647 c 0,74,75
 333 574 333 574 436 502 c 0,76,77
 467 480 467 480 548 432 c 1,58,59
EndSplineSet
EndChar

StartChar: dieresis
Encoding: 168 168 106
Width: 877
GlyphClass: 2
Flags: W
LayerCount: 2
Fore
SplineSet
356 1532 m 0,0,1
 417 1532 417 1532 451.5 1496 c 128,-1,2
 486 1460 486 1460 486 1397 c 0,3,4
 486 1328 486 1328 448 1288 c 128,-1,5
 410 1248 410 1248 344 1248 c 0,6,7
 279 1248 279 1248 244 1284 c 128,-1,8
 209 1320 209 1320 209 1386 c 0,9,10
 209 1431 209 1431 227 1464 c 128,-1,11
 245 1497 245 1497 278.5 1514.5 c 128,-1,12
 312 1532 312 1532 356 1532 c 0,0,1
748 1530 m 0,13,14
 789 1530 789 1530 819 1513.5 c 128,-1,15
 849 1497 849 1497 864 1467 c 128,-1,16
 879 1437 879 1437 879 1395 c 0,17,18
 879 1327 879 1327 841 1286.5 c 128,-1,19
 803 1246 803 1246 737 1246 c 0,20,21
 673 1246 673 1246 638.5 1281.5 c 128,-1,22
 604 1317 604 1317 604 1383 c 0,23,24
 604 1451 604 1451 642.5 1490.5 c 128,-1,25
 681 1530 681 1530 748 1530 c 0,13,14
EndSplineSet
EndChar

StartChar: copyright
Encoding: 169 169 107
Width: 1560
GlyphClass: 2
Flags: W
LayerCount: 2
Fore
SplineSet
795 1348 m 0,0,1
 946 1348 946 1348 1072 1298 c 128,-1,2
 1198 1248 1198 1248 1285.5 1158.5 c 128,-1,3
 1373 1069 1373 1069 1422 941 c 128,-1,4
 1471 813 1471 813 1471 660 c 128,-1,5
 1471 507 1471 507 1422 379 c 128,-1,6
 1373 251 1373 251 1285.5 161.5 c 128,-1,7
 1198 72 1198 72 1072 22 c 128,-1,8
 946 -28 946 -28 795 -28 c 0,9,10
 646 -28 646 -28 520.5 22 c 128,-1,11
 395 72 395 72 307 161.5 c 128,-1,12
 219 251 219 251 170.5 379 c 128,-1,13
 122 507 122 507 122 660 c 128,-1,14
 122 813 122 813 170.5 941 c 128,-1,15
 219 1069 219 1069 307 1158.5 c 128,-1,16
 395 1248 395 1248 520.5 1298 c 128,-1,17
 646 1348 646 1348 795 1348 c 0,0,1
795 1243 m 0,18,19
 627 1243 627 1243 497.5 1171 c 128,-1,20
 368 1099 368 1099 297 966 c 128,-1,21
 226 833 226 833 226 660 c 128,-1,22
 226 487 226 487 297 354 c 128,-1,23
 368 221 368 221 497.5 149 c 128,-1,24
 627 77 627 77 795 77 c 0,25,26
 965 77 965 77 1095 149 c 128,-1,27
 1225 221 1225 221 1296 353.5 c 128,-1,28
 1367 486 1367 486 1367 660 c 0,29,30
 1367 790 1367 790 1325.5 899 c 128,-1,31
 1284 1008 1284 1008 1209.5 1083.5 c 128,-1,32
 1135 1159 1135 1159 1028.5 1201 c 128,-1,33
 922 1243 922 1243 795 1243 c 0,18,19
845 1047 m 0,34,35
 942 1047 942 1047 1045 1010 c 1,36,-1
 1010 854 l 1,37,-1
 998 847 l 1,38,39
 965 865 965 865 921 875.5 c 128,-1,40
 877 886 877 886 838 886 c 0,41,42
 793 886 793 886 760 874 c 128,-1,43
 727 862 727 862 705 837 c 128,-1,44
 683 812 683 812 672.5 773 c 128,-1,45
 662 734 662 734 662 680 c 0,46,47
 662 563 662 563 707 506 c 128,-1,48
 752 449 752 449 845 449 c 0,49,50
 935 449 935 449 1012 480 c 1,51,-1
 1030 473 l 1,52,-1
 1014 318 l 1,53,54
 926 286 926 286 832 286 c 0,55,56
 646 286 646 286 552 382 c 128,-1,57
 458 478 458 478 458 660 c 0,58,59
 458 844 458 844 559 945.5 c 128,-1,60
 660 1047 660 1047 845 1047 c 0,34,35
EndSplineSet
EndChar

StartChar: ordfeminine
Encoding: 170 170 108
Width: 727
GlyphClass: 2
Flags: W
AnchorPoint: "Anchor-1" 0 0 basechar 0
AnchorPoint: "Anchor-0" 610 1049 basechar 0
LayerCount: 2
Fore
SplineSet
750 1453 m 1,0,-1
 678 910 l 1,1,-1
 667 746 l 1,2,-1
 477 733 l 1,3,-1
 512 993 l 1,4,-1
 491 993 l 1,5,6
 400 819 400 819 309 728 c 1,7,-1
 282 728 l 1,8,9
 187 759 187 759 150.5 816 c 128,-1,10
 114 873 114 873 114 969 c 0,11,12
 114 1049 114 1049 136.5 1125 c 128,-1,13
 159 1201 159 1201 202.5 1267.5 c 128,-1,14
 246 1334 246 1334 316 1383.5 c 128,-1,15
 386 1433 386 1433 475 1455 c 1,16,-1
 486 1455 l 1,17,-1
 613 1438 l 1,18,-1
 735 1464 l 1,19,-1
 750 1453 l 1,0,-1
336 901 m 0,20,21
 358 901 358 901 415.5 987 c 128,-1,22
 473 1073 473 1073 541 1221 c 1,23,-1
 548 1277 l 1,24,-1
 550 1298 l 1,25,-1
 449 1318 l 1,26,27
 376 1316 376 1316 334.5 1239.5 c 128,-1,28
 293 1163 293 1163 293 1043 c 0,29,30
 293 1006 293 1006 296.5 977.5 c 128,-1,31
 300 949 300 949 306.5 933 c 128,-1,32
 313 917 313 917 320.5 909 c 128,-1,33
 328 901 328 901 336 901 c 0,20,21
EndSplineSet
EndChar

StartChar: guillemetleft
Encoding: 171 171 109
Width: 963
GlyphClass: 2
Flags: W
LayerCount: 2
Fore
SplineSet
75 496 m 1,0,-1
 81 543 l 1,1,-1
 434 933 l 1,2,-1
 563 858 l 1,3,-1
 565 829 l 1,4,-1
 290 512 l 1,5,-1
 488 194 l 1,6,-1
 480 167 l 1,7,-1
 333 92 l 1,8,-1
 75 496 l 1,0,-1
486 496 m 1,9,-1
 494 543 l 1,10,-1
 847 933 l 1,11,-1
 976 858 l 1,12,-1
 978 829 l 1,13,-1
 703 512 l 1,14,-1
 901 194 l 1,15,-1
 892 167 l 1,16,-1
 746 92 l 1,17,-1
 486 496 l 1,9,-1
EndSplineSet
EndChar

StartChar: logicalnot
Encoding: 172 172 110
Width: 1081
GlyphClass: 2
Flags: W
LayerCount: 2
Fore
SplineSet
989 669 m 1,0,-1
 922 114 l 1,1,-1
 744 99 l 1,2,-1
 723 120 l 1,3,-1
 768 488 l 1,4,-1
 67 488 l 1,5,-1
 50 509 l 1,6,-1
 88 688 l 1,7,-1
 978 688 l 1,8,-1
 989 669 l 1,0,-1
EndSplineSet
EndChar

StartChar: softhyphen
Encoding: 173 173 111
Width: 684
GlyphClass: 2
Flags: W
LayerCount: 2
Fore
SplineSet
642 694 m 1,0,-1
 622 512 l 1,1,-1
 75 430 l 1,2,-1
 54 453 l 1,3,-1
 77 636 l 1,4,-1
 622 714 l 1,5,-1
 642 694 l 1,0,-1
EndSplineSet
EndChar

StartChar: registered
Encoding: 174 174 112
Width: 1002
GlyphClass: 2
Flags: W
LayerCount: 2
Fore
SplineSet
502.5 1582 m 128,-1,1
 691 1582 691 1582 806.5 1467 c 128,-1,2
 922 1352 922 1352 922 1165 c 0,3,4
 922 976 922 976 806.5 860 c 128,-1,5
 691 744 691 744 503 744 c 0,6,7
 378 744 378 744 283 796.5 c 128,-1,8
 188 849 188 849 136 944.5 c 128,-1,9
 84 1040 84 1040 84 1165 c 0,10,11
 84 1352 84 1352 199 1467 c 128,-1,0
 314 1582 314 1582 502.5 1582 c 128,-1,1
503 817 m 0,12,13
 579 817 579 817 643.5 842.5 c 128,-1,14
 708 868 708 868 752.5 913.5 c 128,-1,15
 797 959 797 959 822 1023.5 c 128,-1,16
 847 1088 847 1088 847 1165 c 0,17,18
 847 1320 847 1320 752.5 1413.5 c 128,-1,19
 658 1507 658 1507 503 1507 c 256,20,21
 348 1507 348 1507 252.5 1413 c 128,-1,22
 157 1319 157 1319 157 1165 c 0,23,24
 157 1063 157 1063 200.5 983.5 c 128,-1,25
 244 904 244 904 322.5 860.5 c 128,-1,26
 401 817 401 817 503 817 c 0,12,13
685 1264 m 0,27,28
 685 1224 685 1224 663 1189.5 c 128,-1,29
 641 1155 641 1155 602 1131 c 1,30,31
 653 1057 653 1057 714 982 c 1,32,-1
 712 971 l 1,33,34
 675 959 675 959 606 950 c 1,35,-1
 593 959 l 1,36,37
 556 1018 556 1018 512 1101 c 1,38,-1
 441 1101 l 1,39,-1
 441 1099 l 1,40,-1
 449 959 l 1,41,-1
 340 959 l 1,42,-1
 344 1088 l 1,43,-1
 340 1397 l 1,44,-1
 529 1399 l 2,45,46
 604 1399 604 1399 644.5 1364 c 128,-1,47
 685 1329 685 1329 685 1264 c 0,27,28
443 1185 m 1,48,-1
 516 1180 l 1,49,50
 545 1192 545 1192 558.5 1209.5 c 128,-1,51
 572 1227 572 1227 572 1255 c 0,52,53
 572 1287 572 1287 553.5 1301.5 c 128,-1,54
 535 1316 535 1316 494 1318 c 1,55,-1
 449 1316 l 1,56,-1
 443 1185 l 1,48,-1
EndSplineSet
EndChar

StartChar: macron
Encoding: 175 175 113
Width: 877
GlyphClass: 2
Flags: W
LayerCount: 2
Fore
SplineSet
879 1464 m 1,0,-1
 862 1300 l 1,1,-1
 232 1300 l 1,2,-1
 212 1320 l 1,3,-1
 228 1485 l 1,4,-1
 858 1485 l 1,5,-1
 879 1464 l 1,0,-1
EndSplineSet
EndChar

StartChar: degree
Encoding: 176 176 114
Width: 660
GlyphClass: 2
Flags: W
LayerCount: 2
Fore
SplineSet
447 1468 m 0,0,1
 559 1468 559 1468 632 1394.5 c 128,-1,2
 705 1321 705 1321 705 1210 c 0,3,4
 705 1123 705 1123 659.5 1048.5 c 128,-1,5
 614 974 614 974 538 931 c 128,-1,6
 462 888 462 888 376 888 c 0,7,8
 264 888 264 888 189 963 c 128,-1,9
 114 1038 114 1038 114 1148 c 0,10,11
 114 1234 114 1234 160.5 1308.5 c 128,-1,12
 207 1383 207 1383 283.5 1425.5 c 128,-1,13
 360 1468 360 1468 447 1468 c 0,0,1
430 1343 m 0,14,15
 354 1343 354 1343 298.5 1290.5 c 128,-1,16
 243 1238 243 1238 243 1163 c 0,17,18
 243 1100 243 1100 284 1058 c 128,-1,19
 325 1016 325 1016 389 1016 c 0,20,21
 439 1016 439 1016 482 1039.5 c 128,-1,22
 525 1063 525 1063 550.5 1104.5 c 128,-1,23
 576 1146 576 1146 576 1196 c 0,24,25
 576 1259 576 1259 535 1301 c 128,-1,26
 494 1343 494 1343 430 1343 c 0,14,15
EndSplineSet
EndChar

StartChar: plusminus
Encoding: 177 177 115
Width: 1075
GlyphClass: 2
Flags: W
LayerCount: 2
Fore
SplineSet
703 1054 m 1,0,-1
 658 688 l 1,1,-1
 1023 688 l 1,2,-1
 1043 667 l 1,3,-1
 1004 488 l 1,4,-1
 632 488 l 1,5,-1
 588 114 l 1,6,-1
 408 99 l 1,7,-1
 389 120 l 1,8,-1
 434 488 l 1,9,-1
 65 488 l 1,10,-1
 50 509 l 1,11,-1
 86 688 l 1,12,-1
 458 688 l 1,13,-1
 505 1062 l 1,14,-1
 685 1075 l 1,15,-1
 703 1054 l 1,0,-1
944 -81 m 1,16,-1
 928 -260 l 1,17,-1
 -11 -260 l 1,18,-1
 -32 -239 l 1,19,-1
 -15 -60 l 1,20,-1
 924 -60 l 1,21,-1
 944 -81 l 1,16,-1
EndSplineSet
EndChar

StartChar: twosuperior
Encoding: 178 178 116
Width: 810
GlyphClass: 2
Flags: W
LayerCount: 2
Fore
SplineSet
498 1588 m 0,0,1
 608 1588 608 1588 681.5 1536 c 128,-1,2
 755 1484 755 1484 755 1395 c 0,3,4
 755 1327 755 1327 702.5 1248.5 c 128,-1,5
 650 1170 650 1170 525 1038 c 1,6,-1
 385 892 l 1,7,-1
 389 886 l 1,8,-1
 606 886 l 1,9,-1
 759 896 l 1,10,-1
 768 881 l 1,11,-1
 723 703 l 1,12,-1
 514 712 l 1,13,-1
 138 712 l 1,14,-1
 77 710 l 1,15,-1
 65 716 l 1,16,-1
 81 851 l 1,17,-1
 324 1084 l 2,18,19
 428 1185 428 1185 471 1238 c 128,-1,20
 514 1291 514 1291 514 1335 c 0,21,22
 514 1365 514 1365 491.5 1384.5 c 128,-1,23
 469 1404 469 1404 430 1404 c 0,24,25
 381 1404 381 1404 319.5 1376 c 128,-1,26
 258 1348 258 1348 202 1300 c 1,27,-1
 178 1300 l 1,28,-1
 157 1471 l 1,29,30
 341 1588 341 1588 498 1588 c 0,0,1
EndSplineSet
EndChar

StartChar: threesuperior
Encoding: 179 179 117
Width: 720
GlyphClass: 2
Flags: W
LayerCount: 2
Fore
SplineSet
464 1591 m 0,0,1
 582 1591 582 1591 659.5 1537 c 128,-1,2
 737 1483 737 1483 737 1397 c 0,3,4
 737 1368 737 1368 728 1339.5 c 128,-1,5
 719 1311 719 1311 700.5 1281.5 c 128,-1,6
 682 1252 682 1252 648.5 1225 c 128,-1,7
 615 1198 615 1198 570 1178 c 1,8,-1
 568 1169 l 1,9,10
 712 1128 712 1128 712 991 c 0,11,12
 712 860 712 860 591 779 c 128,-1,13
 470 698 470 698 277 698 c 0,14,15
 187 698 187 698 108 716 c 1,16,-1
 114 877 l 1,17,-1
 131 890 l 1,18,19
 230 865 230 865 299 865 c 0,20,21
 358 865 358 865 401 879 c 128,-1,22
 444 893 444 893 466 919 c 128,-1,23
 488 945 488 945 488 980 c 0,24,25
 488 1022 488 1022 460.5 1042 c 128,-1,26
 433 1062 433 1062 376 1064 c 1,27,-1
 264 1064 l 1,28,-1
 252 1077 l 1,29,-1
 273 1228 l 1,30,-1
 344 1230 l 2,31,32
 405 1232 405 1232 451.5 1265.5 c 128,-1,33
 498 1299 498 1299 498 1348 c 0,34,35
 498 1415 498 1415 406 1415 c 0,36,37
 335 1415 335 1415 221 1354 c 1,38,-1
 196 1354 l 1,39,-1
 178 1505 l 1,40,41
 326 1591 326 1591 464 1591 c 0,0,1
EndSplineSet
EndChar

StartChar: acute
Encoding: 180 180 118
Width: 877
GlyphClass: 2
Flags: W
LayerCount: 2
Fore
SplineSet
707 1625 m 1,0,-1
 813 1466 l 1,1,-1
 806 1440 l 1,2,3
 564 1283 564 1283 372 1172 c 1,4,-1
 344 1174 l 1,5,-1
 273 1284 l 1,6,7
 476 1442 476 1442 678 1627 c 1,8,-1
 707 1625 l 1,0,-1
EndSplineSet
EndChar

StartChar: micro
Encoding: 181 181 119
Width: 1123
GlyphClass: 2
Flags: W
LayerCount: 2
Fore
SplineSet
1047 1054 m 1,0,-1
 937 252 l 1,1,-1
 928 11 l 1,2,-1
 658 -9 l 1,3,-1
 714 398 l 1,4,-1
 692 398 l 1,5,6
 605 256 605 256 527 160 c 128,-1,7
 449 64 449 64 363 -9 c 1,8,-1
 336 -9 l 1,9,-1
 320 -7 l 1,10,-1
 297 -172 l 1,11,-1
 288 -417 l 1,12,-1
 18 -437 l 1,13,-1
 189 802 l 1,14,-1
 198 1036 l 1,15,-1
 466 1054 l 1,16,-1
 367 340 l 1,17,-1
 370 342 l 1,18,19
 358 275 358 275 410 275 c 128,-1,20
 462 275 462 275 553 392.5 c 128,-1,21
 644 510 644 510 761 739 c 1,22,-1
 770 802 l 1,23,-1
 780 1036 l 1,24,-1
 1047 1054 l 1,0,-1
EndSplineSet
EndChar

StartChar: paragraph
Encoding: 182 182 120
Width: 1173
GlyphClass: 2
Flags: W
LayerCount: 2
Fore
SplineSet
1243 1426 m 1,0,-1
 1199 1225 l 1,1,-1
 1045 1225 l 1,2,-1
 939 441 l 1,3,-1
 926 307 l 1,4,5
 915 220 915 220 884.5 151.5 c 128,-1,6
 854 83 854 83 796 22 c 128,-1,7
 738 -39 738 -39 649.5 -91 c 128,-1,8
 561 -143 561 -143 434 -191 c 1,9,-1
 372 -58 l 1,10,-1
 376 -30 l 1,11,12
 465 16 465 16 521.5 63.5 c 128,-1,13
 578 111 578 111 608.5 166.5 c 128,-1,14
 639 222 639 222 647 293 c 1,15,-1
 662 406 l 1,16,-1
 755 1228 l 1,17,-1
 649 1228 l 1,18,19
 541 1209 541 1209 482.5 1129.5 c 128,-1,20
 424 1050 424 1050 424 924 c 0,21,22
 424 828 424 828 469.5 751.5 c 128,-1,23
 515 675 515 675 602 630 c 1,24,-1
 482 480 l 1,25,26
 302 522 302 522 206 633.5 c 128,-1,27
 110 745 110 745 110 912 c 0,28,29
 110 1163 110 1163 277.5 1306 c 128,-1,30
 445 1449 445 1449 735 1449 c 2,31,-1
 1225 1449 l 1,32,-1
 1243 1426 l 1,0,-1
EndSplineSet
EndChar

StartChar: periodcentered
Encoding: 183 183 121
Width: 518
GlyphClass: 2
Flags: W
LayerCount: 2
Fore
SplineSet
271 723 m 0,0,1
 340 723 340 723 378.5 683.5 c 128,-1,2
 417 644 417 644 417 574 c 0,3,4
 417 525 417 525 398 488 c 128,-1,5
 379 451 379 451 343 430.5 c 128,-1,6
 307 410 307 410 260 410 c 0,7,8
 189 410 189 410 149.5 450 c 128,-1,9
 110 490 110 490 110 561 c 0,10,11
 110 635 110 635 153 679 c 128,-1,12
 196 723 196 723 271 723 c 0,0,1
EndSplineSet
EndChar

StartChar: cedilla
Encoding: 184 184 122
Width: 877
GlyphClass: 2
Flags: W
LayerCount: 2
Fore
SplineSet
361 -108 m 1,0,-1
 437 -151 l 2,1,2
 471 -170 471 -170 491.5 -191 c 128,-1,3
 512 -212 512 -212 520.5 -234.5 c 128,-1,4
 529 -257 529 -257 529 -284 c 0,5,6
 529 -358 529 -358 472 -405.5 c 128,-1,7
 415 -453 415 -453 320 -453 c 0,8,9
 221 -453 221 -453 135 -387 c 1,10,-1
 157 -264 l 1,11,-1
 172 -260 l 1,12,13
 239 -327 239 -327 301 -327 c 0,14,15
 319 -327 319 -327 331.5 -321 c 128,-1,16
 344 -315 344 -315 351.5 -304 c 128,-1,17
 359 -293 359 -293 359 -277 c 0,18,19
 359 -251 359 -251 320 -232 c 1,20,-1
 209 -169 l 1,21,-1
 262 56 l 1,22,-1
 404 56 l 1,23,-1
 361 -108 l 1,0,-1
EndSplineSet
EndChar

StartChar: onesuperior
Encoding: 185 185 123
Width: 617
GlyphClass: 2
Flags: W
LayerCount: 2
Fore
SplineSet
576 1568 m 1,0,-1
 500 1021 l 1,1,-1
 471 712 l 1,2,-1
 239 712 l 1,3,-1
 282 996 l 1,4,-1
 322 1339 l 1,5,-1
 133 1300 l 1,6,-1
 120 1311 l 1,7,-1
 142 1487 l 1,8,-1
 550 1591 l 1,9,-1
 576 1568 l 1,0,-1
EndSplineSet
EndChar

StartChar: ordmasculine
Encoding: 186 186 124
Width: 695
GlyphClass: 2
Flags: W
LayerCount: 2
Fore
SplineSet
494 1462 m 1,0,-1
 514 1462 l 1,1,2
 712 1427 712 1427 712 1210 c 0,3,4
 712 994 712 994 610 864.5 c 128,-1,5
 508 735 508 735 331 725 c 1,6,-1
 314 730 l 1,7,8
 218 744 218 744 166 809 c 128,-1,9
 114 874 114 874 114 991 c 0,10,11
 114 1127 114 1127 160.5 1231.5 c 128,-1,12
 207 1336 207 1336 293 1396 c 128,-1,13
 379 1456 379 1456 494 1462 c 1,0,-1
462 1320 m 0,14,15
 297 1320 297 1320 297 989 c 0,16,17
 297 942 297 942 304.5 914.5 c 128,-1,18
 312 887 312 887 327.5 874.5 c 128,-1,19
 343 862 343 862 370 862 c 0,20,21
 452 862 452 862 489.5 946 c 128,-1,22
 527 1030 527 1030 527 1196 c 0,23,24
 527 1263 527 1263 512 1291.5 c 128,-1,25
 497 1320 497 1320 462 1320 c 0,14,15
EndSplineSet
EndChar

StartChar: guillemetright
Encoding: 187 187 125
Width: 957
GlyphClass: 2
Flags: W
LayerCount: 2
Fore
SplineSet
482 534 m 1,0,-1
 475 486 l 1,1,-1
 120 97 l 1,2,-1
 -9 172 l 1,3,-1
 -11 200 l 1,4,-1
 264 518 l 1,5,-1
 67 836 l 1,6,-1
 77 862 l 1,7,-1
 223 937 l 1,8,-1
 482 534 l 1,0,-1
894 534 m 1,9,-1
 888 486 l 1,10,-1
 531 97 l 1,11,-1
 404 172 l 1,12,-1
 404 200 l 1,13,-1
 678 518 l 1,14,-1
 480 836 l 1,15,-1
 488 862 l 1,16,-1
 636 937 l 1,17,-1
 894 534 l 1,9,-1
EndSplineSet
EndChar

StartChar: onequarter
Encoding: 188 188 126
Width: 1673
GlyphClass: 2
Flags: W
LayerCount: 2
Fore
SplineSet
1444 1430 m 1,0,-1
 187 -207 l 1,1,-1
 73 -133 l 1,2,-1
 63 -101 l 1,3,-1
 1320 1543 l 1,4,-1
 1430 1471 l 1,5,-1
 1444 1430 l 1,0,-1
117 1172 m 1,6,-1
 103 1182 l 1,7,-1
 126 1358 l 1,8,-1
 534 1462 l 1,9,-1
 561 1440 l 1,10,-1
 484 892 l 1,11,-1
 455 583 l 1,12,-1
 223 583 l 1,13,-1
 266 867 l 1,14,-1
 307 1210 l 1,15,-1
 117 1172 l 1,6,-1
1563 194 m 1,16,-1
 1442 198 l 1,17,-1
 1430 15 l 1,18,-1
 1415 0 l 1,19,-1
 1232 -9 l 1,20,-1
 1223 2 l 1,21,-1
 1253 200 l 1,22,-1
 1019 200 l 1,23,-1
 872 194 l 1,24,-1
 860 212 l 1,25,-1
 877 354 l 1,26,-1
 1313 867 l 1,27,-1
 1525 867 l 1,28,-1
 1460 370 l 1,29,-1
 1582 370 l 1,30,-1
 1593 349 l 1,31,-1
 1563 194 l 1,16,-1
1077 370 m 1,32,-1
 1275 370 l 1,33,-1
 1307 622 l 1,34,-1
 1294 622 l 1,35,-1
 1077 370 l 1,32,-1
EndSplineSet
EndChar

StartChar: onehalf
Encoding: 189 189 127
Width: 1729
GlyphClass: 2
Flags: W
LayerCount: 2
Fore
SplineSet
1433 1471 m 1,0,-1
 1446 1430 l 1,1,-1
 189 -207 l 1,2,-1
 75 -133 l 1,3,-1
 65 -101 l 1,4,-1
 1322 1543 l 1,5,-1
 1433 1471 l 1,0,-1
561 1440 m 1,6,-1
 484 892 l 1,7,-1
 455 583 l 1,8,-1
 223 583 l 1,9,-1
 266 867 l 1,10,-1
 307 1210 l 1,11,-1
 117 1172 l 1,12,-1
 103 1182 l 1,13,-1
 126 1358 l 1,14,-1
 534 1462 l 1,15,-1
 561 1440 l 1,6,-1
1363 877 m 0,16,17
 1473 877 1473 877 1546.5 824.5 c 128,-1,18
 1620 772 1620 772 1620 683 c 0,19,20
 1620 615 1620 615 1568 537 c 128,-1,21
 1516 459 1516 459 1390 327 c 2,22,-1
 1251 180 l 1,23,-1
 1255 174 l 1,24,-1
 1471 174 l 1,25,-1
 1625 185 l 1,26,-1
 1634 169 l 1,27,-1
 1588 -9 l 1,28,-1
 1378 0 l 1,29,-1
 1002 0 l 1,30,-1
 942 -2 l 1,31,-1
 931 4 l 1,32,-1
 946 140 l 1,33,-1
 1189 372 l 1,34,35
 1292 473 1292 473 1335 526 c 128,-1,36
 1378 579 1378 579 1378 624 c 0,37,38
 1378 654 1378 654 1356.5 673 c 128,-1,39
 1335 692 1335 692 1296 692 c 0,40,41
 1247 692 1247 692 1185.5 664.5 c 128,-1,42
 1124 637 1124 637 1068 588 c 1,43,-1
 1043 588 l 1,44,-1
 1023 759 l 1,45,46
 1206 877 1206 877 1363 877 c 0,16,17
EndSplineSet
EndChar

StartChar: threequarters
Encoding: 190 190 128
Width: 1761
GlyphClass: 2
Flags: W
LayerCount: 2
Fore
SplineSet
1532 1430 m 1,0,-1
 275 -207 l 1,1,-1
 160 -133 l 1,2,-1
 151 -101 l 1,3,-1
 1408 1543 l 1,4,-1
 1518 1471 l 1,5,-1
 1532 1430 l 1,0,-1
685 862 m 0,6,7
 685 797 685 797 653 742.5 c 128,-1,8
 621 688 621 688 564 650 c 128,-1,9
 507 612 507 612 426 591 c 128,-1,10
 345 570 345 570 250 570 c 0,11,12
 166 570 166 570 81 588 c 1,13,-1
 88 748 l 1,14,-1
 103 761 l 1,15,16
 198 737 198 737 273 737 c 0,17,18
 332 737 332 737 375 751 c 128,-1,19
 418 765 418 765 440 791 c 128,-1,20
 462 817 462 817 462 851 c 0,21,22
 462 932 462 932 349 935 c 1,23,-1
 236 935 l 1,24,-1
 226 948 l 1,25,-1
 245 1099 l 1,26,-1
 318 1101 l 2,27,28
 378 1103 378 1103 424.5 1136.5 c 128,-1,29
 471 1170 471 1170 471 1219 c 0,30,31
 471 1286 471 1286 378 1286 c 0,32,33
 308 1286 308 1286 194 1225 c 1,34,-1
 169 1225 l 1,35,-1
 151 1376 l 1,36,37
 299 1462 299 1462 437 1462 c 0,38,39
 555 1462 555 1462 632.5 1408.5 c 128,-1,40
 710 1355 710 1355 710 1268 c 0,41,42
 710 1207 710 1207 670 1147.5 c 128,-1,43
 630 1088 630 1088 543 1049 c 1,44,-1
 541 1041 l 1,45,46
 685 1000 685 1000 685 862 c 0,6,7
1651 194 m 1,47,-1
 1530 198 l 1,48,-1
 1518 15 l 1,49,-1
 1503 0 l 1,50,-1
 1320 -9 l 1,51,-1
 1311 2 l 1,52,-1
 1341 200 l 1,53,-1
 1107 200 l 1,54,-1
 959 194 l 1,55,-1
 948 212 l 1,56,-1
 965 354 l 1,57,-1
 1401 867 l 1,58,-1
 1613 867 l 1,59,-1
 1548 370 l 1,60,-1
 1670 370 l 1,61,-1
 1681 349 l 1,62,-1
 1651 194 l 1,47,-1
1165 370 m 1,63,-1
 1363 370 l 1,64,-1
 1395 622 l 1,65,-1
 1380 622 l 1,66,-1
 1165 370 l 1,63,-1
EndSplineSet
EndChar

StartChar: questiondown
Encoding: 191 191 129
Width: 765
GlyphClass: 2
Flags: W
LayerCount: 2
Fore
SplineSet
466 757 m 0,0,1
 397 757 397 757 358.5 796.5 c 128,-1,2
 320 836 320 836 320 905 c 0,3,4
 320 943 320 943 331 974 c 128,-1,5
 342 1005 342 1005 362.5 1026 c 128,-1,6
 383 1047 383 1047 412 1058.5 c 128,-1,7
 441 1070 441 1070 477 1070 c 0,8,9
 549 1070 549 1070 587.5 1030.5 c 128,-1,10
 626 991 626 991 626 920 c 0,11,12
 626 870 626 870 607 833.5 c 128,-1,13
 588 797 588 797 551.5 777 c 128,-1,14
 515 757 515 757 466 757 c 0,0,1
509 -434 m 1,15,-1
 480 -451 l 1,16,17
 295 -441 295 -441 167 -399 c 128,-1,18
 39 -357 39 -357 -26.5 -285 c 128,-1,19
 -92 -213 -92 -213 -92 -114 c 256,20,21
 -92 -15 -92 -15 -28 72.5 c 128,-1,22
 36 160 36 160 153 223 c 1,23,-1
 329 322 l 1,24,-1
 333 333 l 1,25,-1
 342 525 l 1,26,-1
 552 552 l 1,27,-1
 570 531 l 1,28,-1
 559 252 l 1,29,-1
 543 230 l 1,30,-1
 327 122 l 1,31,32
 178 51 178 51 178 -67 c 0,33,34
 178 -148 178 -148 270 -194.5 c 128,-1,35
 362 -241 362 -241 563 -254 c 1,36,-1
 581 -282 l 1,37,-1
 509 -434 l 1,15,-1
EndSplineSet
EndChar

StartChar: Agrave
Encoding: 192 192 130
Width: 1312
GlyphClass: 2
Flags: W
AnchorPoint: "Anchor-1" 0 0 basechar 0
AnchorPoint: "Anchor-0" 777 1448 basechar 0
LayerCount: 2
Fore
SplineSet
1057 1627 m 1,0,-1
 1027 1617 l 1,1,2
 731 1723 731 1723 546 1795 c 1,3,-1
 536 1823 l 1,4,-1
 610 1996 l 1,5,-1
 638 2003 l 1,6,7
 835 1886 835 1886 1104 1750 c 1,8,-1
 1057 1627 l 1,0,-1
1217 0 m 1,9,-1
 917 0 l 1,10,-1
 903 187 l 1,11,-1
 883 329 l 1,12,-1
 608 333 l 1,13,-1
 367 329 l 1,14,-1
 314 202 l 1,15,-1
 250 0 l 1,16,-1
 -43 0 l 1,17,-1
 613 1449 l 1,18,-1
 967 1449 l 1,19,-1
 1217 0 l 1,9,-1
849 559 m 1,20,-1
 759 1169 l 1,21,-1
 739 1169 l 1,22,-1
 471 561 l 1,23,-1
 656 557 l 1,24,-1
 849 559 l 1,20,-1
EndSplineSet
Position2: "'cpsp' Capital Spacing lookup 0 subtable" dx=16 dy=0 dh=33 dv=0
EndChar

StartChar: Aacute
Encoding: 193 193 131
Width: 1312
GlyphClass: 2
Flags: W
AnchorPoint: "Anchor-1" 0 0 basechar 0
AnchorPoint: "Anchor-0" 777 1448 basechar 0
LayerCount: 2
Fore
SplineSet
600 1625 m 1,0,-1
 552 1746 l 1,1,2
 802 1871 802 1871 1019 1999 c 1,3,-1
 1045 1991 l 1,4,-1
 1120 1818 l 1,5,-1
 1111 1791 l 1,6,7
 893 1706 893 1706 628 1615 c 1,8,-1
 600 1625 l 1,0,-1
1217 0 m 1,9,-1
 917 0 l 1,10,-1
 903 187 l 1,11,-1
 883 329 l 1,12,-1
 608 333 l 1,13,-1
 367 329 l 1,14,-1
 314 202 l 1,15,-1
 250 0 l 1,16,-1
 -43 0 l 1,17,-1
 613 1449 l 1,18,-1
 967 1449 l 1,19,-1
 1217 0 l 1,9,-1
849 559 m 1,20,-1
 759 1169 l 1,21,-1
 739 1169 l 1,22,-1
 471 561 l 1,23,-1
 656 557 l 1,24,-1
 849 559 l 1,20,-1
EndSplineSet
Position2: "'cpsp' Capital Spacing lookup 0 subtable" dx=16 dy=0 dh=33 dv=0
EndChar

StartChar: Acircumflex
Encoding: 194 194 132
Width: 1312
GlyphClass: 2
Flags: W
AnchorPoint: "Anchor-1" 0 0 basechar 0
AnchorPoint: "Anchor-0" 777 1448 basechar 0
LayerCount: 2
Fore
SplineSet
531 1638 m 1,0,-1
 491 1754 l 1,1,2
 682 1880 682 1880 806 1987 c 1,3,-1
 870 1987 l 1,4,5
 983 1877 983 1877 1148 1754 c 1,6,-1
 1081 1638 l 1,7,-1
 1052 1638 l 1,8,9
 990 1676 990 1676 829 1782 c 1,10,11
 790 1760 790 1760 745 1735.5 c 128,-1,12
 700 1711 700 1711 645.5 1682.5 c 128,-1,13
 591 1654 591 1654 561 1638 c 1,14,-1
 531 1638 l 1,0,-1
1217 0 m 1,15,-1
 917 0 l 1,16,-1
 903 187 l 1,17,-1
 883 329 l 1,18,-1
 608 333 l 1,19,-1
 367 329 l 1,20,-1
 314 202 l 1,21,-1
 250 0 l 1,22,-1
 -43 0 l 1,23,-1
 613 1449 l 1,24,-1
 967 1449 l 1,25,-1
 1217 0 l 1,15,-1
849 559 m 1,26,-1
 759 1169 l 1,27,-1
 739 1169 l 1,28,-1
 471 561 l 1,29,-1
 656 557 l 1,30,-1
 849 559 l 1,26,-1
EndSplineSet
Position2: "'cpsp' Capital Spacing lookup 0 subtable" dx=16 dy=0 dh=33 dv=0
EndChar

StartChar: Atilde
Encoding: 195 195 133
Width: 1312
GlyphClass: 2
Flags: W
AnchorPoint: "Anchor-1" 0 0 basechar 0
AnchorPoint: "Anchor-0" 777 1448 basechar 0
LayerCount: 2
Fore
SplineSet
514 1622 m 1,0,-1
 426 1709 l 1,1,-1
 426 1735 l 1,2,-1
 583 1933 l 1,3,-1
 610 1942 l 1,4,5
 663 1935 663 1935 796.5 1899 c 128,-1,6
 930 1863 930 1863 959 1863 c 0,7,8
 972 1863 972 1863 984.5 1868.5 c 128,-1,9
 997 1874 997 1874 1012.5 1887.5 c 128,-1,10
 1028 1901 1028 1901 1037.5 1910.5 c 128,-1,11
 1047 1920 1047 1920 1068 1944 c 128,-1,12
 1089 1968 1089 1968 1099 1978 c 1,13,-1
 1124 1978 l 1,14,-1
 1212 1892 l 1,15,-1
 1212 1868 l 1,16,-1
 1054 1670 l 1,17,-1
 1027 1658 l 1,18,19
 976 1664 976 1664 841.5 1701.5 c 128,-1,20
 707 1739 707 1739 678 1739 c 0,21,22
 665 1739 665 1739 652.5 1733.5 c 128,-1,23
 640 1728 640 1728 625 1714.5 c 128,-1,24
 610 1701 610 1701 600.5 1690.5 c 128,-1,25
 591 1680 591 1680 571 1657 c 128,-1,26
 551 1634 551 1634 541 1622 c 1,27,-1
 514 1622 l 1,0,-1
1217 0 m 1,28,-1
 917 0 l 1,29,-1
 903 187 l 1,30,-1
 883 329 l 1,31,-1
 608 333 l 1,32,-1
 367 329 l 1,33,-1
 314 202 l 1,34,-1
 250 0 l 1,35,-1
 -43 0 l 1,36,-1
 613 1449 l 1,37,-1
 967 1449 l 1,38,-1
 1217 0 l 1,28,-1
849 559 m 1,39,-1
 759 1169 l 1,40,-1
 739 1169 l 1,41,-1
 471 561 l 1,42,-1
 656 557 l 1,43,-1
 849 559 l 1,39,-1
EndSplineSet
Position2: "'cpsp' Capital Spacing lookup 0 subtable" dx=16 dy=0 dh=33 dv=0
EndChar

StartChar: Adieresis
Encoding: 196 196 134
Width: 1312
GlyphClass: 2
Flags: W
AnchorPoint: "Anchor-1" 0 0 basechar 0
AnchorPoint: "Anchor-0" 777 1448 basechar 0
LayerCount: 2
Fore
SplineSet
617 1651 m 256,0,1
 551 1651 551 1651 516.5 1686.5 c 128,-1,2
 482 1722 482 1722 482 1789 c 0,3,4
 482 1833 482 1833 499.5 1866.5 c 128,-1,5
 517 1900 517 1900 550 1917.5 c 128,-1,6
 583 1935 583 1935 628 1935 c 0,7,8
 689 1935 689 1935 724 1898.5 c 128,-1,9
 759 1862 759 1862 759 1800 c 0,10,11
 759 1730 759 1730 721 1690.5 c 128,-1,12
 683 1651 683 1651 617 1651 c 256,0,1
1010 1649 m 0,13,14
 946 1649 946 1649 911.5 1684.5 c 128,-1,15
 877 1720 877 1720 877 1786 c 0,16,17
 877 1854 877 1854 915 1893.5 c 128,-1,18
 953 1933 953 1933 1021 1933 c 0,19,20
 1083 1933 1083 1933 1117.5 1897 c 128,-1,21
 1152 1861 1152 1861 1152 1797 c 0,22,23
 1152 1764 1152 1764 1142 1736.5 c 128,-1,24
 1132 1709 1132 1709 1114 1689.5 c 128,-1,25
 1096 1670 1096 1670 1069 1659.5 c 128,-1,26
 1042 1649 1042 1649 1010 1649 c 0,13,14
1217 0 m 1,27,-1
 917 0 l 1,28,-1
 903 187 l 1,29,-1
 883 329 l 1,30,-1
 608 333 l 1,31,-1
 367 329 l 1,32,-1
 314 202 l 1,33,-1
 250 0 l 1,34,-1
 -43 0 l 1,35,-1
 613 1449 l 1,36,-1
 967 1449 l 1,37,-1
 1217 0 l 1,27,-1
849 559 m 1,38,-1
 759 1169 l 1,39,-1
 739 1169 l 1,40,-1
 471 561 l 1,41,-1
 656 557 l 1,42,-1
 849 559 l 1,38,-1
EndSplineSet
Position2: "'cpsp' Capital Spacing lookup 0 subtable" dx=16 dy=0 dh=33 dv=0
EndChar

StartChar: Aring
Encoding: 197 197 135
Width: 1312
GlyphClass: 2
Flags: W
AnchorPoint: "Anchor-1" 0 0 basechar 0
AnchorPoint: "Anchor-0" 777 1448 basechar 0
LayerCount: 2
Fore
SplineSet
815 1606 m 0,0,1
 718 1606 718 1606 663 1661 c 128,-1,2
 608 1716 608 1716 608 1818 c 0,3,4
 608 1886 608 1886 633 1933.5 c 128,-1,5
 658 1981 658 1981 707.5 2006.5 c 128,-1,6
 757 2032 757 2032 827 2032 c 0,7,8
 929 2032 929 2032 982.5 1977.5 c 128,-1,9
 1036 1923 1036 1923 1036 1827 c 0,10,11
 1036 1722 1036 1722 976.5 1664 c 128,-1,12
 917 1606 917 1606 815 1606 c 0,0,1
820 1906 m 0,13,14
 730 1906 730 1906 730 1823 c 0,15,16
 730 1730 730 1730 823 1730 c 0,17,18
 914 1730 914 1730 914 1816 c 0,19,20
 914 1859 914 1859 890.5 1882.5 c 128,-1,21
 867 1906 867 1906 820 1906 c 0,13,14
1217 0 m 1,22,-1
 917 0 l 1,23,-1
 903 187 l 1,24,-1
 883 329 l 1,25,-1
 608 333 l 1,26,-1
 367 329 l 1,27,-1
 314 202 l 1,28,-1
 250 0 l 1,29,-1
 -43 0 l 1,30,-1
 613 1449 l 1,31,-1
 967 1449 l 1,32,-1
 1217 0 l 1,22,-1
849 559 m 1,33,-1
 759 1169 l 1,34,-1
 739 1169 l 1,35,-1
 471 561 l 1,36,-1
 656 557 l 1,37,-1
 849 559 l 1,33,-1
EndSplineSet
Position2: "'cpsp' Capital Spacing lookup 0 subtable" dx=16 dy=0 dh=33 dv=0
EndChar

StartChar: AE
Encoding: 198 198 136
Width: 1797
GlyphClass: 2
Flags: W
AnchorPoint: "Anchor-1" 0 0 basechar 0
AnchorPoint: "Anchor-0" 1210 1448 basechar 0
LayerCount: 2
Fore
SplineSet
1744 223 m 1,0,-1
 1696 0 l 1,1,-1
 847 0 l 1,2,-1
 858 187 l 1,3,-1
 860 503 l 1,4,-1
 383 378 l 1,5,-1
 282 202 l 1,6,-1
 194 0 l 1,7,-1
 -101 0 l 1,8,-1
 755 1449 l 1,9,-1
 1717 1449 l 1,10,-1
 1730 1426 l 1,11,-1
 1683 1203 l 1,12,-1
 1343 1214 l 1,13,-1
 1152 1214 l 1,14,-1
 1146 802 l 1,15,-1
 1586 912 l 1,16,-1
 1606 894 l 1,17,-1
 1604 685 l 1,18,-1
 1144 576 l 1,19,-1
 1142 232 l 1,20,-1
 1367 232 l 1,21,-1
 1728 245 l 1,22,-1
 1744 223 l 1,0,-1
860 728 m 1,23,-1
 862 1169 l 1,24,-1
 845 1169 l 1,25,-1
 538 645 l 1,26,-1
 860 728 l 1,23,-1
EndSplineSet
Position2: "'cpsp' Capital Spacing lookup 0 subtable" dx=16 dy=0 dh=33 dv=0
EndChar

StartChar: Ccedilla
Encoding: 199 199 137
Width: 1141
GlyphClass: 2
Flags: W
AnchorPoint: "Anchor-1" 702 0 basechar 0
AnchorPoint: "Anchor-0" 765 1448 basechar 0
LayerCount: 2
Fore
SplineSet
847 1466 m 0,0,1
 1061 1466 1061 1466 1219 1380 c 1,2,-1
 1135 1129 l 1,3,-1
 1111 1120 l 1,4,5
 980 1223 980 1223 815 1223 c 0,6,7
 678 1223 678 1223 585.5 1155.5 c 128,-1,8
 493 1088 493 1088 447.5 956 c 128,-1,9
 402 824 402 824 402 630 c 0,10,11
 402 498 402 498 436 408.5 c 128,-1,12
 470 319 470 319 537 274.5 c 128,-1,13
 604 230 604 230 703 230 c 0,14,15
 757 230 757 230 815 241.5 c 128,-1,16
 873 253 873 253 930.5 275.5 c 128,-1,17
 988 298 988 298 1038 329 c 1,18,-1
 1064 314 l 1,19,-1
 1010 58 l 1,20,21
 867 -5 867 -5 730 -18 c 1,22,-1
 707 -106 l 1,23,-1
 784 -148 l 2,24,25
 818 -167 818 -167 839 -188.5 c 128,-1,26
 860 -210 860 -210 868.5 -232.5 c 128,-1,27
 877 -255 877 -255 877 -282 c 0,28,29
 877 -355 877 -355 819.5 -403 c 128,-1,30
 762 -451 762 -451 667 -451 c 0,31,32
 568 -451 568 -451 482 -385 c 1,33,-1
 505 -262 l 1,34,-1
 518 -256 l 1,35,36
 586 -324 586 -324 649 -324 c 0,37,38
 666 -324 666 -324 678.5 -318.5 c 128,-1,39
 691 -313 691 -313 698 -302 c 128,-1,40
 705 -291 705 -291 705 -275 c 0,41,42
 705 -249 705 -249 667 -230 c 1,43,-1
 557 -167 l 1,44,-1
 591 -18 l 1,45,46
 428 -4 428 -4 314.5 69.5 c 128,-1,47
 201 143 201 143 142.5 273 c 128,-1,48
 84 403 84 403 84 583 c 0,49,50
 84 858 84 858 173 1056.5 c 128,-1,51
 262 1255 262 1255 434 1360.5 c 128,-1,52
 606 1466 606 1466 847 1466 c 0,0,1
EndSplineSet
Position2: "'cpsp' Capital Spacing lookup 0 subtable" dx=16 dy=0 dh=33 dv=0
EndChar

StartChar: Egrave
Encoding: 200 200 138
Width: 1118
GlyphClass: 2
Flags: W
AnchorPoint: "Anchor-1" 638 0 basechar 0
AnchorPoint: "Anchor-0" 722 1448 basechar 0
LayerCount: 2
Fore
SplineSet
1002 1627 m 1,0,-1
 974 1617 l 1,1,2
 664 1727 664 1727 491 1795 c 1,3,-1
 482 1823 l 1,4,-1
 557 1996 l 1,5,-1
 583 2003 l 1,6,7
 780 1886 780 1886 1049 1750 c 1,8,-1
 1002 1627 l 1,0,-1
557 1212 m 1,9,-1
 507 854 l 1,10,-1
 750 851 l 1,11,-1
 980 858 l 1,12,-1
 996 836 l 1,13,-1
 948 613 l 1,14,-1
 701 619 l 1,15,-1
 473 617 l 1,16,-1
 451 460 l 1,17,-1
 428 236 l 1,18,-1
 680 234 l 1,19,-1
 1025 245 l 1,20,-1
 1038 223 l 1,21,-1
 991 0 l 1,22,-1
 108 0 l 1,23,-1
 178 432 l 1,24,-1
 290 1449 l 1,25,-1
 1182 1449 l 1,26,-1
 1196 1426 l 1,27,-1
 1148 1203 l 1,28,-1
 813 1214 l 1,29,-1
 557 1212 l 1,9,-1
EndSplineSet
Position2: "'cpsp' Capital Spacing lookup 0 subtable" dx=16 dy=0 dh=33 dv=0
EndChar

StartChar: Eacute
Encoding: 201 201 139
Width: 1118
GlyphClass: 2
Flags: W
AnchorPoint: "Anchor-1" 638 0 basechar 0
AnchorPoint: "Anchor-0" 722 1448 basechar 0
LayerCount: 2
Fore
SplineSet
546 1625 m 1,0,-1
 498 1746 l 1,1,2
 748 1871 748 1871 965 1999 c 1,3,-1
 991 1991 l 1,4,-1
 1066 1818 l 1,5,-1
 1057 1791 l 1,6,7
 839 1706 839 1706 574 1615 c 1,8,-1
 546 1625 l 1,0,-1
557 1212 m 1,9,-1
 507 854 l 1,10,-1
 750 851 l 1,11,-1
 980 858 l 1,12,-1
 996 836 l 1,13,-1
 948 613 l 1,14,-1
 701 619 l 1,15,-1
 473 617 l 1,16,-1
 451 460 l 1,17,-1
 428 236 l 1,18,-1
 680 234 l 1,19,-1
 1025 245 l 1,20,-1
 1038 223 l 1,21,-1
 991 0 l 1,22,-1
 108 0 l 1,23,-1
 178 432 l 1,24,-1
 290 1449 l 1,25,-1
 1182 1449 l 1,26,-1
 1196 1426 l 1,27,-1
 1148 1203 l 1,28,-1
 813 1214 l 1,29,-1
 557 1212 l 1,9,-1
EndSplineSet
Position2: "'cpsp' Capital Spacing lookup 0 subtable" dx=16 dy=0 dh=33 dv=0
EndChar

StartChar: Ecircumflex
Encoding: 202 202 140
Width: 1118
GlyphClass: 2
Flags: W
AnchorPoint: "Anchor-1" 638 0 basechar 0
AnchorPoint: "Anchor-0" 722 1448 basechar 0
LayerCount: 2
Fore
SplineSet
480 1638 m 1,0,-1
 439 1754 l 1,1,2
 630 1880 630 1880 755 1987 c 1,3,-1
 817 1987 l 1,4,5
 926 1880 926 1880 1097 1754 c 1,6,-1
 1030 1638 l 1,7,-1
 1000 1638 l 1,8,9
 938 1676 938 1676 778 1782 c 1,10,11
 739 1760 739 1760 693.5 1735.5 c 128,-1,12
 648 1711 648 1711 593.5 1682.5 c 128,-1,13
 539 1654 539 1654 509 1638 c 1,14,-1
 480 1638 l 1,0,-1
557 1212 m 1,15,-1
 507 854 l 1,16,-1
 750 851 l 1,17,-1
 980 858 l 1,18,-1
 996 836 l 1,19,-1
 948 613 l 1,20,-1
 701 619 l 1,21,-1
 473 617 l 1,22,-1
 451 460 l 1,23,-1
 428 236 l 1,24,-1
 680 234 l 1,25,-1
 1025 245 l 1,26,-1
 1038 223 l 1,27,-1
 991 0 l 1,28,-1
 108 0 l 1,29,-1
 178 432 l 1,30,-1
 290 1449 l 1,31,-1
 1182 1449 l 1,32,-1
 1196 1426 l 1,33,-1
 1148 1203 l 1,34,-1
 813 1214 l 1,35,-1
 557 1212 l 1,15,-1
EndSplineSet
Position2: "'cpsp' Capital Spacing lookup 0 subtable" dx=16 dy=0 dh=33 dv=0
EndChar

StartChar: Edieresis
Encoding: 203 203 141
Width: 1118
GlyphClass: 2
Flags: W
AnchorPoint: "Anchor-1" 638 0 basechar 0
AnchorPoint: "Anchor-0" 722 1448 basechar 0
LayerCount: 2
Fore
SplineSet
565 1651 m 0,0,1
 500 1651 500 1651 465 1686.5 c 128,-1,2
 430 1722 430 1722 430 1789 c 256,3,4
 430 1856 430 1856 469.5 1895.5 c 128,-1,5
 509 1935 509 1935 576 1935 c 0,6,7
 607 1935 607 1935 631.5 1925.5 c 128,-1,8
 656 1916 656 1916 672.5 1898.5 c 128,-1,9
 689 1881 689 1881 698 1856 c 128,-1,10
 707 1831 707 1831 707 1800 c 0,11,12
 707 1730 707 1730 669 1690.5 c 128,-1,13
 631 1651 631 1651 565 1651 c 0,0,1
957 1649 m 0,14,15
 893 1649 893 1649 859 1684.5 c 128,-1,16
 825 1720 825 1720 825 1786 c 0,17,18
 825 1831 825 1831 842 1864 c 128,-1,19
 859 1897 859 1897 891.5 1915 c 128,-1,20
 924 1933 924 1933 969 1933 c 0,21,22
 1031 1933 1031 1933 1065 1897 c 128,-1,23
 1099 1861 1099 1861 1099 1797 c 0,24,25
 1099 1771 1099 1771 1092.5 1747.5 c 128,-1,26
 1086 1724 1086 1724 1074 1706 c 128,-1,27
 1062 1688 1062 1688 1045 1675 c 128,-1,28
 1028 1662 1028 1662 1005.5 1655.5 c 128,-1,29
 983 1649 983 1649 957 1649 c 0,14,15
557 1212 m 1,30,-1
 507 854 l 1,31,-1
 750 851 l 1,32,-1
 980 858 l 1,33,-1
 996 836 l 1,34,-1
 948 613 l 1,35,-1
 701 619 l 1,36,-1
 473 617 l 1,37,-1
 451 460 l 1,38,-1
 428 236 l 1,39,-1
 680 234 l 1,40,-1
 1025 245 l 1,41,-1
 1038 223 l 1,42,-1
 991 0 l 1,43,-1
 108 0 l 1,44,-1
 178 432 l 1,45,-1
 290 1449 l 1,46,-1
 1182 1449 l 1,47,-1
 1196 1426 l 1,48,-1
 1148 1203 l 1,49,-1
 813 1214 l 1,50,-1
 557 1212 l 1,30,-1
EndSplineSet
Position2: "'cpsp' Capital Spacing lookup 0 subtable" dx=16 dy=0 dh=33 dv=0
EndChar

StartChar: Igrave
Encoding: 204 204 142
Width: 650
GlyphClass: 2
Flags: W
AnchorPoint: "Anchor-1" 0 0 basechar 0
AnchorPoint: "Anchor-0" 436 1448 basechar 0
LayerCount: 2
Fore
SplineSet
273 1996 m 1,0,-1
 299 2003 l 1,1,2
 496 1886 496 1886 766 1750 c 1,3,-1
 718 1627 l 1,4,-1
 690 1617 l 1,5,6
 381 1727 381 1727 207 1795 c 1,7,-1
 198 1823 l 1,8,-1
 273 1996 l 1,0,-1
451 460 m 1,9,-1
 406 0 l 1,10,-1
 108 0 l 1,11,-1
 178 432 l 1,12,-1
 288 1449 l 1,13,-1
 591 1449 l 1,14,-1
 451 460 l 1,9,-1
EndSplineSet
Position2: "'cpsp' Capital Spacing lookup 0 subtable" dx=16 dy=0 dh=33 dv=0
EndChar

StartChar: Iacute
Encoding: 205 205 143
Width: 650
GlyphClass: 2
Flags: W
AnchorPoint: "Anchor-1" 0 0 basechar 0
AnchorPoint: "Anchor-0" 436 1448 basechar 0
LayerCount: 2
Fore
SplineSet
707 1991 m 1,0,-1
 782 1818 l 1,1,-1
 772 1791 l 1,2,3
 547 1703 547 1703 290 1615 c 1,4,-1
 262 1625 l 1,5,-1
 214 1746 l 1,6,7
 456 1867 456 1867 680 1999 c 1,8,-1
 707 1991 l 1,0,-1
451 460 m 1,9,-1
 406 0 l 1,10,-1
 108 0 l 1,11,-1
 178 432 l 1,12,-1
 288 1449 l 1,13,-1
 591 1449 l 1,14,-1
 451 460 l 1,9,-1
EndSplineSet
Position2: "'cpsp' Capital Spacing lookup 0 subtable" dx=16 dy=0 dh=33 dv=0
EndChar

StartChar: Icircumflex
Encoding: 206 206 144
Width: 650
GlyphClass: 2
Flags: W
AnchorPoint: "Anchor-1" 0 0 basechar 0
AnchorPoint: "Anchor-0" 436 1448 basechar 0
LayerCount: 2
Fore
SplineSet
194 1638 m 1,0,-1
 153 1754 l 1,1,2
 344 1880 344 1880 469 1987 c 1,3,-1
 531 1987 l 1,4,5
 640 1880 640 1880 811 1754 c 1,6,-1
 744 1638 l 1,7,-1
 714 1638 l 1,8,9
 637 1685 637 1685 491 1782 c 1,10,11
 474 1772 474 1772 223 1638 c 1,12,-1
 194 1638 l 1,0,-1
451 460 m 1,13,-1
 406 0 l 1,14,-1
 108 0 l 1,15,-1
 178 432 l 1,16,-1
 288 1449 l 1,17,-1
 591 1449 l 1,18,-1
 451 460 l 1,13,-1
EndSplineSet
Position2: "'cpsp' Capital Spacing lookup 0 subtable" dx=16 dy=0 dh=33 dv=0
EndChar

StartChar: Idieresis
Encoding: 207 207 145
Width: 650
GlyphClass: 2
Flags: W
AnchorPoint: "Anchor-1" 0 0 basechar 0
AnchorPoint: "Anchor-0" 436 1448 basechar 0
LayerCount: 2
Fore
SplineSet
316 1933 m 0,0,1
 378 1933 378 1933 413.5 1896.5 c 128,-1,2
 449 1860 449 1860 449 1797 c 0,3,4
 449 1753 449 1753 431.5 1719 c 128,-1,5
 414 1685 414 1685 381.5 1667 c 128,-1,6
 349 1649 349 1649 307 1649 c 0,7,8
 241 1649 241 1649 206.5 1684.5 c 128,-1,9
 172 1720 172 1720 172 1786 c 0,10,11
 172 1854 172 1854 210 1893.5 c 128,-1,12
 248 1933 248 1933 316 1933 c 0,0,1
658 1933 m 0,13,14
 719 1933 719 1933 754 1896.5 c 128,-1,15
 789 1860 789 1860 789 1797 c 0,16,17
 789 1753 789 1753 771.5 1719 c 128,-1,18
 754 1685 754 1685 721.5 1667 c 128,-1,19
 689 1649 689 1649 647 1649 c 0,20,21
 581 1649 581 1649 546.5 1684.5 c 128,-1,22
 512 1720 512 1720 512 1786 c 0,23,24
 512 1854 512 1854 550.5 1893.5 c 128,-1,25
 589 1933 589 1933 658 1933 c 0,13,14
451 460 m 1,26,-1
 406 0 l 1,27,-1
 108 0 l 1,28,-1
 178 432 l 1,29,-1
 288 1449 l 1,30,-1
 591 1449 l 1,31,-1
 451 460 l 1,26,-1
EndSplineSet
Ligature2: "'liga' Standard Ligatures lookup 30 subtable" dieresis I
Position2: "'cpsp' Capital Spacing lookup 0 subtable" dx=16 dy=0 dh=33 dv=0
EndChar

StartChar: Eth
Encoding: 208 208 146
Width: 1504
GlyphClass: 2
Flags: W
AnchorPoint: "Anchor-1" 0 0 basechar 0
AnchorPoint: "Anchor-0" 825 1448 basechar 0
LayerCount: 2
Fore
SplineSet
351 1449 m 1,0,-1
 901 1458 l 1,1,2
 1082 1458 1082 1458 1210.5 1392.5 c 128,-1,3
 1339 1327 1339 1327 1407 1199.5 c 128,-1,4
 1475 1072 1475 1072 1475 892 c 0,5,6
 1475 611 1475 611 1384.5 408 c 128,-1,7
 1294 205 1294 205 1113.5 95 c 128,-1,8
 933 -15 933 -15 678 -15 c 0,9,10
 420 -15 420 -15 172 0 c 1,11,-1
 241 432 l 1,12,-1
 262 622 l 1,13,-1
 69 622 l 1,14,-1
 58 642 l 1,15,-1
 84 820 l 1,16,-1
 284 820 l 1,17,-1
 351 1449 l 1,0,-1
744 214 m 0,18,19
 945 214 945 214 1054 371 c 128,-1,20
 1163 528 1163 528 1163 845 c 0,21,22
 1163 974 1163 974 1129.5 1057.5 c 128,-1,23
 1096 1141 1096 1141 1030 1181 c 128,-1,24
 964 1221 964 1221 865 1221 c 0,25,26
 776 1221 776 1221 617 1212 c 1,27,-1
 563 820 l 1,28,-1
 834 820 l 1,29,-1
 845 800 l 1,30,-1
 823 622 l 1,31,-1
 534 622 l 1,32,-1
 512 460 l 1,33,-1
 491 232 l 1,34,35
 631 214 631 214 744 214 c 0,18,19
EndSplineSet
Position2: "'cpsp' Capital Spacing lookup 0 subtable" dx=16 dy=0 dh=33 dv=0
EndChar

StartChar: Ntilde
Encoding: 209 209 147
Width: 1526
GlyphClass: 2
Flags: W
AnchorPoint: "Anchor-1" 702 0 basechar 0
AnchorPoint: "Anchor-0" 881 1448 basechar 0
LayerCount: 2
Fore
SplineSet
1316 1892 m 1,0,-1
 1316 1868 l 1,1,-1
 1158 1670 l 1,2,-1
 1131 1658 l 1,3,4
 1088 1663 1088 1663 1012 1683.5 c 128,-1,5
 936 1704 936 1704 871.5 1721.5 c 128,-1,6
 807 1739 807 1739 782 1739 c 0,7,8
 771 1739 771 1739 759.5 1734 c 128,-1,9
 748 1729 748 1729 738.5 1722.5 c 128,-1,10
 729 1716 729 1716 716 1703 c 128,-1,11
 703 1690 703 1690 694.5 1680 c 128,-1,12
 686 1670 686 1670 670 1651.5 c 128,-1,13
 654 1633 654 1633 645 1622 c 1,14,-1
 617 1622 l 1,15,-1
 529 1709 l 1,16,-1
 529 1735 l 1,17,-1
 688 1933 l 1,18,-1
 714 1942 l 1,19,20
 758 1936 758 1936 834.5 1916 c 128,-1,21
 911 1896 911 1896 975 1879.5 c 128,-1,22
 1039 1863 1039 1863 1064 1863 c 0,23,24
 1075 1863 1075 1863 1086.5 1868 c 128,-1,25
 1098 1873 1098 1873 1107 1879 c 128,-1,26
 1116 1885 1116 1885 1129.5 1898 c 128,-1,27
 1143 1911 1143 1911 1152 1920.5 c 128,-1,28
 1161 1930 1161 1930 1177.5 1948.5 c 128,-1,29
 1194 1967 1194 1967 1203 1978 c 1,30,-1
 1228 1978 l 1,31,-1
 1316 1892 l 1,0,-1
1329 447 m 1,32,-1
 1286 0 l 1,33,-1
 967 0 l 1,34,-1
 518 993 l 1,35,-1
 498 993 l 1,36,-1
 432 498 l 1,37,-1
 383 0 l 1,38,-1
 110 0 l 1,39,-1
 180 428 l 1,40,-1
 293 1449 l 1,41,-1
 610 1449 l 1,42,-1
 1062 455 l 1,43,-1
 1081 455 l 1,44,-1
 1196 1438 l 1,45,-1
 1473 1455 l 1,46,-1
 1329 447 l 1,32,-1
EndSplineSet
Position2: "'cpsp' Capital Spacing lookup 0 subtable" dx=16 dy=0 dh=33 dv=0
EndChar

StartChar: Ograve
Encoding: 210 210 148
Width: 1421
GlyphClass: 2
Flags: W
AnchorPoint: "Anchor-1" 0 0 basechar 0
AnchorPoint: "Anchor-0" 825 1448 basechar 0
LayerCount: 2
Fore
SplineSet
660 1996 m 1,0,-1
 688 2003 l 1,1,2
 885 1886 885 1886 1154 1750 c 1,3,-1
 1107 1627 l 1,4,-1
 1077 1617 l 1,5,6
 780 1723 780 1723 595 1795 c 1,7,-1
 585 1823 l 1,8,-1
 660 1996 l 1,0,-1
832 1468 m 0,9,10
 1099 1468 1099 1468 1247 1313.5 c 128,-1,11
 1395 1159 1395 1159 1395 865 c 0,12,13
 1395 665 1395 665 1345.5 502 c 128,-1,14
 1296 339 1296 339 1202 222.5 c 128,-1,15
 1108 106 1108 106 965.5 42 c 128,-1,16
 823 -22 823 -22 645 -22 c 0,17,18
 514 -22 514 -22 410 18 c 128,-1,19
 306 58 306 58 233.5 134.5 c 128,-1,20
 161 211 161 211 122.5 327.5 c 128,-1,21
 84 444 84 444 84 593 c 0,22,23
 84 792 84 792 133.5 954 c 128,-1,24
 183 1116 183 1116 276.5 1230 c 128,-1,25
 370 1344 370 1344 511.5 1406 c 128,-1,26
 653 1468 653 1468 832 1468 c 0,9,10
798 1228 m 0,27,28
 662 1228 662 1228 573.5 1165 c 128,-1,29
 485 1102 485 1102 438.5 961.5 c 128,-1,30
 392 821 392 821 392 600 c 0,31,32
 392 394 392 394 458 300.5 c 128,-1,33
 524 207 524 207 673 207 c 0,34,35
 774 207 774 207 848.5 242.5 c 128,-1,36
 923 278 923 278 976 354 c 128,-1,37
 1029 430 1029 430 1055 551.5 c 128,-1,38
 1081 673 1081 673 1081 840 c 0,39,40
 1081 1044 1081 1044 1014 1136 c 128,-1,41
 947 1228 947 1228 798 1228 c 0,27,28
EndSplineSet
Position2: "'cpsp' Capital Spacing lookup 0 subtable" dx=16 dy=0 dh=33 dv=0
EndChar

StartChar: Oacute
Encoding: 211 211 149
Width: 1421
GlyphClass: 2
Flags: W
AnchorPoint: "Anchor-1" 0 0 basechar 0
AnchorPoint: "Anchor-0" 825 1448 basechar 0
LayerCount: 2
Fore
SplineSet
1094 1991 m 1,0,-1
 1169 1818 l 1,1,-1
 1160 1791 l 1,2,3
 943 1706 943 1706 678 1615 c 1,4,-1
 649 1625 l 1,5,-1
 602 1746 l 1,6,7
 851 1871 851 1871 1068 1999 c 1,8,-1
 1094 1991 l 1,0,-1
832 1468 m 0,9,10
 1099 1468 1099 1468 1247 1313.5 c 128,-1,11
 1395 1159 1395 1159 1395 865 c 0,12,13
 1395 665 1395 665 1345.5 502 c 128,-1,14
 1296 339 1296 339 1202 222.5 c 128,-1,15
 1108 106 1108 106 965.5 42 c 128,-1,16
 823 -22 823 -22 645 -22 c 0,17,18
 514 -22 514 -22 410 18 c 128,-1,19
 306 58 306 58 233.5 134.5 c 128,-1,20
 161 211 161 211 122.5 327.5 c 128,-1,21
 84 444 84 444 84 593 c 0,22,23
 84 792 84 792 133.5 954 c 128,-1,24
 183 1116 183 1116 276.5 1230 c 128,-1,25
 370 1344 370 1344 511.5 1406 c 128,-1,26
 653 1468 653 1468 832 1468 c 0,9,10
798 1228 m 0,27,28
 662 1228 662 1228 573.5 1165 c 128,-1,29
 485 1102 485 1102 438.5 961.5 c 128,-1,30
 392 821 392 821 392 600 c 0,31,32
 392 394 392 394 458 300.5 c 128,-1,33
 524 207 524 207 673 207 c 0,34,35
 774 207 774 207 848.5 242.5 c 128,-1,36
 923 278 923 278 976 354 c 128,-1,37
 1029 430 1029 430 1055 551.5 c 128,-1,38
 1081 673 1081 673 1081 840 c 0,39,40
 1081 1044 1081 1044 1014 1136 c 128,-1,41
 947 1228 947 1228 798 1228 c 0,27,28
EndSplineSet
Position2: "'cpsp' Capital Spacing lookup 0 subtable" dx=16 dy=0 dh=33 dv=0
EndChar

StartChar: Ocircumflex
Encoding: 212 212 150
Width: 1421
GlyphClass: 2
Flags: W
AnchorPoint: "Anchor-1" 0 0 basechar 0
AnchorPoint: "Anchor-0" 825 1448 basechar 0
LayerCount: 2
Fore
SplineSet
581 1638 m 1,0,-1
 541 1754 l 1,1,2
 728 1877 728 1877 856 1987 c 1,3,-1
 920 1987 l 1,4,5
 1029 1880 1029 1880 1199 1754 c 1,6,-1
 1131 1638 l 1,7,-1
 1101 1638 l 1,8,9
 1039 1676 1039 1676 879 1782 c 1,10,11
 840 1760 840 1760 794.5 1735.5 c 128,-1,12
 749 1711 749 1711 694.5 1682.5 c 128,-1,13
 640 1654 640 1654 610 1638 c 1,14,-1
 581 1638 l 1,0,-1
832 1468 m 0,15,16
 1099 1468 1099 1468 1247 1313.5 c 128,-1,17
 1395 1159 1395 1159 1395 865 c 0,18,19
 1395 665 1395 665 1345.5 502 c 128,-1,20
 1296 339 1296 339 1202 222.5 c 128,-1,21
 1108 106 1108 106 965.5 42 c 128,-1,22
 823 -22 823 -22 645 -22 c 0,23,24
 514 -22 514 -22 410 18 c 128,-1,25
 306 58 306 58 233.5 134.5 c 128,-1,26
 161 211 161 211 122.5 327.5 c 128,-1,27
 84 444 84 444 84 593 c 0,28,29
 84 792 84 792 133.5 954 c 128,-1,30
 183 1116 183 1116 276.5 1230 c 128,-1,31
 370 1344 370 1344 511.5 1406 c 128,-1,32
 653 1468 653 1468 832 1468 c 0,15,16
798 1228 m 0,33,34
 662 1228 662 1228 573.5 1165 c 128,-1,35
 485 1102 485 1102 438.5 961.5 c 128,-1,36
 392 821 392 821 392 600 c 0,37,38
 392 394 392 394 458 300.5 c 128,-1,39
 524 207 524 207 673 207 c 0,40,41
 774 207 774 207 848.5 242.5 c 128,-1,42
 923 278 923 278 976 354 c 128,-1,43
 1029 430 1029 430 1055 551.5 c 128,-1,44
 1081 673 1081 673 1081 840 c 0,45,46
 1081 1044 1081 1044 1014 1136 c 128,-1,47
 947 1228 947 1228 798 1228 c 0,33,34
EndSplineSet
Position2: "'cpsp' Capital Spacing lookup 0 subtable" dx=16 dy=0 dh=33 dv=0
EndChar

StartChar: Otilde
Encoding: 213 213 151
Width: 1421
GlyphClass: 2
Flags: W
AnchorPoint: "Anchor-1" 0 0 basechar 0
AnchorPoint: "Anchor-0" 825 1448 basechar 0
LayerCount: 2
Fore
SplineSet
1260 1892 m 1,0,-1
 1260 1868 l 1,1,-1
 1101 1670 l 1,2,-1
 1075 1658 l 1,3,4
 1024 1664 1024 1664 889 1701.5 c 128,-1,5
 754 1739 754 1739 725 1739 c 0,6,7
 714 1739 714 1739 702.5 1734 c 128,-1,8
 691 1729 691 1729 681.5 1722.5 c 128,-1,9
 672 1716 672 1716 659.5 1703 c 128,-1,10
 647 1690 647 1690 638 1680 c 128,-1,11
 629 1670 629 1670 613.5 1652 c 128,-1,12
 598 1634 598 1634 588 1622 c 1,13,-1
 561 1622 l 1,14,-1
 473 1709 l 1,15,-1
 473 1735 l 1,16,-1
 630 1933 l 1,17,-1
 658 1942 l 1,18,19
 702 1936 702 1936 778 1916 c 128,-1,20
 854 1896 854 1896 918 1879.5 c 128,-1,21
 982 1863 982 1863 1006 1863 c 0,22,23
 1020 1863 1020 1863 1032 1868.5 c 128,-1,24
 1044 1874 1044 1874 1059.5 1887.5 c 128,-1,25
 1075 1901 1075 1901 1084.5 1910.5 c 128,-1,26
 1094 1920 1094 1920 1115.5 1944 c 128,-1,27
 1137 1968 1137 1968 1146 1978 c 1,28,-1
 1172 1978 l 1,29,-1
 1260 1892 l 1,0,-1
832 1468 m 0,30,31
 1099 1468 1099 1468 1247 1313.5 c 128,-1,32
 1395 1159 1395 1159 1395 865 c 0,33,34
 1395 665 1395 665 1345.5 502 c 128,-1,35
 1296 339 1296 339 1202 222.5 c 128,-1,36
 1108 106 1108 106 965.5 42 c 128,-1,37
 823 -22 823 -22 645 -22 c 0,38,39
 514 -22 514 -22 410 18 c 128,-1,40
 306 58 306 58 233.5 134.5 c 128,-1,41
 161 211 161 211 122.5 327.5 c 128,-1,42
 84 444 84 444 84 593 c 0,43,44
 84 792 84 792 133.5 954 c 128,-1,45
 183 1116 183 1116 276.5 1230 c 128,-1,46
 370 1344 370 1344 511.5 1406 c 128,-1,47
 653 1468 653 1468 832 1468 c 0,30,31
798 1228 m 0,48,49
 662 1228 662 1228 573.5 1165 c 128,-1,50
 485 1102 485 1102 438.5 961.5 c 128,-1,51
 392 821 392 821 392 600 c 0,52,53
 392 394 392 394 458 300.5 c 128,-1,54
 524 207 524 207 673 207 c 0,55,56
 774 207 774 207 848.5 242.5 c 128,-1,57
 923 278 923 278 976 354 c 128,-1,58
 1029 430 1029 430 1055 551.5 c 128,-1,59
 1081 673 1081 673 1081 840 c 0,60,61
 1081 1044 1081 1044 1014 1136 c 128,-1,62
 947 1228 947 1228 798 1228 c 0,48,49
EndSplineSet
Position2: "'cpsp' Capital Spacing lookup 0 subtable" dx=16 dy=0 dh=33 dv=0
EndChar

StartChar: Odieresis
Encoding: 214 214 152
Width: 1421
GlyphClass: 2
Flags: W
AnchorPoint: "Anchor-1" 0 0 basechar 0
AnchorPoint: "Anchor-0" 825 1448 basechar 0
LayerCount: 2
Fore
SplineSet
678 1935 m 0,0,1
 739 1935 739 1935 773.5 1898.5 c 128,-1,2
 808 1862 808 1862 808 1800 c 0,3,4
 808 1730 808 1730 770.5 1690.5 c 128,-1,5
 733 1651 733 1651 667 1651 c 256,6,7
 601 1651 601 1651 566 1686.5 c 128,-1,8
 531 1722 531 1722 531 1789 c 0,9,10
 531 1833 531 1833 549 1866.5 c 128,-1,11
 567 1900 567 1900 600 1917.5 c 128,-1,12
 633 1935 633 1935 678 1935 c 0,0,1
1070 1933 m 0,13,14
 1112 1933 1112 1933 1141.5 1916.5 c 128,-1,15
 1171 1900 1171 1900 1186 1869.5 c 128,-1,16
 1201 1839 1201 1839 1201 1797 c 0,17,18
 1201 1764 1201 1764 1191 1736.5 c 128,-1,19
 1181 1709 1181 1709 1163 1689.5 c 128,-1,20
 1145 1670 1145 1670 1118.5 1659.5 c 128,-1,21
 1092 1649 1092 1649 1059 1649 c 0,22,23
 995 1649 995 1649 960.5 1684.5 c 128,-1,24
 926 1720 926 1720 926 1786 c 0,25,26
 926 1854 926 1854 964.5 1893.5 c 128,-1,27
 1003 1933 1003 1933 1070 1933 c 0,13,14
832 1468 m 0,28,29
 1099 1468 1099 1468 1247 1313.5 c 128,-1,30
 1395 1159 1395 1159 1395 865 c 0,31,32
 1395 665 1395 665 1345.5 502 c 128,-1,33
 1296 339 1296 339 1202 222.5 c 128,-1,34
 1108 106 1108 106 965.5 42 c 128,-1,35
 823 -22 823 -22 645 -22 c 0,36,37
 514 -22 514 -22 410 18 c 128,-1,38
 306 58 306 58 233.5 134.5 c 128,-1,39
 161 211 161 211 122.5 327.5 c 128,-1,40
 84 444 84 444 84 593 c 0,41,42
 84 792 84 792 133.5 954 c 128,-1,43
 183 1116 183 1116 276.5 1230 c 128,-1,44
 370 1344 370 1344 511.5 1406 c 128,-1,45
 653 1468 653 1468 832 1468 c 0,28,29
798 1228 m 0,46,47
 662 1228 662 1228 573.5 1165 c 128,-1,48
 485 1102 485 1102 438.5 961.5 c 128,-1,49
 392 821 392 821 392 600 c 0,50,51
 392 394 392 394 458 300.5 c 128,-1,52
 524 207 524 207 673 207 c 0,53,54
 774 207 774 207 848.5 242.5 c 128,-1,55
 923 278 923 278 976 354 c 128,-1,56
 1029 430 1029 430 1055 551.5 c 128,-1,57
 1081 673 1081 673 1081 840 c 0,58,59
 1081 1044 1081 1044 1014 1136 c 128,-1,60
 947 1228 947 1228 798 1228 c 0,46,47
EndSplineSet
Ligature2: "'liga' Standard Ligatures lookup 30 subtable" dieresis O
Position2: "'cpsp' Capital Spacing lookup 0 subtable" dx=16 dy=0 dh=33 dv=0
EndChar

StartChar: multiply
Encoding: 215 215 153
Width: 1083
GlyphClass: 2
Flags: W
LayerCount: 2
Fore
SplineSet
987 877 m 1,0,-1
 984 847 l 1,1,-1
 692 588 l 1,2,-1
 917 327 l 1,3,-1
 914 299 l 1,4,-1
 763 183 l 1,5,-1
 534 447 l 1,6,-1
 234 183 l 1,7,-1
 112 299 l 1,8,-1
 117 324 l 1,9,-1
 410 588 l 1,10,-1
 183 847 l 1,11,-1
 185 877 l 1,12,-1
 333 991 l 1,13,-1
 568 728 l 1,14,-1
 862 991 l 1,15,-1
 987 877 l 1,0,-1
EndSplineSet
EndChar

StartChar: Oslash
Encoding: 216 216 154
Width: 1421
GlyphClass: 2
Flags: W
AnchorPoint: "Anchor-1" 0 0 basechar 0
AnchorPoint: "Anchor-0" 797 1453 basechar 0
LayerCount: 2
Fore
SplineSet
1350 1559 m 1,0,-1
 1219 1341 l 1,1,2
 1395 1186 1395 1186 1395 865 c 0,3,4
 1395 665 1395 665 1345.5 502 c 128,-1,5
 1296 339 1296 339 1202 222.5 c 128,-1,6
 1108 106 1108 106 965.5 42 c 128,-1,7
 823 -22 823 -22 645 -22 c 0,8,9
 530 -22 530 -22 432 9 c 1,10,-1
 273 -264 l 1,11,-1
 117 -194 l 1,12,-1
 108 -169 l 1,13,-1
 268 101 l 1,14,15
 84 261 84 261 84 593 c 0,16,17
 84 792 84 792 133.5 954 c 128,-1,18
 183 1116 183 1116 276.5 1230 c 128,-1,19
 370 1344 370 1344 511.5 1406 c 128,-1,20
 653 1468 653 1468 832 1468 c 0,21,22
 954 1468 954 1468 1052 1436 c 1,23,-1
 1185 1658 l 1,24,-1
 1335 1591 l 1,25,-1
 1350 1559 l 1,0,-1
673 207 m 0,26,27
 774 207 774 207 848.5 242.5 c 128,-1,28
 923 278 923 278 976 354 c 128,-1,29
 1029 430 1029 430 1055 551.5 c 128,-1,30
 1081 673 1081 673 1081 840 c 0,31,32
 1081 1044 1081 1044 1014 1136 c 128,-1,33
 947 1228 947 1228 798 1228 c 0,34,35
 662 1228 662 1228 573.5 1165 c 128,-1,36
 485 1102 485 1102 438.5 961.5 c 128,-1,37
 392 821 392 821 392 600 c 0,38,39
 392 394 392 394 458 300.5 c 128,-1,40
 524 207 524 207 673 207 c 0,26,27
EndSplineSet
Position2: "'cpsp' Capital Spacing lookup 0 subtable" dx=16 dy=0 dh=33 dv=0
EndChar

StartChar: Ugrave
Encoding: 217 217 155
Width: 1400
GlyphClass: 2
Flags: W
AnchorPoint: "Anchor-1" 0 0 basechar 0
AnchorPoint: "Anchor-0" 815 1448 basechar 0
LayerCount: 2
Fore
SplineSet
651 1996 m 1,0,-1
 678 2003 l 1,1,2
 875 1886 875 1886 1144 1750 c 1,3,-1
 1097 1627 l 1,4,-1
 1068 1617 l 1,5,6
 759 1727 759 1727 585 1795 c 1,7,-1
 576 1823 l 1,8,-1
 651 1996 l 1,0,-1
1279 714 m 1,9,-1
 1255 525 l 1,10,11
 1226 262 1226 262 1068.5 121 c 128,-1,12
 911 -20 911 -20 638 -20 c 0,13,14
 399 -20 399 -20 265 89.5 c 128,-1,15
 131 199 131 199 131 402 c 0,16,17
 131 460 131 460 140 512 c 1,18,-1
 169 720 l 1,19,-1
 250 1449 l 1,20,-1
 546 1449 l 1,21,-1
 421 552 l 1,22,23
 417 488 417 488 417 466 c 0,24,25
 417 343 417 343 476.5 284.5 c 128,-1,26
 536 226 536 226 660 226 c 0,27,28
 804 226 804 226 883.5 301.5 c 128,-1,29
 963 377 963 377 982 536 c 1,30,-1
 1081 1449 l 1,31,-1
 1380 1449 l 1,32,-1
 1279 714 l 1,9,-1
EndSplineSet
Position2: "'cpsp' Capital Spacing lookup 0 subtable" dx=16 dy=0 dh=33 dv=0
EndChar

StartChar: Uacute
Encoding: 218 218 156
Width: 1400
GlyphClass: 2
Flags: W
AnchorPoint: "Anchor-1" 0 0 basechar 0
AnchorPoint: "Anchor-0" 815 1448 basechar 0
LayerCount: 2
Fore
SplineSet
1086 1991 m 1,0,-1
 1160 1818 l 1,1,-1
 1152 1791 l 1,2,3
 934 1706 934 1706 669 1615 c 1,4,-1
 640 1625 l 1,5,-1
 593 1746 l 1,6,7
 843 1871 843 1871 1059 1999 c 1,8,-1
 1086 1991 l 1,0,-1
1279 714 m 1,9,-1
 1255 525 l 1,10,11
 1226 262 1226 262 1068.5 121 c 128,-1,12
 911 -20 911 -20 638 -20 c 0,13,14
 399 -20 399 -20 265 89.5 c 128,-1,15
 131 199 131 199 131 402 c 0,16,17
 131 460 131 460 140 512 c 1,18,-1
 169 720 l 1,19,-1
 250 1449 l 1,20,-1
 546 1449 l 1,21,-1
 421 552 l 1,22,23
 417 488 417 488 417 466 c 0,24,25
 417 343 417 343 476.5 284.5 c 128,-1,26
 536 226 536 226 660 226 c 0,27,28
 804 226 804 226 883.5 301.5 c 128,-1,29
 963 377 963 377 982 536 c 1,30,-1
 1081 1449 l 1,31,-1
 1380 1449 l 1,32,-1
 1279 714 l 1,9,-1
EndSplineSet
Position2: "'cpsp' Capital Spacing lookup 0 subtable" dx=16 dy=0 dh=33 dv=0
EndChar

StartChar: Ucircumflex
Encoding: 219 219 157
Width: 1400
GlyphClass: 2
Flags: W
AnchorPoint: "Anchor-1" 0 0 basechar 0
AnchorPoint: "Anchor-0" 815 1448 basechar 0
LayerCount: 2
Fore
SplineSet
572 1638 m 1,0,-1
 531 1754 l 1,1,2
 723 1880 723 1880 847 1987 c 1,3,-1
 910 1987 l 1,4,5
 1019 1880 1019 1880 1189 1754 c 1,6,-1
 1122 1638 l 1,7,-1
 1092 1638 l 1,8,9
 1030 1676 1030 1676 870 1782 c 1,10,11
 831 1760 831 1760 785.5 1735.5 c 128,-1,12
 740 1711 740 1711 686 1682.5 c 128,-1,13
 632 1654 632 1654 602 1638 c 1,14,-1
 572 1638 l 1,0,-1
1279 714 m 1,15,-1
 1255 525 l 1,16,17
 1226 262 1226 262 1068.5 121 c 128,-1,18
 911 -20 911 -20 638 -20 c 0,19,20
 399 -20 399 -20 265 89.5 c 128,-1,21
 131 199 131 199 131 402 c 0,22,23
 131 460 131 460 140 512 c 1,24,-1
 169 720 l 1,25,-1
 250 1449 l 1,26,-1
 546 1449 l 1,27,-1
 421 552 l 1,28,29
 417 488 417 488 417 466 c 0,30,31
 417 343 417 343 476.5 284.5 c 128,-1,32
 536 226 536 226 660 226 c 0,33,34
 804 226 804 226 883.5 301.5 c 128,-1,35
 963 377 963 377 982 536 c 1,36,-1
 1081 1449 l 1,37,-1
 1380 1449 l 1,38,-1
 1279 714 l 1,15,-1
EndSplineSet
Position2: "'cpsp' Capital Spacing lookup 0 subtable" dx=16 dy=0 dh=33 dv=0
EndChar

StartChar: Udieresis
Encoding: 220 220 158
Width: 1400
GlyphClass: 2
Flags: W
AnchorPoint: "Anchor-1" 0 0 basechar 0
AnchorPoint: "Anchor-0" 815 1448 basechar 0
LayerCount: 2
Fore
SplineSet
669 1935 m 0,0,1
 730 1935 730 1935 765 1898.5 c 128,-1,2
 800 1862 800 1862 800 1800 c 0,3,4
 800 1730 800 1730 762 1690.5 c 128,-1,5
 724 1651 724 1651 658 1651 c 256,6,7
 592 1651 592 1651 557 1686.5 c 128,-1,8
 522 1722 522 1722 522 1789 c 256,9,10
 522 1856 522 1856 561.5 1895.5 c 128,-1,11
 601 1935 601 1935 669 1935 c 0,0,1
1062 1933 m 0,12,13
 1124 1933 1124 1933 1157.5 1897 c 128,-1,14
 1191 1861 1191 1861 1191 1797 c 0,15,16
 1191 1729 1191 1729 1153 1689 c 128,-1,17
 1115 1649 1115 1649 1049 1649 c 0,18,19
 985 1649 985 1649 951 1684.5 c 128,-1,20
 917 1720 917 1720 917 1786 c 0,21,22
 917 1854 917 1854 955.5 1893.5 c 128,-1,23
 994 1933 994 1933 1062 1933 c 0,12,13
1279 714 m 1,24,-1
 1255 525 l 1,25,26
 1226 262 1226 262 1068.5 121 c 128,-1,27
 911 -20 911 -20 638 -20 c 0,28,29
 399 -20 399 -20 265 89.5 c 128,-1,30
 131 199 131 199 131 402 c 0,31,32
 131 460 131 460 140 512 c 1,33,-1
 169 720 l 1,34,-1
 250 1449 l 1,35,-1
 546 1449 l 1,36,-1
 421 552 l 1,37,38
 417 488 417 488 417 466 c 0,39,40
 417 343 417 343 476.5 284.5 c 128,-1,41
 536 226 536 226 660 226 c 0,42,43
 804 226 804 226 883.5 301.5 c 128,-1,44
 963 377 963 377 982 536 c 1,45,-1
 1081 1449 l 1,46,-1
 1380 1449 l 1,47,-1
 1279 714 l 1,24,-1
EndSplineSet
Position2: "'cpsp' Capital Spacing lookup 0 subtable" dx=16 dy=0 dh=33 dv=0
EndChar

StartChar: Yacute
Encoding: 221 221 159
Width: 1223
GlyphClass: 2
Flags: W
AnchorPoint: "Anchor-1" 0 0 basechar 0
AnchorPoint: "Anchor-0" 728 1448 basechar 0
LayerCount: 2
Fore
SplineSet
552 1625 m 1,0,-1
 505 1746 l 1,1,2
 755 1871 755 1871 971 1999 c 1,3,-1
 998 1991 l 1,4,-1
 1072 1818 l 1,5,-1
 1064 1791 l 1,6,7
 846 1706 846 1706 581 1615 c 1,8,-1
 552 1625 l 1,0,-1
728 491 m 1,9,-1
 714 406 l 1,10,-1
 675 0 l 1,11,-1
 378 0 l 1,12,-1
 447 406 l 1,13,-1
 455 498 l 1,14,-1
 126 1449 l 1,15,-1
 434 1449 l 1,16,-1
 453 1352 l 1,17,-1
 624 793 l 1,18,-1
 647 793 l 1,19,-1
 980 1343 l 1,20,-1
 1034 1449 l 1,21,-1
 1343 1449 l 1,22,-1
 728 491 l 1,9,-1
EndSplineSet
Ligature2: "'liga' Standard Ligatures lookup 30 subtable" acute Y
Position2: "'cpsp' Capital Spacing lookup 0 subtable" dx=16 dy=0 dh=33 dv=0
EndChar

StartChar: Thorn
Encoding: 222 222 160
Width: 1232
GlyphClass: 2
Flags: W
LayerCount: 2
Fore
SplineSet
561 1221 m 1,0,-1
 795 1221 l 2,1,2
 996 1221 996 1221 1109.5 1123 c 128,-1,3
 1223 1025 1223 1025 1223 838 c 0,4,5
 1223 710 1223 710 1178.5 600 c 128,-1,6
 1134 490 1134 490 1053 411.5 c 128,-1,7
 972 333 972 333 853.5 288 c 128,-1,8
 735 243 735 243 593 243 c 2,9,-1
 432 243 l 1,10,-1
 410 0 l 1,11,-1
 110 0 l 1,12,-1
 178 432 l 1,13,-1
 290 1449 l 1,14,-1
 593 1449 l 1,15,-1
 561 1221 l 1,0,-1
455 471 m 1,16,-1
 685 462 l 1,17,18
 794 489 794 489 854 576 c 128,-1,19
 914 663 914 663 914 793 c 0,20,21
 914 895 914 895 863.5 945.5 c 128,-1,22
 813 996 813 996 698 1002 c 1,23,-1
 529 993 l 1,24,-1
 455 471 l 1,16,-1
EndSplineSet
Position2: "'cpsp' Capital Spacing lookup 0 subtable" dx=16 dy=0 dh=33 dv=0
EndChar

StartChar: germandbls
Encoding: 223 223 161
Width: 1326
GlyphClass: 2
Flags: W
LayerCount: 2
Fore
SplineSet
937 800 m 0,0,1
 937 771 937 771 951.5 744.5 c 128,-1,2
 966 718 966 718 989.5 697 c 128,-1,3
 1013 676 1013 676 1043 652 c 128,-1,4
 1073 628 1073 628 1104 606 c 128,-1,5
 1135 584 1135 584 1165 554.5 c 128,-1,6
 1195 525 1195 525 1218.5 494 c 128,-1,7
 1242 463 1242 463 1256 420 c 128,-1,8
 1270 377 1270 377 1270 329 c 0,9,10
 1270 230 1270 230 1213.5 150 c 128,-1,11
 1157 70 1157 70 1056.5 25 c 128,-1,12
 956 -20 956 -20 832 -20 c 1,13,14
 694 -7 694 -7 563 50 c 1,15,-1
 624 282 l 1,16,-1
 656 297 l 1,17,18
 713 229 713 229 778 192 c 128,-1,19
 843 155 843 155 903 155 c 0,20,21
 959 155 959 155 994.5 188 c 128,-1,22
 1030 221 1030 221 1030 266 c 0,23,24
 1030 295 1030 295 1011.5 323 c 128,-1,25
 993 351 993 351 963.5 375.5 c 128,-1,26
 934 400 934 400 898 426 c 128,-1,27
 862 452 862 452 826 483.5 c 128,-1,28
 790 515 790 515 760 550.5 c 128,-1,29
 730 586 730 586 712 635.5 c 128,-1,30
 694 685 694 685 694 741 c 0,31,32
 694 796 694 796 708 843.5 c 128,-1,33
 722 891 722 891 744.5 925.5 c 128,-1,34
 767 960 767 960 794 991 c 128,-1,35
 821 1022 821 1022 848 1050 c 128,-1,36
 875 1078 875 1078 897.5 1105.5 c 128,-1,37
 920 1133 920 1133 934 1168 c 128,-1,38
 948 1203 948 1203 948 1241 c 0,39,40
 948 1374 948 1374 791 1374 c 0,41,42
 730 1374 730 1374 683.5 1355.5 c 128,-1,43
 637 1337 637 1337 603 1293 c 128,-1,44
 569 1249 569 1249 557 1182 c 1,45,-1
 458 460 l 1,46,-1
 394 -4 l 1,47,-1
 385 -248 l 1,48,-1
 108 -268 l 1,49,-1
 205 428 l 1,50,-1
 260 858 l 1,51,-1
 108 858 l 1,52,-1
 95 877 l 1,53,-1
 114 1025 l 1,54,-1
 279 1025 l 1,55,-1
 293 1126 l 1,56,57
 320 1345 320 1345 458 1465.5 c 128,-1,58
 596 1586 596 1586 820 1586 c 0,59,60
 881 1586 881 1586 934.5 1576.5 c 128,-1,61
 988 1567 988 1567 1030.5 1549 c 128,-1,62
 1073 1531 1073 1531 1106 1505 c 128,-1,63
 1139 1479 1139 1479 1161 1446 c 128,-1,64
 1183 1413 1183 1413 1194.5 1374 c 128,-1,65
 1206 1335 1206 1335 1206 1291 c 0,66,67
 1206 1239 1206 1239 1191 1192 c 128,-1,68
 1176 1145 1176 1145 1152.5 1110 c 128,-1,69
 1129 1075 1129 1075 1100 1043.5 c 128,-1,70
 1071 1012 1071 1012 1042.5 983.5 c 128,-1,71
 1014 955 1014 955 990.5 927.5 c 128,-1,72
 967 900 967 900 952 867 c 128,-1,73
 937 834 937 834 937 800 c 0,0,1
EndSplineSet
Substitution2: "Single Substitution lookup 41 subtable" germandbls.calt
Substitution2: "'case' Case-Sensitive Forms lookup 28 subtable" Germandbls
Substitution2: "'aalt' Access All Alternates lookup 0 subtable" Germandbls
EndChar

StartChar: agrave
Encoding: 224 224 162
Width: 1038
GlyphClass: 2
Flags: W
AnchorPoint: "Anchor-1" 0 0 basechar 0
AnchorPoint: "Anchor-0" 574 1047 basechar 0
LayerCount: 2
Fore
SplineSet
784 1176 m 1,0,-1
 757 1174 l 1,1,2
 565 1285 565 1285 322 1442 c 1,3,-1
 316 1468 l 1,4,-1
 421 1627 l 1,5,-1
 449 1629 l 1,6,7
 661 1437 661 1437 856 1286 c 1,8,-1
 784 1176 l 1,0,-1
961 1052 m 1,9,-1
 854 252 l 1,10,-1
 845 11 l 1,11,-1
 568 -9 l 1,12,-1
 617 346 l 1,13,-1
 591 346 l 1,14,15
 471 134 471 134 324 -20 c 1,16,-1
 282 -20 l 1,17,18
 158 26 158 26 104 116 c 128,-1,19
 50 206 50 206 50 346 c 0,20,21
 50 435 50 435 70 523.5 c 128,-1,22
 90 612 90 612 133 698 c 128,-1,23
 176 784 176 784 237.5 855.5 c 128,-1,24
 299 927 299 927 388 981.5 c 128,-1,25
 477 1036 477 1036 583 1062 c 1,26,-1
 597 1062 l 1,27,-1
 770 1014 l 1,28,-1
 939 1068 l 1,29,-1
 961 1052 l 1,9,-1
359 252 m 0,30,31
 400 252 400 252 489 386 c 128,-1,32
 578 520 578 520 675 757 c 1,33,-1
 680 798 l 1,34,-1
 680 802 l 1,35,-1
 534 849 l 1,36,37
 462 849 462 849 409.5 796.5 c 128,-1,38
 357 744 357 744 330.5 653 c 128,-1,39
 304 562 304 562 304 443 c 0,40,41
 304 391 304 391 308.5 352 c 128,-1,42
 313 313 313 313 321 292 c 128,-1,43
 329 271 329 271 338.5 261.5 c 128,-1,44
 348 252 348 252 359 252 c 0,30,31
EndSplineSet
Substitution2: "'case' Case-Sensitive Forms lookup 28 subtable" Agrave
Substitution2: "'aalt' Access All Alternates lookup 0 subtable" Agrave
EndChar

StartChar: aacute
Encoding: 225 225 163
Width: 1038
GlyphClass: 2
Flags: W
AnchorPoint: "Anchor-1" 0 0 basechar 0
AnchorPoint: "Anchor-0" 574 1047 basechar 0
LayerCount: 2
Fore
SplineSet
421 1176 m 1,0,-1
 349 1286 l 1,1,2
 559 1450 559 1450 755 1629 c 1,3,-1
 784 1627 l 1,4,-1
 890 1468 l 1,5,-1
 883 1442 l 1,6,7
 641 1285 641 1285 449 1174 c 1,8,-1
 421 1176 l 1,0,-1
961 1052 m 1,9,-1
 854 252 l 1,10,-1
 845 11 l 1,11,-1
 568 -9 l 1,12,-1
 617 346 l 1,13,-1
 591 346 l 1,14,15
 471 134 471 134 324 -20 c 1,16,-1
 282 -20 l 1,17,18
 158 26 158 26 104 116 c 128,-1,19
 50 206 50 206 50 346 c 0,20,21
 50 435 50 435 70 523.5 c 128,-1,22
 90 612 90 612 133 698 c 128,-1,23
 176 784 176 784 237.5 855.5 c 128,-1,24
 299 927 299 927 388 981.5 c 128,-1,25
 477 1036 477 1036 583 1062 c 1,26,-1
 597 1062 l 1,27,-1
 770 1014 l 1,28,-1
 939 1068 l 1,29,-1
 961 1052 l 1,9,-1
359 252 m 0,30,31
 400 252 400 252 489 386 c 128,-1,32
 578 520 578 520 675 757 c 1,33,-1
 680 798 l 1,34,-1
 680 802 l 1,35,-1
 534 849 l 1,36,37
 462 849 462 849 409.5 796.5 c 128,-1,38
 357 744 357 744 330.5 653 c 128,-1,39
 304 562 304 562 304 443 c 0,40,41
 304 391 304 391 308.5 352 c 128,-1,42
 313 313 313 313 321 292 c 128,-1,43
 329 271 329 271 338.5 261.5 c 128,-1,44
 348 252 348 252 359 252 c 0,30,31
EndSplineSet
Substitution2: "'case' Case-Sensitive Forms lookup 28 subtable" Aacute
Substitution2: "'aalt' Access All Alternates lookup 0 subtable" Aacute
EndChar

StartChar: acircumflex
Encoding: 226 226 164
Width: 1038
GlyphClass: 2
Flags: W
AnchorPoint: "Anchor-1" 0 0 basechar 0
AnchorPoint: "Anchor-0" 574 1047 basechar 0
LayerCount: 2
Fore
SplineSet
331 1187 m 1,0,-1
 273 1298 l 1,1,2
 310 1330 310 1330 357.5 1372.5 c 128,-1,3
 405 1415 405 1415 436 1443.5 c 128,-1,4
 467 1472 467 1472 532 1532 c 128,-1,5
 597 1592 597 1592 622 1615 c 1,6,-1
 685 1615 l 1,7,8
 811 1452 811 1452 961 1298 c 1,9,-1
 874 1187 l 1,10,-1
 845 1187 l 1,11,12
 702 1314 702 1314 628 1397 c 1,13,14
 531 1312 531 1312 361 1187 c 1,15,-1
 331 1187 l 1,0,-1
939 1068 m 1,16,-1
 961 1052 l 1,17,-1
 854 252 l 1,18,-1
 845 11 l 1,19,-1
 568 -9 l 1,20,-1
 617 346 l 1,21,-1
 591 346 l 1,22,23
 471 134 471 134 324 -20 c 1,24,-1
 282 -20 l 1,25,26
 158 26 158 26 104 116 c 128,-1,27
 50 206 50 206 50 346 c 0,28,29
 50 435 50 435 70 523.5 c 128,-1,30
 90 612 90 612 133 698 c 128,-1,31
 176 784 176 784 237.5 855.5 c 128,-1,32
 299 927 299 927 388 981.5 c 128,-1,33
 477 1036 477 1036 583 1062 c 1,34,-1
 597 1062 l 1,35,-1
 770 1014 l 1,36,-1
 939 1068 l 1,16,-1
359 252 m 0,37,38
 400 252 400 252 489 386 c 128,-1,39
 578 520 578 520 675 757 c 1,40,-1
 680 798 l 1,41,-1
 680 802 l 1,42,-1
 534 849 l 1,43,44
 462 849 462 849 409.5 796.5 c 128,-1,45
 357 744 357 744 330.5 653 c 128,-1,46
 304 562 304 562 304 443 c 0,47,48
 304 391 304 391 308.5 352 c 128,-1,49
 313 313 313 313 321 292 c 128,-1,50
 329 271 329 271 338.5 261.5 c 128,-1,51
 348 252 348 252 359 252 c 0,37,38
EndSplineSet
Substitution2: "'case' Case-Sensitive Forms lookup 28 subtable" Acircumflex
Substitution2: "'aalt' Access All Alternates lookup 0 subtable" Acircumflex
EndChar

StartChar: atilde
Encoding: 227 227 165
Width: 1038
GlyphClass: 2
Flags: W
AnchorPoint: "Anchor-1" 0 0 basechar 0
AnchorPoint: "Anchor-0" 574 1047 basechar 0
LayerCount: 2
Fore
SplineSet
1010 1492 m 1,0,-1
 1010 1466 l 1,1,-1
 851 1268 l 1,2,-1
 825 1257 l 1,3,4
 774 1264 774 1264 639.5 1301.5 c 128,-1,5
 505 1339 505 1339 475 1339 c 0,6,7
 462 1339 462 1339 449.5 1333.5 c 128,-1,8
 437 1328 437 1328 422 1314 c 128,-1,9
 407 1300 407 1300 397 1289.5 c 128,-1,10
 387 1279 387 1279 367.5 1255.5 c 128,-1,11
 348 1232 348 1232 338 1221 c 1,12,-1
 311 1221 l 1,13,-1
 223 1309 l 1,14,-1
 223 1333 l 1,15,-1
 381 1532 l 1,16,-1
 408 1541 l 1,17,18
 461 1535 461 1535 594.5 1498.5 c 128,-1,19
 728 1462 728 1462 757 1462 c 0,20,21
 770 1462 770 1462 782.5 1467.5 c 128,-1,22
 795 1473 795 1473 810 1486.5 c 128,-1,23
 825 1500 825 1500 835 1510 c 128,-1,24
 845 1520 845 1520 865.5 1543 c 128,-1,25
 886 1566 886 1566 896 1577 c 1,26,-1
 922 1577 l 1,27,-1
 1010 1492 l 1,0,-1
939 1068 m 1,28,-1
 961 1052 l 1,29,-1
 854 252 l 1,30,-1
 845 11 l 1,31,-1
 568 -9 l 1,32,-1
 617 346 l 1,33,-1
 591 346 l 1,34,35
 471 134 471 134 324 -20 c 1,36,-1
 282 -20 l 1,37,38
 158 26 158 26 104 116 c 128,-1,39
 50 206 50 206 50 346 c 0,40,41
 50 435 50 435 70 523.5 c 128,-1,42
 90 612 90 612 133 698 c 128,-1,43
 176 784 176 784 237.5 855.5 c 128,-1,44
 299 927 299 927 388 981.5 c 128,-1,45
 477 1036 477 1036 583 1062 c 1,46,-1
 597 1062 l 1,47,-1
 770 1014 l 1,48,-1
 939 1068 l 1,28,-1
359 252 m 0,49,50
 400 252 400 252 489 386 c 128,-1,51
 578 520 578 520 675 757 c 1,52,-1
 680 798 l 1,53,-1
 680 802 l 1,54,-1
 534 849 l 1,55,56
 462 849 462 849 409.5 796.5 c 128,-1,57
 357 744 357 744 330.5 653 c 128,-1,58
 304 562 304 562 304 443 c 0,59,60
 304 391 304 391 308.5 352 c 128,-1,61
 313 313 313 313 321 292 c 128,-1,62
 329 271 329 271 338.5 261.5 c 128,-1,63
 348 252 348 252 359 252 c 0,49,50
EndSplineSet
Substitution2: "'case' Case-Sensitive Forms lookup 28 subtable" Atilde
Substitution2: "'aalt' Access All Alternates lookup 0 subtable" Atilde
EndChar

StartChar: adieresis
Encoding: 228 228 166
Width: 1038
GlyphClass: 2
Flags: W
AnchorPoint: "Anchor-1" 0 0 basechar 0
AnchorPoint: "Anchor-0" 574 1047 basechar 0
LayerCount: 2
Fore
SplineSet
415 1251 m 0,0,1
 349 1251 349 1251 314 1286.5 c 128,-1,2
 279 1322 279 1322 279 1388 c 0,3,4
 279 1456 279 1456 318.5 1495 c 128,-1,5
 358 1534 358 1534 426 1534 c 0,6,7
 487 1534 487 1534 522 1498 c 128,-1,8
 557 1462 557 1462 557 1399 c 0,9,10
 557 1353 557 1353 539.5 1319.5 c 128,-1,11
 522 1286 522 1286 490 1268.5 c 128,-1,12
 458 1251 458 1251 415 1251 c 0,0,1
806 1248 m 0,13,14
 742 1248 742 1248 707.5 1284 c 128,-1,15
 673 1320 673 1320 673 1386 c 0,16,17
 673 1454 673 1454 711.5 1493 c 128,-1,18
 750 1532 750 1532 817 1532 c 0,19,20
 880 1532 880 1532 914 1496 c 128,-1,21
 948 1460 948 1460 948 1397 c 0,22,23
 948 1329 948 1329 910 1288.5 c 128,-1,24
 872 1248 872 1248 806 1248 c 0,13,14
961 1052 m 1,25,-1
 854 252 l 1,26,-1
 845 11 l 1,27,-1
 568 -9 l 1,28,-1
 617 346 l 1,29,-1
 591 346 l 1,30,31
 471 134 471 134 324 -20 c 1,32,-1
 282 -20 l 1,33,34
 158 26 158 26 104 116 c 128,-1,35
 50 206 50 206 50 346 c 0,36,37
 50 435 50 435 70 523.5 c 128,-1,38
 90 612 90 612 133 698 c 128,-1,39
 176 784 176 784 237.5 855.5 c 128,-1,40
 299 927 299 927 388 981.5 c 128,-1,41
 477 1036 477 1036 583 1062 c 1,42,-1
 597 1062 l 1,43,-1
 770 1014 l 1,44,-1
 939 1068 l 1,45,-1
 961 1052 l 1,25,-1
359 252 m 0,46,47
 400 252 400 252 489 386 c 128,-1,48
 578 520 578 520 675 757 c 1,49,-1
 680 798 l 1,50,-1
 680 802 l 1,51,-1
 534 849 l 1,52,53
 462 849 462 849 409.5 796.5 c 128,-1,54
 357 744 357 744 330.5 653 c 128,-1,55
 304 562 304 562 304 443 c 0,56,57
 304 391 304 391 308.5 352 c 128,-1,58
 313 313 313 313 321 292 c 128,-1,59
 329 271 329 271 338.5 261.5 c 128,-1,60
 348 252 348 252 359 252 c 0,46,47
EndSplineSet
Substitution2: "'case' Case-Sensitive Forms lookup 28 subtable" Adieresis
Substitution2: "'aalt' Access All Alternates lookup 0 subtable" Adieresis
EndChar

StartChar: aring
Encoding: 229 229 167
Width: 1038
GlyphClass: 2
Flags: W
AnchorPoint: "Anchor-1" 0 0 basechar 0
AnchorPoint: "Anchor-0" 574 1047 basechar 0
LayerCount: 2
Fore
SplineSet
613 1206 m 0,0,1
 515 1206 515 1206 460.5 1260.5 c 128,-1,2
 406 1315 406 1315 406 1417 c 256,3,4
 406 1519 406 1519 462 1575 c 128,-1,5
 518 1631 518 1631 624 1631 c 0,6,7
 725 1631 725 1631 779.5 1576.5 c 128,-1,8
 834 1522 834 1522 834 1426 c 0,9,10
 834 1321 834 1321 774 1263.5 c 128,-1,11
 714 1206 714 1206 613 1206 c 0,0,1
617 1505 m 0,12,13
 527 1505 527 1505 527 1421 c 0,14,15
 527 1329 527 1329 619.5 1329 c 128,-1,16
 712 1329 712 1329 712 1415 c 0,17,18
 712 1458 712 1458 688.5 1481.5 c 128,-1,19
 665 1505 665 1505 617 1505 c 0,12,13
961 1052 m 1,20,-1
 854 252 l 1,21,-1
 845 11 l 1,22,-1
 568 -9 l 1,23,-1
 617 346 l 1,24,-1
 591 346 l 1,25,26
 471 134 471 134 324 -20 c 1,27,-1
 282 -20 l 1,28,29
 158 26 158 26 104 116 c 128,-1,30
 50 206 50 206 50 346 c 0,31,32
 50 435 50 435 70 523.5 c 128,-1,33
 90 612 90 612 133 698 c 128,-1,34
 176 784 176 784 237.5 855.5 c 128,-1,35
 299 927 299 927 388 981.5 c 128,-1,36
 477 1036 477 1036 583 1062 c 1,37,-1
 597 1062 l 1,38,-1
 770 1014 l 1,39,-1
 939 1068 l 1,40,-1
 961 1052 l 1,20,-1
359 252 m 0,41,42
 400 252 400 252 489 386 c 128,-1,43
 578 520 578 520 675 757 c 1,44,-1
 680 798 l 1,45,-1
 680 802 l 1,46,-1
 534 849 l 1,47,48
 462 849 462 849 409.5 796.5 c 128,-1,49
 357 744 357 744 330.5 653 c 128,-1,50
 304 562 304 562 304 443 c 0,51,52
 304 391 304 391 308.5 352 c 128,-1,53
 313 313 313 313 321 292 c 128,-1,54
 329 271 329 271 338.5 261.5 c 128,-1,55
 348 252 348 252 359 252 c 0,41,42
EndSplineSet
Substitution2: "'case' Case-Sensitive Forms lookup 28 subtable" Aring
Substitution2: "'aalt' Access All Alternates lookup 0 subtable" Aring
EndChar

StartChar: ae
Encoding: 230 230 168
Width: 1447
GlyphClass: 2
Flags: W
AnchorPoint: "Anchor-1" 1461 0 basechar 0
AnchorPoint: "Anchor-0" 822 1047 basechar 0
LayerCount: 2
Fore
SplineSet
608 1062 m 1,0,-1
 894 982 l 1,1,2
 1016 1062 1016 1062 1174 1068 c 1,3,-1
 1203 1066 l 1,4,5
 1310 1046 1310 1046 1370 986 c 128,-1,6
 1430 926 1430 926 1430 825 c 0,7,8
 1430 691 1430 691 1299 586 c 128,-1,9
 1168 481 1168 481 877 396 c 1,10,11
 877 378 877 378 879 365 c 0,12,13
 887 279 887 279 917.5 238.5 c 128,-1,14
 948 198 948 198 1004 198 c 0,15,16
 1075 198 1075 198 1141 246.5 c 128,-1,17
 1207 295 1207 295 1253 378 c 1,18,-1
 1288 374 l 1,19,-1
 1378 256 l 1,20,21
 1212 40 1212 40 993 -20 c 1,22,-1
 961 -20 l 1,23,24
 875 -10 875 -10 812.5 17.5 c 128,-1,25
 750 45 750 45 710.5 90.5 c 128,-1,26
 671 136 671 136 650 195 c 128,-1,27
 629 254 629 254 622 333 c 0,28,29
 622 334 622 334 619.5 344 c 128,-1,30
 617 354 617 354 617 356 c 1,31,32
 477 126 477 126 331 -20 c 1,33,-1
 290 -20 l 1,34,35
 165 25 165 25 110.5 116.5 c 128,-1,36
 56 208 56 208 56 344 c 0,37,38
 56 434 56 434 76.5 523.5 c 128,-1,39
 97 613 97 613 141 699.5 c 128,-1,40
 185 786 185 786 247.5 857 c 128,-1,41
 310 928 310 928 399.5 982.5 c 128,-1,42
 489 1037 489 1037 595 1062 c 1,43,-1
 608 1062 l 1,0,-1
1101 886 m 0,44,45
 1010 886 1010 886 951.5 801.5 c 128,-1,46
 893 717 893 717 877 565 c 1,47,48
 1036 611 1036 611 1112.5 670 c 128,-1,49
 1189 729 1189 729 1189 806 c 0,50,51
 1189 886 1189 886 1101 886 c 0,44,45
714 795 m 1,52,-1
 548 851 l 1,53,54
 473 851 473 851 418.5 798 c 128,-1,55
 364 745 364 745 336.5 653.5 c 128,-1,56
 309 562 309 562 309 443 c 0,57,58
 309 252 309 252 365 252 c 0,59,60
 407 252 407 252 494 376.5 c 128,-1,61
 581 501 581 501 675 720 c 0,62,63
 690 755 690 755 714 795 c 1,52,-1
EndSplineSet
Substitution2: "'case' Case-Sensitive Forms lookup 28 subtable" AE
Substitution2: "'aalt' Access All Alternates lookup 0 subtable" AE
EndChar

StartChar: ccedilla
Encoding: 231 231 169
Width: 794
GlyphClass: 2
Flags: W
AnchorPoint: "Anchor-1" 412 0 basechar 0
AnchorPoint: "Anchor-0" 535 1047 basechar 0
LayerCount: 2
Fore
SplineSet
645 385 m 1,0,-1
 733 273 l 1,1,2
 668 165 668 165 600.5 101 c 128,-1,3
 533 37 533 37 443 0 c 1,4,-1
 417 -106 l 1,5,-1
 494 -148 l 2,6,7
 544 -176 544 -176 564.5 -208.5 c 128,-1,8
 585 -241 585 -241 585 -282 c 0,9,10
 585 -356 585 -356 528 -403.5 c 128,-1,11
 471 -451 471 -451 376 -451 c 0,12,13
 277 -451 277 -451 191 -385 c 1,14,-1
 214 -262 l 1,15,-1
 228 -256 l 1,16,17
 296 -324 296 -324 359 -324 c 0,18,19
 385 -324 385 -324 400 -311.5 c 128,-1,20
 415 -299 415 -299 415 -275 c 0,21,22
 415 -249 415 -249 376 -230 c 1,23,-1
 266 -167 l 1,24,-1
 301 -7 l 1,25,26
 169 26 169 26 110.5 116 c 128,-1,27
 52 206 52 206 52 381 c 0,28,29
 52 491 52 491 73 591 c 128,-1,30
 94 691 94 691 139.5 778 c 128,-1,31
 185 865 185 865 251.5 928 c 128,-1,32
 318 991 318 991 414 1027.5 c 128,-1,33
 510 1064 510 1064 626 1064 c 1,34,-1
 795 1012 l 1,35,-1
 806 980 l 1,36,-1
 730 770 l 1,37,-1
 671 766 l 1,38,39
 630 814 630 814 599.5 832.5 c 128,-1,40
 569 851 569 851 529 851 c 0,41,42
 426 851 426 851 371 743 c 128,-1,43
 316 635 316 635 316 434 c 0,44,45
 316 316 316 316 340.5 266.5 c 128,-1,46
 365 217 365 217 421 217 c 0,47,48
 450 217 450 217 476.5 230 c 128,-1,49
 503 243 503 243 537 282 c 128,-1,50
 571 321 571 321 608 387 c 1,51,-1
 645 385 l 1,0,-1
EndSplineSet
Substitution2: "'case' Case-Sensitive Forms lookup 28 subtable" Ccedilla
Substitution2: "'aalt' Access All Alternates lookup 0 subtable" Ccedilla
EndChar

StartChar: egrave
Encoding: 232 232 170
Width: 905
GlyphClass: 2
Flags: W
AnchorPoint: "Anchor-1" 423 0 basechar 0
AnchorPoint: "Anchor-0" 535 1047 basechar 0
LayerCount: 2
Fore
SplineSet
748 1176 m 1,0,-1
 720 1174 l 1,1,2
 528 1285 528 1285 286 1442 c 1,3,-1
 279 1468 l 1,4,-1
 385 1627 l 1,5,-1
 412 1629 l 1,6,7
 625 1437 625 1437 820 1286 c 1,8,-1
 748 1176 l 1,0,-1
723 376 m 1,9,-1
 815 256 l 1,10,11
 649 40 649 40 430 -20 c 1,12,-1
 398 -20 l 1,13,14
 220 -1 220 -1 137 98.5 c 128,-1,15
 54 198 54 198 54 376 c 0,16,17
 54 573 54 573 121.5 727 c 128,-1,18
 189 881 189 881 316 971 c 128,-1,19
 443 1061 443 1061 610 1068 c 1,20,-1
 638 1066 l 1,21,22
 747 1046 747 1046 807 986.5 c 128,-1,23
 867 927 867 927 867 825 c 0,24,25
 867 691 867 691 736.5 586.5 c 128,-1,26
 606 482 606 482 316 394 c 1,27,28
 322 290 322 290 353.5 245 c 128,-1,29
 385 200 385 200 447 200 c 0,30,31
 513 200 513 200 576.5 248.5 c 128,-1,32
 640 297 640 297 688 381 c 1,33,-1
 723 376 l 1,9,-1
538 883 m 0,34,35
 450 883 450 883 392.5 801 c 128,-1,36
 335 719 335 719 320 570 c 1,37,38
 473 614 473 614 547.5 671.5 c 128,-1,39
 622 729 622 729 622 806 c 0,40,41
 622 845 622 845 601.5 864 c 128,-1,42
 581 883 581 883 538 883 c 0,34,35
EndSplineSet
Substitution2: "'case' Case-Sensitive Forms lookup 28 subtable" Egrave
Substitution2: "'aalt' Access All Alternates lookup 0 subtable" Egrave
EndChar

StartChar: eacute
Encoding: 233 233 171
Width: 905
GlyphClass: 2
Flags: W
AnchorPoint: "Anchor-1" 423 0 basechar 0
AnchorPoint: "Anchor-0" 535 1047 basechar 0
LayerCount: 2
Fore
SplineSet
383 1176 m 1,0,-1
 311 1286 l 1,1,2
 514 1444 514 1444 716 1629 c 1,3,-1
 746 1627 l 1,4,-1
 851 1468 l 1,5,-1
 845 1442 l 1,6,7
 602 1285 602 1285 410 1174 c 1,8,-1
 383 1176 l 1,0,-1
723 376 m 1,9,-1
 815 256 l 1,10,11
 649 40 649 40 430 -20 c 1,12,-1
 398 -20 l 1,13,14
 220 -1 220 -1 137 98.5 c 128,-1,15
 54 198 54 198 54 376 c 0,16,17
 54 573 54 573 121.5 727 c 128,-1,18
 189 881 189 881 316 971 c 128,-1,19
 443 1061 443 1061 610 1068 c 1,20,-1
 638 1066 l 1,21,22
 747 1046 747 1046 807 986.5 c 128,-1,23
 867 927 867 927 867 825 c 0,24,25
 867 691 867 691 736.5 586.5 c 128,-1,26
 606 482 606 482 316 394 c 1,27,28
 322 290 322 290 353.5 245 c 128,-1,29
 385 200 385 200 447 200 c 0,30,31
 513 200 513 200 576.5 248.5 c 128,-1,32
 640 297 640 297 688 381 c 1,33,-1
 723 376 l 1,9,-1
538 883 m 0,34,35
 450 883 450 883 392.5 801 c 128,-1,36
 335 719 335 719 320 570 c 1,37,38
 473 614 473 614 547.5 671.5 c 128,-1,39
 622 729 622 729 622 806 c 0,40,41
 622 845 622 845 601.5 864 c 128,-1,42
 581 883 581 883 538 883 c 0,34,35
EndSplineSet
Substitution2: "'case' Case-Sensitive Forms lookup 28 subtable" Eacute
Substitution2: "'aalt' Access All Alternates lookup 0 subtable" Eacute
EndChar

StartChar: ecircumflex
Encoding: 234 234 172
Width: 905
GlyphClass: 2
Flags: W
AnchorPoint: "Anchor-1" 423 0 basechar 0
AnchorPoint: "Anchor-0" 535 1047 basechar 0
LayerCount: 2
Fore
SplineSet
293 1187 m 1,0,-1
 234 1298 l 1,1,2
 272 1330 272 1330 319 1372.5 c 128,-1,3
 366 1415 366 1415 397 1443.5 c 128,-1,4
 428 1472 428 1472 493.5 1532 c 128,-1,5
 559 1592 559 1592 583 1615 c 1,6,-1
 647 1615 l 1,7,8
 768 1457 768 1457 924 1298 c 1,9,-1
 836 1187 l 1,10,-1
 806 1187 l 1,11,12
 669 1309 669 1309 591 1397 c 1,13,14
 500 1318 500 1318 322 1187 c 1,15,-1
 293 1187 l 1,0,-1
867 825 m 0,16,17
 867 691 867 691 736.5 586.5 c 128,-1,18
 606 482 606 482 316 394 c 1,19,20
 322 290 322 290 353.5 245 c 128,-1,21
 385 200 385 200 447 200 c 0,22,23
 513 200 513 200 576.5 248.5 c 128,-1,24
 640 297 640 297 688 381 c 1,25,-1
 723 376 l 1,26,-1
 815 256 l 1,27,28
 649 40 649 40 430 -20 c 1,29,-1
 398 -20 l 1,30,31
 220 -1 220 -1 137 98.5 c 128,-1,32
 54 198 54 198 54 376 c 0,33,34
 54 573 54 573 121.5 727 c 128,-1,35
 189 881 189 881 316 971 c 128,-1,36
 443 1061 443 1061 610 1068 c 1,37,-1
 638 1066 l 1,38,39
 747 1046 747 1046 807 986.5 c 128,-1,40
 867 927 867 927 867 825 c 0,16,17
320 570 m 1,41,42
 473 614 473 614 547.5 671.5 c 128,-1,43
 622 729 622 729 622 806 c 0,44,45
 622 845 622 845 601.5 864 c 128,-1,46
 581 883 581 883 538 883 c 0,47,48
 450 883 450 883 392.5 801 c 128,-1,49
 335 719 335 719 320 570 c 1,41,42
EndSplineSet
Substitution2: "'case' Case-Sensitive Forms lookup 28 subtable" Ecircumflex
Substitution2: "'aalt' Access All Alternates lookup 0 subtable" Ecircumflex
EndChar

StartChar: edieresis
Encoding: 235 235 173
Width: 905
GlyphClass: 2
Flags: W
AnchorPoint: "Anchor-1" 423 0 basechar 0
AnchorPoint: "Anchor-0" 535 1047 basechar 0
LayerCount: 2
Fore
SplineSet
376 1251 m 0,0,1
 310 1251 310 1251 275.5 1286.5 c 128,-1,2
 241 1322 241 1322 241 1388 c 0,3,4
 241 1456 241 1456 280.5 1495 c 128,-1,5
 320 1534 320 1534 387 1534 c 0,6,7
 448 1534 448 1534 483 1498 c 128,-1,8
 518 1462 518 1462 518 1399 c 0,9,10
 518 1353 518 1353 501 1319.5 c 128,-1,11
 484 1286 484 1286 452 1268.5 c 128,-1,12
 420 1251 420 1251 376 1251 c 0,0,1
780 1532 m 0,13,14
 842 1532 842 1532 876 1496 c 128,-1,15
 910 1460 910 1460 910 1397 c 0,16,17
 910 1329 910 1329 871.5 1288.5 c 128,-1,18
 833 1248 833 1248 768 1248 c 0,19,20
 704 1248 704 1248 670 1284 c 128,-1,21
 636 1320 636 1320 636 1386 c 0,22,23
 636 1454 636 1454 674 1493 c 128,-1,24
 712 1532 712 1532 780 1532 c 0,13,14
867 825 m 0,25,26
 867 691 867 691 736.5 586.5 c 128,-1,27
 606 482 606 482 316 394 c 1,28,29
 322 290 322 290 353.5 245 c 128,-1,30
 385 200 385 200 447 200 c 0,31,32
 513 200 513 200 576.5 248.5 c 128,-1,33
 640 297 640 297 688 381 c 1,34,-1
 723 376 l 1,35,-1
 815 256 l 1,36,37
 649 40 649 40 430 -20 c 1,38,-1
 398 -20 l 1,39,40
 220 -1 220 -1 137 98.5 c 128,-1,41
 54 198 54 198 54 376 c 0,42,43
 54 573 54 573 121.5 727 c 128,-1,44
 189 881 189 881 316 971 c 128,-1,45
 443 1061 443 1061 610 1068 c 1,46,-1
 638 1066 l 1,47,48
 747 1046 747 1046 807 986.5 c 128,-1,49
 867 927 867 927 867 825 c 0,25,26
320 570 m 1,50,51
 473 614 473 614 547.5 671.5 c 128,-1,52
 622 729 622 729 622 806 c 0,53,54
 622 845 622 845 601.5 864 c 128,-1,55
 581 883 581 883 538 883 c 0,56,57
 450 883 450 883 392.5 801 c 128,-1,58
 335 719 335 719 320 570 c 1,50,51
EndSplineSet
Substitution2: "'case' Case-Sensitive Forms lookup 28 subtable" Edieresis
Substitution2: "'aalt' Access All Alternates lookup 0 subtable" Edieresis
EndChar

StartChar: igrave
Encoding: 236 236 174
Width: 531
GlyphClass: 2
Flags: W
AnchorPoint: "Anchor-1" 0 0 basechar 0
AnchorPoint: "Anchor-0" 326 1045 basechar 0
LayerCount: 2
Fore
SplineSet
174 1625 m 1,0,-1
 200 1627 l 1,1,2
 406 1441 406 1441 608 1284 c 1,3,-1
 536 1174 l 1,4,-1
 509 1172 l 1,5,6
 317 1283 317 1283 75 1440 c 1,7,-1
 67 1466 l 1,8,-1
 174 1625 l 1,0,-1
354 252 m 1,9,-1
 344 11 l 1,10,-1
 67 -9 l 1,11,-1
 180 802 l 1,12,-1
 189 1036 l 1,13,-1
 462 1057 l 1,14,-1
 354 252 l 1,9,-1
EndSplineSet
Substitution2: "'case' Case-Sensitive Forms lookup 28 subtable" Igrave
Substitution2: "'aalt' Access All Alternates lookup 0 subtable" Igrave
EndChar

StartChar: iacute
Encoding: 237 237 175
Width: 531
GlyphClass: 2
Flags: W
AnchorPoint: "Anchor-1" 0 0 basechar 0
AnchorPoint: "Anchor-0" 326 1045 basechar 0
LayerCount: 2
Fore
SplineSet
536 1625 m 1,0,-1
 642 1466 l 1,1,-1
 636 1440 l 1,2,3
 403 1289 403 1289 200 1172 c 1,4,-1
 174 1174 l 1,5,-1
 101 1284 l 1,6,7
 311 1447 311 1447 507 1627 c 1,8,-1
 536 1625 l 1,0,-1
354 252 m 1,9,-1
 344 11 l 1,10,-1
 67 -9 l 1,11,-1
 180 802 l 1,12,-1
 189 1036 l 1,13,-1
 462 1057 l 1,14,-1
 354 252 l 1,9,-1
EndSplineSet
Substitution2: "'case' Case-Sensitive Forms lookup 28 subtable" Iacute
Substitution2: "'aalt' Access All Alternates lookup 0 subtable" Iacute
EndChar

StartChar: icircumflex
Encoding: 238 238 176
Width: 531
GlyphClass: 2
Flags: W
AnchorPoint: "Anchor-1" 0 0 basechar 0
AnchorPoint: "Anchor-0" 326 1045 basechar 0
LayerCount: 2
Fore
SplineSet
84 1185 m 1,0,-1
 25 1296 l 1,1,2
 63 1328 63 1328 110 1370.5 c 128,-1,3
 157 1413 157 1413 188 1441 c 128,-1,4
 219 1469 219 1469 284.5 1529.5 c 128,-1,5
 350 1590 350 1590 374 1613 c 1,6,-1
 437 1613 l 1,7,8
 558 1455 558 1455 714 1296 c 1,9,-1
 626 1185 l 1,10,-1
 597 1185 l 1,11,12
 455 1312 455 1312 381 1395 c 1,13,14
 289 1316 289 1316 112 1185 c 1,15,-1
 84 1185 l 1,0,-1
354 252 m 1,16,-1
 344 11 l 1,17,-1
 67 -9 l 1,18,-1
 180 802 l 1,19,-1
 189 1036 l 1,20,-1
 462 1057 l 1,21,-1
 354 252 l 1,16,-1
EndSplineSet
Substitution2: "'case' Case-Sensitive Forms lookup 28 subtable" Icircumflex
Substitution2: "'aalt' Access All Alternates lookup 0 subtable" Icircumflex
EndChar

StartChar: idieresis
Encoding: 239 239 177
Width: 531
GlyphClass: 2
Flags: W
AnchorPoint: "Anchor-1" 0 0 basechar 0
AnchorPoint: "Anchor-0" 326 1045 basechar 0
LayerCount: 2
Fore
SplineSet
202 1530 m 0,0,1
 265 1530 265 1530 300.5 1494 c 128,-1,2
 336 1458 336 1458 336 1395 c 0,3,4
 336 1327 336 1327 297 1286.5 c 128,-1,5
 258 1246 258 1246 194 1246 c 0,6,7
 150 1246 150 1246 119.5 1262 c 128,-1,8
 89 1278 89 1278 73.5 1308.5 c 128,-1,9
 58 1339 58 1339 58 1383 c 0,10,11
 58 1451 58 1451 96.5 1490.5 c 128,-1,12
 135 1530 135 1530 202 1530 c 0,0,1
546 1530 m 0,13,14
 606 1530 606 1530 640.5 1494 c 128,-1,15
 675 1458 675 1458 675 1395 c 0,16,17
 675 1350 675 1350 657.5 1316.5 c 128,-1,18
 640 1283 640 1283 608 1264.5 c 128,-1,19
 576 1246 576 1246 534 1246 c 0,20,21
 490 1246 490 1246 459.5 1262 c 128,-1,22
 429 1278 429 1278 413.5 1308.5 c 128,-1,23
 398 1339 398 1339 398 1383 c 0,24,25
 398 1451 398 1451 437.5 1490.5 c 128,-1,26
 477 1530 477 1530 546 1530 c 0,13,14
354 252 m 1,27,-1
 344 11 l 1,28,-1
 67 -9 l 1,29,-1
 180 802 l 1,30,-1
 189 1036 l 1,31,-1
 462 1057 l 1,32,-1
 354 252 l 1,27,-1
EndSplineSet
Ligature2: "'liga' Standard Ligatures lookup 30 subtable" dieresis i
Substitution2: "'case' Case-Sensitive Forms lookup 28 subtable" Idieresis
Substitution2: "'aalt' Access All Alternates lookup 0 subtable" Idieresis
EndChar

StartChar: eth
Encoding: 240 240 178
Width: 1038
GlyphClass: 2
Flags: W
LayerCount: 2
Fore
SplineSet
935 1455 m 1,0,-1
 712 1335 l 1,1,2
 836 1202 836 1202 897.5 1038.5 c 128,-1,3
 959 875 959 875 957 694 c 1,4,5
 957 379 957 379 810 188 c 128,-1,6
 663 -3 663 -3 406 -22 c 1,7,-1
 378 -20 l 1,8,9
 235 12 235 12 161.5 105 c 128,-1,10
 88 198 88 198 88 367 c 0,11,12
 88 563 88 563 153 713.5 c 128,-1,13
 218 864 218 864 339 950 c 128,-1,14
 460 1036 460 1036 622 1045 c 1,15,16
 568 1143 568 1143 488 1217 c 1,17,-1
 207 1068 l 1,18,-1
 187 1075 l 1,19,-1
 142 1191 l 1,20,-1
 367 1313 l 1,21,22
 292 1364 292 1364 153 1430 c 1,23,-1
 157 1462 l 1,24,-1
 351 1595 l 1,25,-1
 367 1595 l 1,26,27
 504 1527 504 1527 604 1440 c 1,28,-1
 867 1582 l 1,29,-1
 890 1573 l 1,30,-1
 935 1455 l 1,0,-1
451 178 m 0,31,32
 582 178 582 178 641.5 304 c 128,-1,33
 701 430 701 430 703 678 c 0,34,35
 703 743 703 743 696 804 c 1,36,37
 661 858 661 858 591 858 c 0,38,39
 460 858 460 858 400 733.5 c 128,-1,40
 340 609 340 609 340 365 c 0,41,42
 340 263 340 263 365 220.5 c 128,-1,43
 390 178 390 178 451 178 c 0,31,32
EndSplineSet
Substitution2: "'case' Case-Sensitive Forms lookup 28 subtable" Eth
Substitution2: "'aalt' Access All Alternates lookup 0 subtable" Eth
EndChar

StartChar: ntilde
Encoding: 241 241 179
Width: 1109
GlyphClass: 2
Flags: W
AnchorPoint: "Anchor-1" 496 0 basechar 0
AnchorPoint: "Anchor-0" 623 1045 basechar 0
LayerCount: 2
Fore
SplineSet
1059 1489 m 1,0,-1
 1059 1464 l 1,1,-1
 901 1266 l 1,2,-1
 874 1255 l 1,3,4
 824 1262 824 1262 689 1298.5 c 128,-1,5
 554 1335 554 1335 525 1335 c 0,6,7
 514 1335 514 1335 502.5 1330.5 c 128,-1,8
 491 1326 491 1326 481.5 1319.5 c 128,-1,9
 472 1313 472 1313 459 1299.5 c 128,-1,10
 446 1286 446 1286 437.5 1276.5 c 128,-1,11
 429 1267 429 1267 413 1248 c 128,-1,12
 397 1229 397 1229 387 1219 c 1,13,-1
 361 1219 l 1,14,-1
 273 1307 l 1,15,-1
 273 1331 l 1,16,-1
 430 1530 l 1,17,-1
 458 1539 l 1,18,19
 510 1532 510 1532 643.5 1496 c 128,-1,20
 777 1460 777 1460 806 1460 c 0,21,22
 819 1460 819 1460 831.5 1465 c 128,-1,23
 844 1470 844 1470 859.5 1483.5 c 128,-1,24
 875 1497 875 1497 885 1507.5 c 128,-1,25
 895 1518 895 1518 915.5 1541 c 128,-1,26
 936 1564 936 1564 946 1575 c 1,27,-1
 971 1575 l 1,28,-1
 1059 1489 l 1,0,-1
761 1054 m 1,29,-1
 789 1057 l 1,30,31
 891 1035 891 1035 958 977.5 c 128,-1,32
 1025 920 1025 920 1023 838 c 1,33,-1
 1021 808 l 1,34,-1
 931 254 l 1,35,-1
 920 11 l 1,36,-1
 638 -9 l 1,37,-1
 748 685 l 1,38,-1
 750 710 l 1,39,40
 750 738 750 738 741.5 750.5 c 128,-1,41
 733 763 733 763 712 763 c 0,42,43
 659 763 659 763 566.5 645 c 128,-1,44
 474 527 474 527 361 301 c 1,45,-1
 354 252 l 1,46,-1
 344 11 l 1,47,-1
 67 -9 l 1,48,-1
 183 802 l 1,49,-1
 191 1036 l 1,50,-1
 464 1057 l 1,51,-1
 408 649 l 1,52,-1
 434 649 l 1,53,54
 522 789 522 789 599.5 885 c 128,-1,55
 677 981 677 981 761 1054 c 1,29,-1
EndSplineSet
Substitution2: "'case' Case-Sensitive Forms lookup 28 subtable" Ntilde
Substitution2: "'aalt' Access All Alternates lookup 0 subtable" Ntilde
EndChar

StartChar: ograve
Encoding: 242 242 180
Width: 981
GlyphClass: 2
Flags: W
AnchorPoint: "Anchor-1" 0 0 basechar 0
AnchorPoint: "Anchor-0" 572 1045 basechar 0
LayerCount: 2
Fore
SplineSet
421 1625 m 1,0,-1
 449 1627 l 1,1,2
 661 1435 661 1435 856 1284 c 1,3,-1
 784 1174 l 1,4,-1
 757 1172 l 1,5,6
 565 1283 565 1283 322 1440 c 1,7,-1
 316 1466 l 1,8,-1
 421 1625 l 1,0,-1
613 1068 m 1,9,-1
 640 1066 l 1,10,11
 928 1008 928 1008 928 694 c 0,12,13
 928 484 928 484 861.5 326.5 c 128,-1,14
 795 169 795 169 670 80 c 128,-1,15
 545 -9 545 -9 374 -22 c 1,16,-1
 346 -20 l 1,17,18
 203 12 203 12 129.5 106.5 c 128,-1,19
 56 201 56 201 56 372 c 0,20,21
 56 573 56 573 123 726.5 c 128,-1,22
 190 880 190 880 316 969 c 128,-1,23
 442 1058 442 1058 613 1068 c 1,9,-1
561 851 m 0,24,25
 431 851 431 851 374.5 730 c 128,-1,26
 318 609 318 609 318 367 c 0,27,28
 318 268 318 268 341.5 227.5 c 128,-1,29
 365 187 365 187 424 187 c 0,30,31
 551 187 551 187 606.5 309.5 c 128,-1,32
 662 432 662 432 662 675 c 0,33,34
 662 772 662 772 639.5 811.5 c 128,-1,35
 617 851 617 851 561 851 c 0,24,25
EndSplineSet
Substitution2: "'case' Case-Sensitive Forms lookup 28 subtable" Ograve
Substitution2: "'aalt' Access All Alternates lookup 0 subtable" Ograve
EndChar

StartChar: oacute
Encoding: 243 243 181
Width: 981
GlyphClass: 2
Flags: W
AnchorPoint: "Anchor-1" 0 0 basechar 0
AnchorPoint: "Anchor-0" 572 1045 basechar 0
LayerCount: 2
Fore
SplineSet
782 1625 m 1,0,-1
 888 1466 l 1,1,-1
 881 1440 l 1,2,3
 639 1283 639 1283 447 1172 c 1,4,-1
 419 1174 l 1,5,-1
 346 1284 l 1,6,7
 557 1447 557 1447 752 1627 c 1,8,-1
 782 1625 l 1,0,-1
613 1068 m 1,9,-1
 640 1066 l 1,10,11
 928 1008 928 1008 928 694 c 0,12,13
 928 484 928 484 861.5 326.5 c 128,-1,14
 795 169 795 169 670 80 c 128,-1,15
 545 -9 545 -9 374 -22 c 1,16,-1
 346 -20 l 1,17,18
 203 12 203 12 129.5 106.5 c 128,-1,19
 56 201 56 201 56 372 c 0,20,21
 56 573 56 573 123 726.5 c 128,-1,22
 190 880 190 880 316 969 c 128,-1,23
 442 1058 442 1058 613 1068 c 1,9,-1
561 851 m 0,24,25
 431 851 431 851 374.5 730 c 128,-1,26
 318 609 318 609 318 367 c 0,27,28
 318 268 318 268 341.5 227.5 c 128,-1,29
 365 187 365 187 424 187 c 0,30,31
 551 187 551 187 606.5 309.5 c 128,-1,32
 662 432 662 432 662 675 c 0,33,34
 662 772 662 772 639.5 811.5 c 128,-1,35
 617 851 617 851 561 851 c 0,24,25
EndSplineSet
Substitution2: "'case' Case-Sensitive Forms lookup 28 subtable" Oacute
Substitution2: "'aalt' Access All Alternates lookup 0 subtable" Oacute
EndChar

StartChar: ocircumflex
Encoding: 244 244 182
Width: 981
GlyphClass: 2
Flags: W
AnchorPoint: "Anchor-1" 0 0 basechar 0
AnchorPoint: "Anchor-0" 572 1045 basechar 0
LayerCount: 2
Fore
SplineSet
331 1185 m 1,0,-1
 273 1296 l 1,1,2
 310 1328 310 1328 357.5 1370.5 c 128,-1,3
 405 1413 405 1413 436 1441 c 128,-1,4
 467 1469 467 1469 532 1529.5 c 128,-1,5
 597 1590 597 1590 622 1613 c 1,6,-1
 685 1613 l 1,7,8
 811 1450 811 1450 961 1296 c 1,9,-1
 874 1185 l 1,10,-1
 845 1185 l 1,11,12
 702 1312 702 1312 628 1395 c 1,13,14
 531 1310 531 1310 361 1185 c 1,15,-1
 331 1185 l 1,0,-1
613 1068 m 1,16,-1
 640 1066 l 1,17,18
 928 1008 928 1008 928 694 c 0,19,20
 928 484 928 484 861.5 326.5 c 128,-1,21
 795 169 795 169 670 80 c 128,-1,22
 545 -9 545 -9 374 -22 c 1,23,-1
 346 -20 l 1,24,25
 203 12 203 12 129.5 106.5 c 128,-1,26
 56 201 56 201 56 372 c 0,27,28
 56 573 56 573 123 726.5 c 128,-1,29
 190 880 190 880 316 969 c 128,-1,30
 442 1058 442 1058 613 1068 c 1,16,-1
561 851 m 0,31,32
 431 851 431 851 374.5 730 c 128,-1,33
 318 609 318 609 318 367 c 0,34,35
 318 268 318 268 341.5 227.5 c 128,-1,36
 365 187 365 187 424 187 c 0,37,38
 551 187 551 187 606.5 309.5 c 128,-1,39
 662 432 662 432 662 675 c 0,40,41
 662 772 662 772 639.5 811.5 c 128,-1,42
 617 851 617 851 561 851 c 0,31,32
EndSplineSet
Substitution2: "'case' Case-Sensitive Forms lookup 28 subtable" Ocircumflex
Substitution2: "'aalt' Access All Alternates lookup 0 subtable" Ocircumflex
EndChar

StartChar: otilde
Encoding: 245 245 183
Width: 981
GlyphClass: 2
Flags: W
AnchorPoint: "Anchor-1" 0 0 basechar 0
AnchorPoint: "Anchor-0" 572 1045 basechar 0
LayerCount: 2
Fore
SplineSet
1006 1489 m 1,0,-1
 1006 1464 l 1,1,-1
 849 1266 l 1,2,-1
 823 1255 l 1,3,4
 772 1262 772 1262 637.5 1298.5 c 128,-1,5
 503 1335 503 1335 473 1335 c 0,6,7
 460 1335 460 1335 447.5 1330 c 128,-1,8
 435 1325 435 1325 419.5 1311 c 128,-1,9
 404 1297 404 1297 395 1287 c 128,-1,10
 386 1277 386 1277 365.5 1253 c 128,-1,11
 345 1229 345 1229 336 1219 c 1,12,-1
 309 1219 l 1,13,-1
 221 1307 l 1,14,-1
 221 1331 l 1,15,-1
 378 1530 l 1,16,-1
 406 1539 l 1,17,18
 450 1533 450 1533 526 1513 c 128,-1,19
 602 1493 602 1493 666 1476.5 c 128,-1,20
 730 1460 730 1460 755 1460 c 0,21,22
 768 1460 768 1460 780.5 1465 c 128,-1,23
 793 1470 793 1470 808 1483.5 c 128,-1,24
 823 1497 823 1497 833 1507.5 c 128,-1,25
 843 1518 843 1518 863.5 1541 c 128,-1,26
 884 1564 884 1564 894 1575 c 1,27,-1
 920 1575 l 1,28,-1
 1006 1489 l 1,0,-1
613 1068 m 1,29,-1
 640 1066 l 1,30,31
 928 1008 928 1008 928 694 c 0,32,33
 928 484 928 484 861.5 326.5 c 128,-1,34
 795 169 795 169 670 80 c 128,-1,35
 545 -9 545 -9 374 -22 c 1,36,-1
 346 -20 l 1,37,38
 203 12 203 12 129.5 106.5 c 128,-1,39
 56 201 56 201 56 372 c 0,40,41
 56 573 56 573 123 726.5 c 128,-1,42
 190 880 190 880 316 969 c 128,-1,43
 442 1058 442 1058 613 1068 c 1,29,-1
561 851 m 0,44,45
 431 851 431 851 374.5 730 c 128,-1,46
 318 609 318 609 318 367 c 0,47,48
 318 268 318 268 341.5 227.5 c 128,-1,49
 365 187 365 187 424 187 c 0,50,51
 551 187 551 187 606.5 309.5 c 128,-1,52
 662 432 662 432 662 675 c 0,53,54
 662 772 662 772 639.5 811.5 c 128,-1,55
 617 851 617 851 561 851 c 0,44,45
EndSplineSet
Substitution2: "'case' Case-Sensitive Forms lookup 28 subtable" Otilde
Substitution2: "'aalt' Access All Alternates lookup 0 subtable" Otilde
EndChar

StartChar: odieresis
Encoding: 246 246 184
Width: 981
GlyphClass: 2
Flags: W
AnchorPoint: "Anchor-1" 0 0 basechar 0
AnchorPoint: "Anchor-0" 572 1045 basechar 0
LayerCount: 2
Fore
SplineSet
426 1532 m 0,0,1
 487 1532 487 1532 522 1496 c 128,-1,2
 557 1460 557 1460 557 1397 c 0,3,4
 557 1351 557 1351 539.5 1317.5 c 128,-1,5
 522 1284 522 1284 490 1266 c 128,-1,6
 458 1248 458 1248 415 1248 c 0,7,8
 349 1248 349 1248 314 1284 c 128,-1,9
 279 1320 279 1320 279 1386 c 0,10,11
 279 1454 279 1454 318.5 1493 c 128,-1,12
 358 1532 358 1532 426 1532 c 0,0,1
817 1530 m 0,13,14
 859 1530 859 1530 888.5 1513.5 c 128,-1,15
 918 1497 918 1497 933 1467 c 128,-1,16
 948 1437 948 1437 948 1395 c 0,17,18
 948 1327 948 1327 910 1286.5 c 128,-1,19
 872 1246 872 1246 806 1246 c 0,20,21
 742 1246 742 1246 707.5 1281.5 c 128,-1,22
 673 1317 673 1317 673 1383 c 0,23,24
 673 1451 673 1451 711.5 1490.5 c 128,-1,25
 750 1530 750 1530 817 1530 c 0,13,14
613 1068 m 1,26,-1
 640 1066 l 1,27,28
 928 1008 928 1008 928 694 c 0,29,30
 928 484 928 484 861.5 326.5 c 128,-1,31
 795 169 795 169 670 80 c 128,-1,32
 545 -9 545 -9 374 -22 c 1,33,-1
 346 -20 l 1,34,35
 203 12 203 12 129.5 106.5 c 128,-1,36
 56 201 56 201 56 372 c 0,37,38
 56 573 56 573 123 726.5 c 128,-1,39
 190 880 190 880 316 969 c 128,-1,40
 442 1058 442 1058 613 1068 c 1,26,-1
561 851 m 0,41,42
 431 851 431 851 374.5 730 c 128,-1,43
 318 609 318 609 318 367 c 0,44,45
 318 268 318 268 341.5 227.5 c 128,-1,46
 365 187 365 187 424 187 c 0,47,48
 551 187 551 187 606.5 309.5 c 128,-1,49
 662 432 662 432 662 675 c 0,50,51
 662 772 662 772 639.5 811.5 c 128,-1,52
 617 851 617 851 561 851 c 0,41,42
EndSplineSet
Ligature2: "'liga' Standard Ligatures lookup 30 subtable" dieresis o
Substitution2: "'case' Case-Sensitive Forms lookup 28 subtable" Odieresis
Substitution2: "'aalt' Access All Alternates lookup 0 subtable" Odieresis
EndChar

StartChar: divide
Encoding: 247 247 185
Width: 1073
GlyphClass: 2
Flags: W
LayerCount: 2
Fore
SplineSet
597 1113 m 0,0,1
 658 1113 658 1113 693 1078 c 128,-1,2
 728 1043 728 1043 728 980 c 0,3,4
 728 914 728 914 689.5 875 c 128,-1,5
 651 836 651 836 585 836 c 0,6,7
 522 836 522 836 488.5 870.5 c 128,-1,8
 455 905 455 905 455 969 c 0,9,10
 455 1035 455 1035 493.5 1074 c 128,-1,11
 532 1113 532 1113 597 1113 c 0,0,1
1034 667 m 1,12,-1
 1019 488 l 1,13,-1
 79 488 l 1,14,-1
 60 509 l 1,15,-1
 75 688 l 1,16,-1
 1014 688 l 1,17,-1
 1034 667 l 1,12,-1
505 349 m 0,18,19
 545 349 545 349 574 333 c 128,-1,20
 603 317 603 317 617.5 287 c 128,-1,21
 632 257 632 257 632 217 c 0,22,23
 632 172 632 172 615.5 138.5 c 128,-1,24
 599 105 599 105 567.5 87 c 128,-1,25
 536 69 536 69 494 69 c 0,26,27
 431 69 431 69 397 104.5 c 128,-1,28
 363 140 363 140 363 205 c 0,29,30
 363 271 363 271 401 310 c 128,-1,31
 439 349 439 349 505 349 c 0,18,19
EndSplineSet
EndChar

StartChar: oslash
Encoding: 248 248 186
Width: 981
GlyphClass: 2
Flags: W
AnchorPoint: "Anchor-1" 0 0 basechar 0
AnchorPoint: "Anchor-0" 545 1045 basechar 0
LayerCount: 2
Fore
SplineSet
969 1180 m 1,0,-1
 845 957 l 1,1,2
 928 860 928 860 928 694 c 0,3,4
 928 484 928 484 861.5 326.5 c 128,-1,5
 795 169 795 169 670 80 c 128,-1,6
 545 -9 545 -9 374 -22 c 1,7,-1
 346 -20 l 1,8,-1
 320 -13 l 1,9,-1
 176 -277 l 1,10,-1
 30 -200 l 1,11,-1
 22 -174 l 1,12,-1
 160 73 l 1,13,14
 56 173 56 173 56 372 c 0,15,16
 56 573 56 573 123 726.5 c 128,-1,17
 190 880 190 880 316 969 c 128,-1,18
 442 1058 442 1058 613 1068 c 1,19,-1
 640 1066 l 1,20,21
 679 1056 679 1056 690 1052 c 1,22,-1
 817 1284 l 1,23,-1
 953 1208 l 1,24,-1
 969 1180 l 1,0,-1
424 187 m 0,25,26
 551 187 551 187 606.5 309.5 c 128,-1,27
 662 432 662 432 662 675 c 0,28,29
 662 772 662 772 639.5 811.5 c 128,-1,30
 617 851 617 851 561 851 c 0,31,32
 431 851 431 851 374.5 730 c 128,-1,33
 318 609 318 609 318 367 c 0,34,35
 318 268 318 268 341.5 227.5 c 128,-1,36
 365 187 365 187 424 187 c 0,25,26
EndSplineSet
Substitution2: "'case' Case-Sensitive Forms lookup 28 subtable" Oslash
Substitution2: "'aalt' Access All Alternates lookup 0 subtable" Oslash
EndChar

